SplineFontDB: 3.0
FontName: Damion
FullName: Damion
FamilyName: Damion
Weight: Book
Copyright: Copyright (c) 2011 by vernon adams. All rights reserved.
Version: 1.000
ItalicAngle: 0
UnderlinePosition: -103
UnderlineWidth: 102
Ascent: 1638
Descent: 410
sfntRevision: 0x00010000
LayerCount: 2
Layer: 0 1 "Back"  1
Layer: 1 1 "Fore"  0
XUID: [1021 759 1887733602 699802]
FSType: 0
OS2Version: 2
OS2_WeightWidthSlopeOnly: 0
OS2_UseTypoMetrics: 1
CreationTime: 1303069801
ModificationTime: 1303114608
PfmFamily: 17
TTFWeight: 400
TTFWidth: 5
LineGap: 0
VLineGap: 0
Panose: 2 0 0 0 0 0 0 0 0 0
OS2TypoAscent: -103
OS2TypoAOffset: 1
OS2TypoDescent: -183
OS2TypoDOffset: 1
OS2TypoLinegap: 0
OS2WinAscent: -533
OS2WinAOffset: 1
OS2WinDescent: -153
OS2WinDOffset: 1
HheadAscent: -533
HheadAOffset: 1
HheadDescent: 153
HheadDOffset: 1
OS2SubXSize: 1434
OS2SubYSize: 1331
OS2SubXOff: 0
OS2SubYOff: 287
OS2SupXSize: 1434
OS2SupYSize: 1331
OS2SupXOff: 0
OS2SupYOff: 977
OS2StrikeYSize: 102
OS2StrikeYPos: 512
OS2Vendor: 'newt'
OS2CodePages: 00000093.00000000
OS2UnicodeRanges: 8000006f.4000004b.00000000.00000000
Lookup: 258 0 0 "'kern' Horizontal Kerning lookup 0"  {"'kern' Horizontal Kerning lookup 0 subtable"  } ['kern' ('    ' <'dflt' > 'latn' <'dflt' > ) ]
MarkAttachClasses: 1
DEI: 91125
TtTable: prep
PUSHW_1
 511
SCANCTRL
PUSHB_1
 4
SCANTYPE
EndTTInstrs
ShortTable: maxp 16
  1
  0
  268
  152
  5
  175
  4
  1
  0
  0
  0
  0
  0
  0
  3
  1
EndShort

StartChar: exclam
Encoding: 33 33 4
Width: 959
GlyphClass: 2
Flags: W
LayerCount: 2
Fore
SplineSet
639 139 m 0,0,1
 635 108 635 108 620 80 c 128,-1,2
 605 52 605 52 583 30.5 c 128,-1,3
 561 9 561 9 533 -3.5 c 128,-1,4
 505 -16 505 -16 475 -16 c 0,5,6
 430 -16 430 -16 403 13.5 c 128,-1,7
 376 43 376 43 376 86 c 0,8,9
 376 119 376 119 390 149 c 128,-1,10
 404 179 404 179 427.5 202.5 c 128,-1,11
 451 226 451 226 481 240 c 128,-1,12
 511 254 511 254 543 254 c 0,13,14
 588 254 588 254 614 226 c 128,-1,15
 640 198 640 198 640 155 c 0,16,17
 640 151 640 151 640 147.5 c 128,-1,18
 640 144 640 144 639 139 c 0,0,1
1110 1200 m 0,19,20
 1055 1095 1055 1095 1010 1011.5 c 128,-1,21
 965 928 965 928 922 849 c 128,-1,22
 879 770 879 770 834 686.5 c 128,-1,23
 789 603 789 603 734 498 c 0,24,25
 719 469 719 469 691 454.5 c 128,-1,26
 663 440 663 440 639 440 c 0,27,28
 619 440 619 440 606.5 448.5 c 128,-1,29
 594 457 594 457 594 475 c 0,30,31
 594 487 594 487 599 498 c 0,32,33
 629 568 629 568 655 627.5 c 128,-1,34
 681 687 681 687 704.5 742 c 128,-1,35
 728 797 728 797 750 849 c 128,-1,36
 772 901 772 901 795.5 955.5 c 128,-1,37
 819 1010 819 1010 845 1070 c 128,-1,38
 871 1130 871 1130 901 1200 c 0,39,40
 909 1218 909 1218 923.5 1232 c 128,-1,41
 938 1246 938 1246 957 1255.5 c 128,-1,42
 976 1265 976 1265 997 1269.5 c 128,-1,43
 1018 1274 1018 1274 1039 1274 c 0,44,45
 1071 1274 1071 1274 1093.5 1262 c 128,-1,46
 1116 1250 1116 1250 1116 1224 c 0,47,48
 1116 1213 1116 1213 1110 1200 c 0,19,20
EndSplineSet
EndChar

StartChar: quotedbl
Encoding: 34 34 5
Width: 852
GlyphClass: 2
Flags: W
LayerCount: 2
Fore
SplineSet
1059 1368 m 1,0,1
 1018 1297 1018 1297 972 1225.5 c 128,-1,2
 926 1154 926 1154 879.5 1083 c 128,-1,3
 833 1012 833 1012 787.5 943 c 128,-1,4
 742 874 742 874 700 809 c 0,5,6
 683 783 683 783 657.5 769 c 128,-1,7
 632 755 632 755 609 755 c 0,8,9
 592 755 592 755 581 762.5 c 128,-1,10
 570 770 570 770 570 785 c 0,11,12
 570 791 570 791 572.5 796.5 c 128,-1,13
 575 802 575 802 577 809 c 1,14,15
 614 884 614 884 651.5 959.5 c 128,-1,16
 689 1035 689 1035 724.5 1106.5 c 128,-1,17
 760 1178 760 1178 792 1244.5 c 128,-1,18
 824 1311 824 1311 851 1368 c 0,19,20
 859 1384 859 1384 872.5 1396 c 128,-1,21
 886 1408 886 1408 903 1416 c 128,-1,22
 920 1424 920 1424 939.5 1427.5 c 128,-1,23
 959 1431 959 1431 978 1431 c 0,24,25
 1013 1431 1013 1431 1039 1419.5 c 128,-1,26
 1065 1408 1065 1408 1065 1386 c 0,27,28
 1065 1382 1065 1382 1064 1377 c 128,-1,29
 1063 1372 1063 1372 1059 1368 c 1,0,1
759 1368 m 1,30,31
 721 1298 721 1298 681 1226.5 c 128,-1,32
 641 1155 641 1155 599.5 1084 c 128,-1,33
 558 1013 558 1013 517.5 943.5 c 128,-1,34
 477 874 477 874 440 809 c 0,35,36
 425 783 425 783 402 769 c 128,-1,37
 379 755 379 755 357 755 c 0,38,39
 340 755 340 755 330 762.5 c 128,-1,40
 320 770 320 770 320 784 c 0,41,42
 320 790 320 790 322.5 796 c 128,-1,43
 325 802 325 802 327 809 c 0,44,45
 358 884 358 884 389.5 959.5 c 128,-1,46
 421 1035 421 1035 451 1106.5 c 128,-1,47
 481 1178 481 1178 508.5 1244.5 c 128,-1,48
 536 1311 536 1311 559 1368 c 1,49,50
 574 1401 574 1401 607 1416 c 128,-1,51
 640 1431 640 1431 678 1431 c 0,52,53
 713 1431 713 1431 739 1419.5 c 128,-1,54
 765 1408 765 1408 765 1386 c 0,55,56
 765 1382 765 1382 764 1377 c 128,-1,57
 763 1372 763 1372 759 1368 c 1,30,31
EndSplineSet
EndChar

StartChar: numbersign
Encoding: 35 35 6
Width: 1381
GlyphClass: 2
Flags: W
LayerCount: 2
Fore
SplineSet
1067 823 m 1,0,-1
 809 823 l 1,1,2
 777 759 777 759 744 696 c 128,-1,3
 711 633 711 633 679 569 c 1,4,-1
 937 569 l 1,5,6
 969 633 969 633 1002 696 c 128,-1,7
 1035 759 1035 759 1067 823 c 1,0,-1
1456 946 m 2,8,9
 1469 946 1469 946 1474.5 939.5 c 128,-1,10
 1480 933 1480 933 1480 922 c 0,11,12
 1480 908 1480 908 1472.5 890.5 c 128,-1,13
 1465 873 1465 873 1454 858 c 128,-1,14
 1443 843 1443 843 1430 833 c 128,-1,15
 1417 823 1417 823 1407 823 c 2,16,-1
 1189 823 l 1,17,18
 1156 759 1156 759 1122.5 696 c 128,-1,19
 1089 633 1089 633 1056 569 c 1,20,-1
 1260 569 l 2,21,22
 1273 569 1273 569 1278.5 562 c 128,-1,23
 1284 555 1284 555 1284 544 c 0,24,25
 1284 530 1284 530 1277 514 c 128,-1,26
 1270 498 1270 498 1260 484 c 128,-1,27
 1250 470 1250 470 1238 460.5 c 128,-1,28
 1226 451 1226 451 1216 451 c 2,29,-1
 995 451 l 1,30,31
 966 395 966 395 935.5 335 c 128,-1,32
 905 275 905 275 875 216.5 c 128,-1,33
 845 158 845 158 816 102.5 c 128,-1,34
 787 47 787 47 760 0 c 0,35,36
 752 -15 752 -15 728.5 -23 c 128,-1,37
 705 -31 705 -31 682 -31 c 0,38,39
 661 -31 661 -31 648.5 -25.5 c 128,-1,40
 636 -20 636 -20 636 -8 c 0,41,42
 636 -6 636 -6 638 0 c 0,43,44
 664 50 664 50 693 106 c 128,-1,45
 722 162 722 162 752 219.5 c 128,-1,46
 782 277 782 277 812.5 336 c 128,-1,47
 843 395 843 395 872 451 c 1,48,-1
 614 451 l 1,49,50
 585 395 585 395 554 333 c 128,-1,51
 523 271 523 271 492.5 211 c 128,-1,52
 462 151 462 151 433 96.5 c 128,-1,53
 404 42 404 42 380 0 c 0,54,55
 371 -15 371 -15 349.5 -22 c 128,-1,56
 328 -29 328 -29 305 -29 c 0,57,58
 284 -29 284 -29 271.5 -24 c 128,-1,59
 259 -19 259 -19 259 -8 c 0,60,61
 259 -6 259 -6 261 0 c 0,62,63
 282 44 282 44 310.5 99 c 128,-1,64
 339 154 339 154 370.5 213.5 c 128,-1,65
 402 273 402 273 434 334 c 128,-1,66
 466 395 466 395 495 451 c 1,67,-1
 270 451 l 2,68,69
 254 451 254 451 254 471 c 0,70,71
 254 482 254 482 260 499 c 128,-1,72
 266 516 266 516 275 531.5 c 128,-1,73
 284 547 284 547 295.5 558 c 128,-1,74
 307 569 307 569 318 569 c 2,75,-1
 556 569 l 1,76,77
 590 633 590 633 623 696 c 128,-1,78
 656 759 656 759 690 823 c 1,79,-1
 469 823 l 2,80,81
 455 823 455 823 449.5 830.5 c 128,-1,82
 444 838 444 838 444 849 c 0,83,84
 444 863 444 863 451 880 c 128,-1,85
 458 897 458 897 468.5 911.5 c 128,-1,86
 479 926 479 926 491 936 c 128,-1,87
 503 946 503 946 514 946 c 2,88,-1
 751 946 l 1,89,90
 779 999 779 999 808 1054.5 c 128,-1,91
 837 1110 837 1110 865.5 1165 c 128,-1,92
 894 1220 894 1220 921 1271.5 c 128,-1,93
 948 1323 948 1323 972 1368 c 0,94,95
 980 1383 980 1383 1003 1390.5 c 128,-1,96
 1026 1398 1026 1398 1049 1398 c 0,97,98
 1070 1398 1070 1398 1083 1392 c 128,-1,99
 1096 1386 1096 1386 1096 1375 c 0,100,101
 1096 1370 1096 1370 1095 1368 c 0,102,103
 1075 1326 1075 1326 1048.5 1274.5 c 128,-1,104
 1022 1223 1022 1223 992.5 1167.5 c 128,-1,105
 963 1112 963 1112 932.5 1055.5 c 128,-1,106
 902 999 902 999 874 946 c 1,107,-1
 1132 946 l 1,108,109
 1159 999 1159 999 1188.5 1056.5 c 128,-1,110
 1218 1114 1218 1114 1246.5 1170 c 128,-1,111
 1275 1226 1275 1226 1301.5 1277 c 128,-1,112
 1328 1328 1328 1328 1349 1368 c 0,113,114
 1357 1383 1357 1383 1379.5 1391 c 128,-1,115
 1402 1399 1402 1399 1425 1399 c 0,116,117
 1446 1399 1446 1399 1459 1393 c 128,-1,118
 1472 1387 1472 1387 1472 1375 c 0,119,120
 1472 1371 1472 1371 1471 1368 c 0,121,122
 1449 1325 1449 1325 1422.5 1273.5 c 128,-1,123
 1396 1222 1396 1222 1367 1167 c 128,-1,124
 1338 1112 1338 1112 1308.5 1055.5 c 128,-1,125
 1279 999 1279 999 1251 946 c 1,126,-1
 1456 946 l 2,8,9
EndSplineSet
EndChar

StartChar: dollar
Encoding: 36 36 7
Width: 1300
GlyphClass: 2
Flags: W
LayerCount: 2
Fore
SplineSet
807 942 m 0,0,1
 805 936 805 936 805 930 c 128,-1,2
 805 924 805 924 805 918 c 0,3,4
 805 886 805 886 824 854.5 c 128,-1,5
 843 823 843 823 886 795 c 1,6,7
 931 885 931 885 976 973 c 128,-1,8
 1021 1061 1021 1061 1066 1151 c 1,9,10
 1018 1132 1018 1132 973.5 1108 c 128,-1,11
 929 1084 929 1084 893.5 1057 c 128,-1,12
 858 1030 858 1030 835 1001 c 128,-1,13
 812 972 812 972 807 942 c 0,0,1
1034 391 m 0,14,15
 1035 394 1035 394 1035 397.5 c 128,-1,16
 1035 401 1035 401 1035 404 c 0,17,18
 1035 424 1035 424 1027 440 c 128,-1,19
 1019 456 1019 456 1002 472.5 c 128,-1,20
 985 489 985 489 959.5 506.5 c 128,-1,21
 934 524 934 524 898 547 c 1,22,23
 850 453 850 453 802 359 c 128,-1,24
 754 265 754 265 706 170 c 1,25,26
 767 176 767 176 823 195 c 128,-1,27
 879 214 879 214 923.5 243 c 128,-1,28
 968 272 968 272 997 309.5 c 128,-1,29
 1026 347 1026 347 1034 391 c 0,14,15
1421 1573 m 1,30,31
 1397 1525 1397 1525 1372.5 1478 c 128,-1,32
 1348 1431 1348 1431 1323 1383 c 1,33,-1
 1332 1383 l 2,34,35
 1375 1383 1375 1383 1412 1374.5 c 128,-1,36
 1449 1366 1449 1366 1475 1347.5 c 128,-1,37
 1501 1329 1501 1329 1516 1300 c 128,-1,38
 1531 1271 1531 1271 1531 1231 c 0,39,40
 1531 1143 1531 1143 1473 1064 c 128,-1,41
 1415 985 1415 985 1304 918 c 0,42,43
 1259 891 1259 891 1227 891 c 0,44,45
 1198 891 1198 891 1182 909.5 c 128,-1,46
 1166 928 1166 928 1166 955 c 0,47,48
 1166 986 1166 986 1187.5 1020 c 128,-1,49
 1209 1054 1209 1054 1257 1077 c 0,50,51
 1274 1085 1274 1085 1290.5 1096.5 c 128,-1,52
 1307 1108 1307 1108 1319.5 1121.5 c 128,-1,53
 1332 1135 1332 1135 1340 1148.5 c 128,-1,54
 1348 1162 1348 1162 1348 1175 c 0,55,56
 1348 1193 1348 1193 1334 1198.5 c 128,-1,57
 1320 1204 1320 1204 1300 1204 c 0,58,59
 1283 1204 1283 1204 1265.5 1202 c 128,-1,60
 1248 1200 1248 1200 1229 1197 c 1,61,62
 1108 962 1108 962 991 730 c 1,63,-1
 1124 646 l 1,64,65
 1202 603 1202 603 1238 550.5 c 128,-1,66
 1274 498 1274 498 1274 441 c 0,67,68
 1274 423 1274 423 1271 407 c 0,69,70
 1257 327 1257 327 1201.5 250.5 c 128,-1,71
 1146 174 1146 174 1059 114 c 128,-1,72
 972 54 972 54 858 17 c 128,-1,73
 744 -20 744 -20 613 -20 c 2,74,-1
 608 -20 l 1,75,-1
 514 -205 l 1,76,77
 500 -238 500 -238 478.5 -252.5 c 128,-1,78
 457 -267 457 -267 437 -267 c 0,79,80
 413 -267 413 -267 395 -256.5 c 128,-1,81
 377 -246 377 -246 377 -226 c 0,82,83
 377 -216 377 -216 383 -205 c 2,84,-1
 479 -12 l 1,85,86
 405 -3 405 -3 352 15.5 c 128,-1,87
 299 34 299 34 265.5 60.5 c 128,-1,88
 232 87 232 87 216.5 119 c 128,-1,89
 201 151 201 151 201 187 c 0,90,91
 201 240 201 240 232.5 296.5 c 128,-1,92
 264 353 264 353 319.5 404 c 128,-1,93
 375 455 375 455 450.5 495.5 c 128,-1,94
 526 536 526 536 615 557 c 1,95,-1
 621 557 l 2,96,97
 641 557 641 557 650 539.5 c 128,-1,98
 659 522 659 522 659 501 c 128,-1,99
 659 480 659 480 655 465.5 c 128,-1,100
 651 451 651 451 640.5 439.5 c 128,-1,101
 630 428 630 428 611.5 418 c 128,-1,102
 593 408 593 408 564 397 c 0,103,104
 498 371 498 371 459.5 334 c 128,-1,105
 421 297 421 297 421 262 c 0,106,107
 421 230 421 230 456 205.5 c 128,-1,108
 491 181 491 181 572 172 c 1,109,110
 627 282 627 282 682 391 c 128,-1,111
 737 500 737 500 793 611 c 1,112,113
 739 644 739 644 702.5 676 c 128,-1,114
 666 708 666 708 644 739.5 c 128,-1,115
 622 771 622 771 612.5 804.5 c 128,-1,116
 603 838 603 838 603 874 c 0,117,118
 603 928 603 928 626.5 980 c 128,-1,119
 650 1032 650 1032 691 1080.5 c 128,-1,120
 732 1129 732 1129 787 1172 c 128,-1,121
 842 1215 842 1215 905 1251.5 c 128,-1,122
 968 1288 968 1288 1035.5 1315.5 c 128,-1,123
 1103 1343 1103 1343 1170 1360 c 1,124,-1
 1277 1573 l 1,125,126
 1291 1605 1291 1605 1314.5 1620 c 128,-1,127
 1338 1635 1338 1635 1361 1635 c 0,128,129
 1387 1635 1387 1635 1405.5 1623.5 c 128,-1,130
 1424 1612 1424 1612 1424 1590 c 0,131,132
 1424 1588 1424 1588 1423.5 1585.5 c 128,-1,133
 1423 1583 1423 1583 1423 1581 c 2,134,-1
 1421 1573 l 1,30,31
EndSplineSet
EndChar

StartChar: percent
Encoding: 37 37 8
Width: 1769
GlyphClass: 2
Flags: W
LayerCount: 2
Fore
SplineSet
1530 427 m 0,0,1
 1530 472 1530 472 1505.5 498.5 c 128,-1,2
 1481 525 1481 525 1435 525 c 0,3,4
 1393 525 1393 525 1354 495.5 c 128,-1,5
 1315 466 1315 466 1285 420.5 c 128,-1,6
 1255 375 1255 375 1236.5 319 c 128,-1,7
 1218 263 1218 263 1218 210 c 0,8,9
 1218 187 1218 187 1223 165 c 128,-1,10
 1228 143 1228 143 1239 125.5 c 128,-1,11
 1250 108 1250 108 1267 97.5 c 128,-1,12
 1284 87 1284 87 1308 87 c 0,13,14
 1353 87 1353 87 1393.5 117.5 c 128,-1,15
 1434 148 1434 148 1464.5 196.5 c 128,-1,16
 1495 245 1495 245 1512.5 305.5 c 128,-1,17
 1530 366 1530 366 1530 427 c 0,0,1
701 857 m 0,18,19
 701 920 701 920 678.5 950 c 128,-1,20
 656 980 656 980 615 980 c 0,21,22
 567 980 567 980 526 951.5 c 128,-1,23
 485 923 485 923 455 877.5 c 128,-1,24
 425 832 425 832 407.5 774 c 128,-1,25
 390 716 390 716 390 657 c 0,26,27
 390 634 390 634 396 611.5 c 128,-1,28
 402 589 402 589 413 571 c 128,-1,29
 424 553 424 553 441 541.5 c 128,-1,30
 458 530 458 530 480 530 c 0,31,32
 526 530 526 530 566.5 559.5 c 128,-1,33
 607 589 607 589 637 636 c 128,-1,34
 667 683 667 683 684 741.5 c 128,-1,35
 701 800 701 800 701 857 c 0,18,19
529 -233 m 1,36,37
 520 -247 520 -247 506.5 -253 c 128,-1,38
 493 -259 493 -259 477 -259 c 0,39,40
 462 -259 462 -259 446.5 -253.5 c 128,-1,41
 431 -248 431 -248 418.5 -238.5 c 128,-1,42
 406 -229 406 -229 398 -216 c 128,-1,43
 390 -203 390 -203 390 -187 c 0,44,45
 390 -165 390 -165 405 -143 c 2,46,-1
 1147 932 l 1,47,48
 1108 911 1108 911 1071.5 896 c 128,-1,49
 1035 881 1035 881 996.5 870.5 c 128,-1,50
 958 860 958 860 917 853 c 128,-1,51
 876 846 876 846 828 841 c 1,52,53
 828 750 828 750 797 671 c 128,-1,54
 766 592 766 592 715.5 533.5 c 128,-1,55
 665 475 665 475 600 441 c 128,-1,56
 535 407 535 407 468 407 c 0,57,58
 414 407 414 407 375 427.5 c 128,-1,59
 336 448 336 448 310 483 c 128,-1,60
 284 518 284 518 271.5 565 c 128,-1,61
 259 612 259 612 259 665 c 0,62,63
 259 745 259 745 289.5 823 c 128,-1,64
 320 901 320 901 372.5 962.5 c 128,-1,65
 425 1024 425 1024 496 1061.5 c 128,-1,66
 567 1099 567 1099 648 1099 c 0,67,68
 720 1099 720 1099 766 1057 c 128,-1,69
 812 1015 812 1015 828 939 c 1,70,71
 895 956 895 956 951 978.5 c 128,-1,72
 1007 1001 1007 1001 1059 1028.5 c 128,-1,73
 1111 1056 1111 1056 1163 1088.5 c 128,-1,74
 1215 1121 1215 1121 1275 1159 c 1,75,76
 1296 1176 1296 1176 1316 1184 c 128,-1,77
 1336 1192 1336 1192 1353 1192 c 0,78,79
 1383 1192 1383 1192 1402.5 1171.5 c 128,-1,80
 1422 1151 1422 1151 1422 1119 c 0,81,82
 1422 1091 1422 1091 1406 1060 c 1,83,-1
 702 22 l 1,84,85
 761 41 761 41 817.5 57.5 c 128,-1,86
 874 74 874 74 923.5 87.5 c 128,-1,87
 973 101 973 101 1013.5 111 c 128,-1,88
 1054 121 1054 121 1081 127 c 1,89,90
 1075 157 1075 157 1075 189 c 0,91,92
 1075 277 1075 277 1103.5 360 c 128,-1,93
 1132 443 1132 443 1181.5 507 c 128,-1,94
 1231 571 1231 571 1297.5 609.5 c 128,-1,95
 1364 648 1364 648 1440 648 c 0,96,97
 1489 648 1489 648 1531 633 c 128,-1,98
 1573 618 1573 618 1603.5 589.5 c 128,-1,99
 1634 561 1634 561 1651.5 521 c 128,-1,100
 1669 481 1669 481 1669 431 c 0,101,102
 1669 338 1669 338 1639.5 252.5 c 128,-1,103
 1610 167 1610 167 1559 102 c 128,-1,104
 1508 37 1508 37 1439.5 -1.5 c 128,-1,105
 1371 -40 1371 -40 1292 -40 c 0,106,107
 1234 -40 1234 -40 1190 -18 c 128,-1,108
 1146 4 1146 4 1118 42 c 1,109,110
 958 -11 958 -11 846.5 -60.5 c 128,-1,111
 735 -110 735 -110 664 -148 c 0,112,113
 581 -193 581 -193 529 -233 c 1,36,37
EndSplineSet
EndChar

StartChar: ampersand
Encoding: 38 38 9
Width: 1119
GlyphClass: 2
Flags: W
LayerCount: 2
Fore
SplineSet
479 361 m 0,0,1
 356 260 356 260 356 207 c 0,2,3
 356 178 356 178 379 166.5 c 128,-1,4
 402 155 402 155 432 155 c 0,5,6
 482 155 482 155 534 181 c 0,7,8
 551 189 551 189 589 214 c 128,-1,9
 627 239 627 239 687 282 c 1,10,-1
 566 442 l 1,11,12
 524 399 524 399 479 361 c 0,0,1
967 700 m 1,13,14
 951 687 951 687 934.5 681.5 c 128,-1,15
 918 676 918 676 902 676 c 0,16,17
 884 676 884 676 867.5 682.5 c 128,-1,18
 851 689 851 689 838.5 699.5 c 128,-1,19
 826 710 826 710 819 723 c 128,-1,20
 812 736 812 736 812 750 c 0,21,22
 812 762 812 762 828 781.5 c 128,-1,23
 844 801 844 801 862.5 824.5 c 128,-1,24
 881 848 881 848 897 874.5 c 128,-1,25
 913 901 913 901 913 927 c 0,26,27
 913 957 913 957 891.5 975.5 c 128,-1,28
 870 994 870 994 839 994 c 0,29,30
 799 994 799 994 752.5 972 c 128,-1,31
 706 950 706 950 666.5 915.5 c 128,-1,32
 627 881 627 881 600.5 839 c 128,-1,33
 574 797 574 797 574 757 c 0,34,35
 574 685 574 685 633 613 c 2,36,-1
 802 406 l 1,37,38
 826 436 826 436 845.5 466.5 c 128,-1,39
 865 497 865 497 879 521 c 1,40,-1
 1053 521 l 1,41,42
 1026 456 1026 456 987 392.5 c 128,-1,43
 948 329 948 329 895 266 c 1,44,45
 911 241 911 241 925 220 c 128,-1,46
 939 199 939 199 954 176.5 c 128,-1,47
 969 154 969 154 987.5 128 c 128,-1,48
 1006 102 1006 102 1032 68 c 0,49,50
 1040 57 1040 57 1044 45 c 128,-1,51
 1048 33 1048 33 1048 23 c 0,52,53
 1048 -9 1048 -9 1025.5 -31.5 c 128,-1,54
 1003 -54 1003 -54 971 -54 c 0,55,56
 949 -54 949 -54 925.5 -41 c 128,-1,57
 902 -28 902 -28 879 2 c 2,58,-1
 776 142 l 1,59,60
 666 60 666 60 613 30 c 0,61,62
 509 -28 509 -28 423 -28 c 0,63,64
 371 -28 371 -28 325.5 -12.5 c 128,-1,65
 280 3 280 3 246 31.5 c 128,-1,66
 212 60 212 60 192.5 101 c 128,-1,67
 173 142 173 142 173 193 c 0,68,69
 173 230 173 230 198.5 279.5 c 128,-1,70
 224 329 224 329 264.5 379.5 c 128,-1,71
 305 430 305 430 354 476 c 128,-1,72
 403 522 403 522 451 553 c 0,73,74
 464 561 464 561 464 566 c 1,75,76
 430 619 430 619 414.5 669 c 128,-1,77
 399 719 399 719 399 767 c 0,78,79
 399 820 399 820 419 869 c 128,-1,80
 439 918 439 918 474 960 c 128,-1,81
 509 1002 509 1002 555.5 1036.5 c 128,-1,82
 602 1071 602 1071 654 1095.5 c 128,-1,83
 706 1120 706 1120 761 1133 c 128,-1,84
 816 1146 816 1146 869 1146 c 0,85,86
 945 1146 945 1146 1007 1115.5 c 128,-1,87
 1069 1085 1069 1085 1101 1017 c 0,88,89
 1114 990 1114 990 1114 958 c 0,90,91
 1114 922 1114 922 1099 886 c 128,-1,92
 1084 850 1084 850 1062 816.5 c 128,-1,93
 1040 783 1040 783 1014.5 753 c 128,-1,94
 989 723 989 723 967 700 c 1,13,14
EndSplineSet
EndChar

StartChar: quotesingle
Encoding: 39 39 10
Width: 671
GlyphClass: 2
Flags: W
LayerCount: 2
Fore
SplineSet
858 1368 m 1,0,1
 821 1298 821 1298 780.5 1226.5 c 128,-1,2
 740 1155 740 1155 698 1084 c 128,-1,3
 656 1013 656 1013 615.5 943.5 c 128,-1,4
 575 874 575 874 538 809 c 0,5,6
 523 783 523 783 498.5 769 c 128,-1,7
 474 755 474 755 451 755 c 0,8,9
 433 755 433 755 421.5 763.5 c 128,-1,10
 410 772 410 772 410 789 c 0,11,12
 410 794 410 794 411 799 c 128,-1,13
 412 804 412 804 415 809 c 0,14,15
 447 884 447 884 479 959.5 c 128,-1,16
 511 1035 511 1035 541 1106.5 c 128,-1,17
 571 1178 571 1178 599 1244.5 c 128,-1,18
 627 1311 627 1311 650 1368 c 0,19,20
 657 1384 657 1384 669.5 1396 c 128,-1,21
 682 1408 682 1408 698.5 1416 c 128,-1,22
 715 1424 715 1424 734 1427.5 c 128,-1,23
 753 1431 753 1431 772 1431 c 0,24,25
 808 1431 808 1431 835.5 1419 c 128,-1,26
 863 1407 863 1407 863 1385 c 0,27,28
 863 1381 863 1381 862 1376 c 128,-1,29
 861 1371 861 1371 858 1368 c 1,0,1
EndSplineSet
EndChar

StartChar: parenleft
Encoding: 40 40 11
Width: 914
GlyphClass: 2
Flags: W
LayerCount: 2
Fore
SplineSet
929 1535 m 0,0,1
 963 1577 963 1577 994 1593 c 128,-1,2
 1025 1609 1025 1609 1051 1609 c 0,3,4
 1069 1609 1069 1609 1083.5 1603 c 128,-1,5
 1098 1597 1098 1597 1108.5 1588.5 c 128,-1,6
 1119 1580 1119 1580 1125 1569.5 c 128,-1,7
 1131 1559 1131 1559 1131 1550 c 128,-1,8
 1131 1541 1131 1541 1125 1535 c 0,9,10
 996 1386 996 1386 894 1229 c 128,-1,11
 792 1072 792 1072 721 907.5 c 128,-1,12
 650 743 650 743 612 570 c 128,-1,13
 574 397 574 397 574 216 c 0,14,15
 574 160 574 160 575.5 118 c 128,-1,16
 577 76 577 76 580.5 39 c 128,-1,17
 584 2 584 2 591.5 -34.5 c 128,-1,18
 599 -71 599 -71 611 -115 c 0,19,20
 612 -119 612 -119 612 -127 c 0,21,22
 612 -142 612 -142 605 -154.5 c 128,-1,23
 598 -167 598 -167 586.5 -176.5 c 128,-1,24
 575 -186 575 -186 560 -191 c 128,-1,25
 545 -196 545 -196 529 -196 c 0,26,27
 502 -196 502 -196 475.5 -178 c 128,-1,28
 449 -160 449 -160 439 -115 c 0,29,30
 430 -76 430 -76 422.5 -30 c 128,-1,31
 415 16 415 16 409.5 64.5 c 128,-1,32
 404 113 404 113 401 162.5 c 128,-1,33
 398 212 398 212 398 257 c 0,34,35
 398 418 398 418 430.5 576 c 128,-1,36
 463 734 463 734 528.5 891.5 c 128,-1,37
 594 1049 594 1049 694 1209 c 128,-1,38
 794 1369 794 1369 929 1535 c 0,0,1
EndSplineSet
EndChar

StartChar: parenright
Encoding: 41 41 12
Width: 680
GlyphClass: 2
Flags: W
LayerCount: 2
Fore
SplineSet
360 -115 m 1,0,1
 310 -172 310 -172 270.5 -194.5 c 128,-1,2
 231 -217 231 -217 203 -217 c 0,3,4
 174 -217 174 -217 159 -200 c 128,-1,5
 144 -183 144 -183 144 -161 c 0,6,7
 144 -149 144 -149 148.5 -137 c 128,-1,8
 153 -125 153 -125 164 -115 c 1,9,10
 291 31 291 31 393 187.5 c 128,-1,11
 495 344 495 344 566 509 c 128,-1,12
 637 674 637 674 675.5 846 c 128,-1,13
 714 1018 714 1018 714 1196 c 0,14,15
 714 1364 714 1364 678 1535 c 0,16,17
 675 1545 675 1545 675 1554 c 0,18,19
 675 1587 675 1587 699 1607.5 c 128,-1,20
 723 1628 723 1628 754 1628 c 0,21,22
 783 1628 783 1628 811 1606.5 c 128,-1,23
 839 1585 839 1585 850 1535 c 0,24,25
 890 1339 890 1339 890 1156 c 0,26,27
 890 991 890 991 857 834.5 c 128,-1,28
 824 678 824 678 758 522.5 c 128,-1,29
 692 367 692 367 592.5 209 c 128,-1,30
 493 51 493 51 360 -115 c 1,0,1
EndSplineSet
EndChar

StartChar: asterisk
Encoding: 42 42 13
Width: 696
GlyphClass: 2
Flags: W
LayerCount: 2
Fore
SplineSet
966 1053 m 1,0,-1
 681 995 l 1,1,-1
 761 791 l 1,2,-1
 611 721 l 1,3,-1
 570 950 l 1,4,-1
 337 721 l 1,5,-1
 265 823 l 1,6,-1
 523 1008 l 1,7,-1
 299 1077 l 1,8,-1
 412 1217 l 1,9,-1
 601 1106 l 1,10,-1
 699 1368 l 1,11,-1
 854 1368 l 1,12,-1
 698 1094 l 1,13,-1
 981 1192 l 1,14,-1
 966 1053 l 1,0,-1
EndSplineSet
EndChar

StartChar: plus
Encoding: 43 43 14
Width: 1277
GlyphClass: 2
Flags: W
LayerCount: 2
Fore
SplineSet
1226 640 m 1,0,-1
 842 640 l 1,1,-1
 658 256 l 1,2,-1
 530 256 l 1,3,-1
 714 640 l 1,4,-1
 330 640 l 1,5,-1
 390 768 l 1,6,-1
 774 768 l 1,7,-1
 958 1152 l 1,8,-1
 1086 1152 l 1,9,-1
 902 768 l 1,10,-1
 1286 768 l 1,11,-1
 1226 640 l 1,0,-1
EndSplineSet
EndChar

StartChar: comma
Encoding: 44 44 15
Width: 737
GlyphClass: 2
Flags: W
LayerCount: 2
Fore
SplineSet
602 233 m 1,0,1
 522 115 522 115 444.5 2 c 128,-1,2
 367 -111 367 -111 288 -229 c 0,3,4
 271 -253 271 -253 252 -264 c 128,-1,5
 233 -275 233 -275 216 -275 c 0,6,7
 201 -275 201 -275 191 -267.5 c 128,-1,8
 181 -260 181 -260 181 -246 c 0,9,10
 181 -236 181 -236 185 -229 c 1,11,12
 228 -111 228 -111 268.5 2 c 128,-1,13
 309 115 309 115 352 233 c 0,14,15
 360 255 360 255 376.5 271 c 128,-1,16
 393 287 393 287 413.5 297.5 c 128,-1,17
 434 308 434 308 457.5 313 c 128,-1,18
 481 318 481 318 504 318 c 0,19,20
 546 318 546 318 577.5 302.5 c 128,-1,21
 609 287 609 287 609 259 c 0,22,23
 609 246 609 246 602 233 c 1,0,1
EndSplineSet
EndChar

StartChar: hyphen
Encoding: 45 45 16
Width: 985
GlyphClass: 2
Flags: W
LayerCount: 2
Fore
SplineSet
961 430 m 2,0,1
 978 430 978 430 988 415.5 c 128,-1,2
 998 401 998 401 998 382 c 0,3,4
 998 357 998 357 979 334.5 c 128,-1,5
 960 312 960 312 916 312 c 2,6,-1
 465 312 l 2,7,8
 448 312 448 312 439.5 324 c 128,-1,9
 431 336 431 336 431 353 c 0,10,11
 431 366 431 366 436.5 379.5 c 128,-1,12
 442 393 442 393 453.5 404 c 128,-1,13
 465 415 465 415 483 422.5 c 128,-1,14
 501 430 501 430 527 430 c 2,15,-1
 961 430 l 2,0,1
EndSplineSet
EndChar

StartChar: period
Encoding: 46 46 17
Width: 732
GlyphClass: 2
Flags: W
LayerCount: 2
Fore
SplineSet
580 139 m 0,0,1
 580 108 580 108 568.5 80 c 128,-1,2
 557 52 557 52 537.5 30.5 c 128,-1,3
 518 9 518 9 492 -3.5 c 128,-1,4
 466 -16 466 -16 437 -16 c 0,5,6
 413 -16 413 -16 392 -6.5 c 128,-1,7
 371 3 371 3 355.5 19 c 128,-1,8
 340 35 340 35 331 56.5 c 128,-1,9
 322 78 322 78 322 102 c 0,10,11
 322 132 322 132 333.5 159.5 c 128,-1,12
 345 187 345 187 365 208 c 128,-1,13
 385 229 385 229 412 241.5 c 128,-1,14
 439 254 439 254 470 254 c 0,15,16
 519 254 519 254 549.5 221 c 128,-1,17
 580 188 580 188 580 139 c 0,0,1
EndSplineSet
EndChar

StartChar: slash
Encoding: 47 47 18
Width: 892
GlyphClass: 2
Flags: W
LayerCount: 2
Fore
SplineSet
1244 1476 m 1,0,1
 1007 1072 1007 1072 770.5 668 c 128,-1,2
 534 264 534 264 297 -140 c 0,3,4
 283 -165 283 -165 263 -175 c 128,-1,5
 243 -185 243 -185 221 -185 c 0,6,7
 192 -185 192 -185 168 -170 c 128,-1,8
 144 -155 144 -155 144 -131 c 0,9,10
 144 -126 144 -126 145 -119.5 c 128,-1,11
 146 -113 146 -113 149 -109 c 0,12,13
 384 298 384 298 616 700.5 c 128,-1,14
 848 1103 848 1103 1083 1510 c 0,15,16
 1097 1533 1097 1533 1118.5 1543.5 c 128,-1,17
 1140 1554 1140 1554 1164 1554 c 0,18,19
 1202 1554 1202 1554 1223.5 1536 c 128,-1,20
 1245 1518 1245 1518 1245 1491 c 0,21,22
 1245 1481 1245 1481 1244 1476 c 1,0,1
EndSplineSet
EndChar

StartChar: zero
Encoding: 48 48 19
Width: 896
GlyphClass: 2
Flags: W
LayerCount: 2
Fore
SplineSet
769 601 m 0,0,1
 769 672 769 672 743 703 c 128,-1,2
 717 734 717 734 676 734 c 0,3,4
 611 734 611 734 550.5 697.5 c 128,-1,5
 490 661 490 661 443 600.5 c 128,-1,6
 396 540 396 540 367.5 462 c 128,-1,7
 339 384 339 384 339 302 c 0,8,9
 339 270 339 270 344 239 c 128,-1,10
 349 208 349 208 361.5 183 c 128,-1,11
 374 158 374 158 395.5 143 c 128,-1,12
 417 128 417 128 451 128 c 0,13,14
 503 128 503 128 547 151.5 c 128,-1,15
 591 175 591 175 626.5 214 c 128,-1,16
 662 253 662 253 688.5 303 c 128,-1,17
 715 353 715 353 733 405.5 c 128,-1,18
 751 458 751 458 760 509 c 128,-1,19
 769 560 769 560 769 601 c 0,0,1
957 601 m 0,20,21
 957 536 957 536 939.5 465 c 128,-1,22
 922 394 922 394 889 324 c 128,-1,23
 856 254 856 254 809 191 c 128,-1,24
 762 128 762 128 702.5 80 c 128,-1,25
 643 32 643 32 572.5 3.5 c 128,-1,26
 502 -25 502 -25 423 -25 c 0,27,28
 361 -25 361 -25 311.5 -2 c 128,-1,29
 262 21 262 21 227 62.5 c 128,-1,30
 192 104 192 104 173 163 c 128,-1,31
 154 222 154 222 154 294 c 0,32,33
 154 357 154 357 172 427 c 128,-1,34
 190 497 190 497 223.5 564.5 c 128,-1,35
 257 632 257 632 304.5 694 c 128,-1,36
 352 756 352 756 411 802.5 c 128,-1,37
 470 849 470 849 539.5 877 c 128,-1,38
 609 905 609 905 686 905 c 0,39,40
 746 905 746 905 796 882.5 c 128,-1,41
 846 860 846 860 882 820 c 128,-1,42
 918 780 918 780 937.5 724 c 128,-1,43
 957 668 957 668 957 601 c 0,20,21
EndSplineSet
EndChar

StartChar: one
Encoding: 49 49 20
Width: 736
GlyphClass: 2
Flags: W
LayerCount: 2
Fore
SplineSet
258 97 m 0,0,1
 286 142 286 142 309 183.5 c 128,-1,2
 332 225 332 225 352.5 264 c 128,-1,3
 373 303 373 303 392.5 340.5 c 128,-1,4
 412 378 412 378 433 416 c 2,5,-1
 570 665 l 1,6,7
 557 660 557 660 526.5 648 c 128,-1,8
 496 636 496 636 461.5 622.5 c 128,-1,9
 427 609 427 609 396.5 597 c 128,-1,10
 366 585 366 585 354 581 c 0,11,12
 351 579 351 579 346.5 578.5 c 128,-1,13
 342 578 342 578 340 578 c 0,14,15
 324 578 324 578 311.5 591.5 c 128,-1,16
 299 605 299 605 299 627 c 0,17,18
 299 646 299 646 311 669 c 128,-1,19
 323 692 323 692 354 717 c 1,20,21
 421 762 421 762 488 798 c 0,22,23
 516 813 516 813 547 827.5 c 128,-1,24
 578 842 578 842 608.5 853.5 c 128,-1,25
 639 865 639 865 668.5 872 c 128,-1,26
 698 879 698 879 723 879 c 0,27,28
 752 879 752 879 773.5 863.5 c 128,-1,29
 795 848 795 848 795 810 c 0,30,31
 795 798 795 798 793 782.5 c 128,-1,32
 791 767 791 767 783 750 c 0,33,34
 768 719 768 719 746.5 670.5 c 128,-1,35
 725 622 725 622 700 564.5 c 128,-1,36
 675 507 675 507 647.5 443 c 128,-1,37
 620 379 620 379 592.5 317 c 128,-1,38
 565 255 565 255 539 198.5 c 128,-1,39
 513 142 513 142 492 99 c 0,40,41
 477 69 477 69 456.5 46 c 128,-1,42
 436 23 436 23 413.5 7.5 c 128,-1,43
 391 -8 391 -8 367 -16 c 128,-1,44
 343 -24 343 -24 322 -24 c 0,45,46
 290 -24 290 -24 267.5 -7.5 c 128,-1,47
 245 9 245 9 245 42 c 0,48,49
 245 53 245 53 247 68 c 128,-1,50
 249 83 249 83 258 97 c 0,0,1
EndSplineSet
EndChar

StartChar: two
Encoding: 50 50 21
Width: 896
GlyphClass: 2
Flags: W
LayerCount: 2
Fore
SplineSet
859 167 m 0,0,1
 863 168 863 168 866 168.5 c 128,-1,2
 869 169 869 169 872 169 c 0,3,4
 893 169 893 169 907 153 c 128,-1,5
 921 137 921 137 921 114 c 0,6,7
 921 81 921 81 897.5 55 c 128,-1,8
 874 29 874 29 838 11.5 c 128,-1,9
 802 -6 802 -6 759 -15 c 128,-1,10
 716 -24 716 -24 677 -24 c 0,11,12
 645 -24 645 -24 614 -20.5 c 128,-1,13
 583 -17 583 -17 546 -6 c 128,-1,14
 509 5 509 5 463 26 c 128,-1,15
 417 47 417 47 354 82 c 1,16,17
 295 45 295 45 261.5 24 c 128,-1,18
 228 3 228 3 210 -7 c 128,-1,19
 192 -17 192 -17 185 -19 c 128,-1,20
 178 -21 178 -21 173 -21 c 0,21,22
 161 -21 161 -21 148.5 -13.5 c 128,-1,23
 136 -6 136 -6 125 6 c 128,-1,24
 114 18 114 18 107 33.5 c 128,-1,25
 100 49 100 49 100 66 c 0,26,27
 100 80 100 80 106.5 94 c 128,-1,28
 113 108 113 108 129 119 c 1,29,30
 195 155 195 155 263 195.5 c 128,-1,31
 331 236 331 236 394 280.5 c 128,-1,32
 457 325 457 325 512 372 c 128,-1,33
 567 419 567 419 608 466.5 c 128,-1,34
 649 514 649 514 672.5 561.5 c 128,-1,35
 696 609 696 609 696 655 c 0,36,37
 696 700 696 700 674 718.5 c 128,-1,38
 652 737 652 737 616 737 c 0,39,40
 587 737 587 737 553.5 727 c 128,-1,41
 520 717 520 717 486 701.5 c 128,-1,42
 452 686 452 686 418.5 668.5 c 128,-1,43
 385 651 385 651 356.5 635.5 c 128,-1,44
 328 620 328 620 306 610 c 128,-1,45
 284 600 284 600 272 600 c 0,46,47
 256 600 256 600 242 607 c 128,-1,48
 228 614 228 614 218 625.5 c 128,-1,49
 208 637 208 637 202.5 651 c 128,-1,50
 197 665 197 665 197 680 c 0,51,52
 197 705 197 705 220 731.5 c 128,-1,53
 243 758 243 758 281 783 c 128,-1,54
 319 808 319 808 368 830 c 128,-1,55
 417 852 417 852 468.5 869 c 128,-1,56
 520 886 520 886 570.5 895.5 c 128,-1,57
 621 905 621 905 663 905 c 0,58,59
 712 905 712 905 755.5 892.5 c 128,-1,60
 799 880 799 880 831 852.5 c 128,-1,61
 863 825 863 825 881.5 780 c 128,-1,62
 900 735 900 735 900 670 c 0,63,64
 900 615 900 615 882.5 560 c 128,-1,65
 865 505 865 505 819 446.5 c 128,-1,66
 773 388 773 388 694.5 326 c 128,-1,67
 616 264 616 264 494 195 c 1,68,69
 537 176 537 176 586 163 c 128,-1,70
 635 150 635 150 674 150 c 0,71,72
 703 150 703 150 726 151 c 128,-1,73
 749 152 749 152 770 154.5 c 128,-1,74
 791 157 791 157 812 160 c 128,-1,75
 833 163 833 163 859 167 c 0,0,1
EndSplineSet
EndChar

StartChar: three
Encoding: 51 51 22
Width: 800
GlyphClass: 2
Flags: W
LayerCount: 2
Fore
SplineSet
552 238 m 0,0,1
 552 262 552 262 547.5 284.5 c 128,-1,2
 543 307 543 307 528 323.5 c 128,-1,3
 513 340 513 340 485 350 c 128,-1,4
 457 360 457 360 410 360 c 0,5,6
 394 360 394 360 376.5 357.5 c 128,-1,7
 359 355 359 355 339 355 c 0,8,9
 311 355 311 355 298 372 c 128,-1,10
 285 389 285 389 285 409 c 0,11,12
 285 435 285 435 310.5 455.5 c 128,-1,13
 336 476 336 476 384 484 c 0,14,15
 453 495 453 495 503 520 c 128,-1,16
 553 545 553 545 585.5 573.5 c 128,-1,17
 618 602 618 602 633.5 628.5 c 128,-1,18
 649 655 649 655 649 670 c 0,19,20
 649 699 649 699 628.5 717.5 c 128,-1,21
 608 736 608 736 579 736 c 0,22,23
 529 736 529 736 490 728 c 128,-1,24
 451 720 451 720 418 711 c 128,-1,25
 385 702 385 702 357 694 c 128,-1,26
 329 686 329 686 302 686 c 0,27,28
 273 686 273 686 251 704.5 c 128,-1,29
 229 723 229 723 229 750 c 0,30,31
 229 772 229 772 248 797 c 1,32,33
 276 818 276 818 315.5 837 c 128,-1,34
 355 856 355 856 400 870.5 c 128,-1,35
 445 885 445 885 493.5 894 c 128,-1,36
 542 903 542 903 589 903 c 128,-1,37
 636 903 636 903 678 892.5 c 128,-1,38
 720 882 720 882 751.5 858 c 128,-1,39
 783 834 783 834 801.5 795.5 c 128,-1,40
 820 757 820 757 820 700 c 0,41,42
 820 622 820 622 755 552.5 c 128,-1,43
 690 483 690 483 568 441 c 1,44,45
 619 429 619 429 652 408 c 128,-1,46
 685 387 685 387 704.5 361.5 c 128,-1,47
 724 336 724 336 731.5 307.5 c 128,-1,48
 739 279 739 279 739 253 c 0,49,50
 739 174 739 174 715 109.5 c 128,-1,51
 691 45 691 45 650 -6.5 c 128,-1,52
 609 -58 609 -58 553.5 -98 c 128,-1,53
 498 -138 498 -138 434 -168 c 128,-1,54
 370 -198 370 -198 301 -219 c 128,-1,55
 232 -240 232 -240 165 -254 c 0,56,57
 149 -257 149 -257 137 -259 c 128,-1,58
 125 -261 125 -261 114 -261 c 0,59,60
 76 -261 76 -261 57.5 -245 c 128,-1,61
 39 -229 39 -229 39 -207 c 0,62,63
 39 -184 39 -184 59 -160.5 c 128,-1,64
 79 -137 79 -137 118 -126 c 1,65,66
 160 -117 160 -117 208.5 -100.5 c 128,-1,67
 257 -84 257 -84 305 -59.5 c 128,-1,68
 353 -35 353 -35 397 -4 c 128,-1,69
 441 27 441 27 475 64.5 c 128,-1,70
 509 102 509 102 530 145.5 c 128,-1,71
 551 189 551 189 552 238 c 0,0,1
EndSplineSet
EndChar

StartChar: four
Encoding: 52 52 23
Width: 976
GlyphClass: 2
Flags: W
LayerCount: 2
Fore
SplineSet
983 723 m 0,0,1
 962 677 962 677 939 628.5 c 128,-1,2
 916 580 916 580 893.5 532 c 128,-1,3
 871 484 871 484 849.5 438 c 128,-1,4
 828 392 828 392 809 351 c 0,5,6
 763 254 763 254 720 163 c 1,7,-1
 899 163 l 2,8,9
 919 163 919 163 930 147.5 c 128,-1,10
 941 132 941 132 941 111 c 0,11,12
 941 92 941 92 934.5 72.5 c 128,-1,13
 928 53 928 53 915 37 c 128,-1,14
 902 21 902 21 881.5 10.5 c 128,-1,15
 861 0 861 0 834 0 c 2,16,-1
 651 0 l 1,17,-1
 497 -341 l 1,18,19
 479 -376 479 -376 453.5 -391 c 128,-1,20
 428 -406 428 -406 402 -406 c 0,21,22
 369 -406 369 -406 345.5 -386 c 128,-1,23
 322 -366 322 -366 322 -335 c 0,24,25
 322 -328 322 -328 324 -321 c 128,-1,26
 326 -314 326 -314 329 -306 c 2,27,-1
 461 0 l 1,28,-1
 194 0 l 2,29,30
 179 0 179 0 166 1.5 c 128,-1,31
 153 3 153 3 142.5 8 c 128,-1,32
 132 13 132 13 126 21.5 c 128,-1,33
 120 30 120 30 120 45 c 0,34,35
 120 62 120 62 127.5 85 c 128,-1,36
 135 108 135 108 154 143 c 0,37,38
 175 182 175 182 202.5 236.5 c 128,-1,39
 230 291 230 291 260 352.5 c 128,-1,40
 290 414 290 414 320.5 479 c 128,-1,41
 351 544 351 544 379 604.5 c 128,-1,42
 407 665 407 665 429 717.5 c 128,-1,43
 451 770 451 770 465 806 c 1,44,45
 480 848 480 848 511 865.5 c 128,-1,46
 542 883 542 883 574 883 c 0,47,48
 608 883 608 883 634.5 866.5 c 128,-1,49
 661 850 661 850 662 825 c 1,50,51
 661 820 661 820 660.5 815.5 c 128,-1,52
 660 811 660 811 658 806 c 0,53,54
 624 723 624 723 586 638.5 c 128,-1,55
 548 554 548 554 509.5 472 c 128,-1,56
 471 390 471 390 433 313 c 128,-1,57
 395 236 395 236 362 167 c 1,58,59
 388 168 388 168 409.5 168 c 128,-1,60
 431 168 431 168 448 168 c 0,61,62
 496 168 496 168 524 168 c 2,63,-1
 552 167 l 1,64,-1
 564 196 l 2,65,66
 576 224 576 224 598.5 271.5 c 128,-1,67
 621 319 621 319 649.5 381 c 128,-1,68
 678 443 678 443 709.5 509.5 c 128,-1,69
 741 576 741 576 772.5 643 c 128,-1,70
 804 710 804 710 832 768 c 1,71,72
 858 828 858 828 890.5 855.5 c 128,-1,73
 923 883 923 883 949 883 c 0,74,75
 972 883 972 883 988 864 c 128,-1,76
 1004 845 1004 845 1004 810 c 0,77,78
 1004 791 1004 791 999 769 c 128,-1,79
 994 747 994 747 983 723 c 0,0,1
EndSplineSet
EndChar

StartChar: five
Encoding: 53 53 24
Width: 884
GlyphClass: 2
Flags: W
LayerCount: 2
Fore
SplineSet
846 269 m 0,0,1
 846 190 846 190 822 124.5 c 128,-1,2
 798 59 798 59 757 5.5 c 128,-1,3
 716 -48 716 -48 660.5 -90 c 128,-1,4
 605 -132 605 -132 541 -164 c 128,-1,5
 477 -196 477 -196 408 -218 c 128,-1,6
 339 -240 339 -240 272 -254 c 0,7,8
 256 -257 256 -257 244 -259 c 128,-1,9
 232 -261 232 -261 221 -261 c 0,10,11
 183 -261 183 -261 164.5 -245 c 128,-1,12
 146 -229 146 -229 146 -207 c 0,13,14
 146 -184 146 -184 166 -160.5 c 128,-1,15
 186 -137 186 -137 225 -126 c 1,16,17
 266 -117 266 -117 313.5 -99.5 c 128,-1,18
 361 -82 361 -82 407.5 -57.5 c 128,-1,19
 454 -33 454 -33 497.5 -0.5 c 128,-1,20
 541 32 541 32 574 70.5 c 128,-1,21
 607 109 607 109 627.5 153.5 c 128,-1,22
 648 198 648 198 649 248 c 0,23,24
 649 279 649 279 637.5 301.5 c 128,-1,25
 626 324 626 324 606 338 c 128,-1,26
 586 352 586 352 559 359 c 128,-1,27
 532 366 532 366 500 366 c 0,28,29
 465 366 465 366 427 358.5 c 128,-1,30
 389 351 389 351 351 338 c 0,31,32
 333 332 333 332 319.5 323.5 c 128,-1,33
 306 315 306 315 294.5 307.5 c 128,-1,34
 283 300 283 300 273.5 295 c 128,-1,35
 264 290 264 290 254 290 c 0,36,37
 222 290 222 290 203.5 313 c 128,-1,38
 185 336 185 336 185 368 c 0,39,40
 185 391 185 391 195 412 c 2,41,-1
 364 789 l 2,42,43
 375 813 375 813 386 830.5 c 128,-1,44
 397 848 397 848 411.5 858.5 c 128,-1,45
 426 869 426 869 444 874 c 128,-1,46
 462 879 462 879 486 879 c 2,47,-1
 957 879 l 2,48,49
 985 879 985 879 1000.5 856.5 c 128,-1,50
 1016 834 1016 834 1016 805 c 0,51,52
 1016 787 1016 787 1009.5 769 c 128,-1,53
 1003 751 1003 751 989.5 736 c 128,-1,54
 976 721 976 721 954.5 712 c 128,-1,55
 933 703 933 703 904 703 c 2,56,-1
 519 703 l 1,57,58
 494 653 494 653 470 607 c 0,59,60
 450 568 450 568 429 526.5 c 128,-1,61
 408 485 408 485 394 458 c 1,62,63
 448 492 448 492 500 507.5 c 128,-1,64
 552 523 552 523 599 523 c 0,65,66
 653 523 653 523 698.5 504.5 c 128,-1,67
 744 486 744 486 776.5 452 c 128,-1,68
 809 418 809 418 827.5 371.5 c 128,-1,69
 846 325 846 325 846 269 c 0,0,1
EndSplineSet
EndChar

StartChar: six
Encoding: 54 54 25
Width: 980
GlyphClass: 2
Flags: W
LayerCount: 2
Fore
SplineSet
356 280 m 0,0,1
 356 222 356 222 394 185 c 128,-1,2
 432 148 432 148 495 148 c 0,3,4
 548 148 548 148 600 180 c 128,-1,5
 652 212 652 212 693.5 261 c 128,-1,6
 735 310 735 310 760.5 368.5 c 128,-1,7
 786 427 786 427 786 480 c 0,8,9
 786 527 786 527 756.5 547.5 c 128,-1,10
 727 568 727 568 679 568 c 0,11,12
 650 568 650 568 616 561 c 128,-1,13
 582 554 582 554 546 541 c 128,-1,14
 510 528 510 528 474 510 c 128,-1,15
 438 492 438 492 404 470 c 1,16,17
 356 365 356 365 356 280 c 0,0,1
171 300 m 0,18,19
 171 347 171 347 187 413.5 c 128,-1,20
 203 480 203 480 237.5 559 c 128,-1,21
 272 638 272 638 325 725 c 128,-1,22
 378 812 378 812 452 900 c 128,-1,23
 526 988 526 988 621.5 1073.5 c 128,-1,24
 717 1159 717 1159 836 1234 c 0,25,26
 850 1244 850 1244 869 1244 c 0,27,28
 885 1244 885 1244 900.5 1237 c 128,-1,29
 916 1230 916 1230 928.5 1218 c 128,-1,30
 941 1206 941 1206 948.5 1190.5 c 128,-1,31
 956 1175 956 1175 956 1159 c 0,32,33
 956 1142 956 1142 947.5 1125.5 c 128,-1,34
 939 1109 939 1109 918 1095 c 0,35,36
 824 1032 824 1032 754.5 969.5 c 128,-1,37
 685 907 685 907 635 850 c 128,-1,38
 585 793 585 793 552.5 744.5 c 128,-1,39
 520 696 520 696 500 663 c 1,40,41
 557 689 557 689 619.5 703.5 c 128,-1,42
 682 718 682 718 742 718 c 0,43,44
 789 718 789 718 831.5 705.5 c 128,-1,45
 874 693 874 693 905.5 665.5 c 128,-1,46
 937 638 937 638 955.5 594 c 128,-1,47
 974 550 974 550 974 488 c 0,48,49
 974 420 974 420 955 355 c 128,-1,50
 936 290 936 290 902.5 233.5 c 128,-1,51
 869 177 869 177 822.5 129.5 c 128,-1,52
 776 82 776 82 720.5 48 c 128,-1,53
 665 14 665 14 602.5 -5 c 128,-1,54
 540 -24 540 -24 474 -24 c 0,55,56
 406 -24 406 -24 350 0.5 c 128,-1,57
 294 25 294 25 254 68.5 c 128,-1,58
 214 112 214 112 192.5 171 c 128,-1,59
 171 230 171 230 171 300 c 0,18,19
EndSplineSet
EndChar

StartChar: seven
Encoding: 55 55 26
Width: 870
GlyphClass: 2
Flags: W
LayerCount: 2
Fore
SplineSet
822 880 m 2,0,1
 912 880 912 880 951.5 859 c 128,-1,2
 991 838 991 838 991 802 c 0,3,4
 991 767 991 767 959 720.5 c 128,-1,5
 927 674 927 674 870 621 c 1,6,7
 855 604 855 604 823 558 c 128,-1,8
 791 512 791 512 750 450 c 128,-1,9
 709 388 709 388 661.5 316.5 c 128,-1,10
 614 245 614 245 568.5 176 c 128,-1,11
 523 107 523 107 482 48 c 128,-1,12
 441 -11 441 -11 412 -48 c 0,13,14
 366 -107 366 -107 327 -131.5 c 128,-1,15
 288 -156 288 -156 259 -156 c 0,16,17
 223 -156 223 -156 203 -133.5 c 128,-1,18
 183 -111 183 -111 183 -82 c 0,19,20
 183 -51 183 -51 206 -25 c 1,21,22
 228 5 228 5 259 49 c 128,-1,23
 290 93 290 93 326.5 144.5 c 128,-1,24
 363 196 363 196 403.5 252.5 c 128,-1,25
 444 309 444 309 483.5 366 c 128,-1,26
 523 423 523 423 561 476.5 c 128,-1,27
 599 530 599 530 631.5 575 c 128,-1,28
 664 620 664 620 689 654 c 128,-1,29
 714 688 714 688 728 706 c 1,30,-1
 506 705 l 2,31,32
 406 705 406 705 348.5 709 c 128,-1,33
 291 713 291 713 261.5 723 c 128,-1,34
 232 733 232 733 224.5 750 c 128,-1,35
 217 767 217 767 217 792 c 0,36,37
 217 821 217 821 230.5 838.5 c 128,-1,38
 244 856 244 856 264.5 865.5 c 128,-1,39
 285 875 285 875 309 878 c 128,-1,40
 333 881 333 881 354 881 c 0,41,42
 371 881 371 881 382.5 880 c 128,-1,43
 394 879 394 879 399 879 c 2,44,-1
 822 880 l 2,0,1
EndSplineSet
EndChar

StartChar: eight
Encoding: 56 56 27
Width: 964
GlyphClass: 2
Flags: W
LayerCount: 2
Fore
SplineSet
698 282 m 0,0,1
 698 336 698 336 672 381 c 128,-1,2
 646 426 646 426 600 467 c 1,3,4
 544 423 544 423 496 386.5 c 128,-1,5
 448 350 448 350 413 319 c 128,-1,6
 378 288 378 288 358 262 c 128,-1,7
 338 236 338 236 338 215 c 0,8,9
 338 172 338 172 378.5 146 c 128,-1,10
 419 120 419 120 487 120 c 0,11,12
 530 120 530 120 568.5 132 c 128,-1,13
 607 144 607 144 635.5 165 c 128,-1,14
 664 186 664 186 681 216 c 128,-1,15
 698 246 698 246 698 282 c 0,0,1
934 907 m 0,16,17
 906 930 906 930 876 940 c 128,-1,18
 846 950 846 950 814 950 c 0,19,20
 765 950 765 950 718 929.5 c 128,-1,21
 671 909 671 909 634.5 878.5 c 128,-1,22
 598 848 598 848 575.5 813.5 c 128,-1,23
 553 779 553 779 553 751 c 0,24,25
 553 669 553 669 651 602 c 1,26,27
 711 624 711 624 765 658 c 128,-1,28
 819 692 819 692 860.5 729.5 c 128,-1,29
 902 767 902 767 926.5 804 c 128,-1,30
 951 841 951 841 951 870 c 0,31,32
 951 892 951 892 934 907 c 0,16,17
909 1089 m 0,33,34
 973 1071 973 1071 1017.5 1049 c 128,-1,35
 1062 1027 1062 1027 1089.5 1001.5 c 128,-1,36
 1117 976 1117 976 1129 948.5 c 128,-1,37
 1141 921 1141 921 1141 893 c 0,38,39
 1141 851 1141 851 1119 808.5 c 128,-1,40
 1097 766 1097 766 1063 725.5 c 128,-1,41
 1029 685 1029 685 987 649 c 128,-1,42
 945 613 945 613 904 585 c 128,-1,43
 863 557 863 557 828 538.5 c 128,-1,44
 793 520 793 520 774 515 c 1,45,46
 876 431 876 431 876 298 c 0,47,48
 876 226 876 226 844.5 167 c 128,-1,49
 813 108 813 108 758.5 65 c 128,-1,50
 704 22 704 22 629 -1.5 c 128,-1,51
 554 -25 554 -25 467 -25 c 0,52,53
 402 -25 402 -25 346 -8.5 c 128,-1,54
 290 8 290 8 249 38 c 128,-1,55
 208 68 208 68 184 109.5 c 128,-1,56
 160 151 160 151 160 200 c 0,57,58
 160 288 160 288 229 362 c 0,59,60
 262 397 262 397 487 540 c 1,61,62
 430 592 430 592 401.5 648 c 128,-1,63
 373 704 373 704 373 761 c 0,64,65
 373 805 373 805 388.5 847.5 c 128,-1,66
 404 890 404 890 431.5 928 c 128,-1,67
 459 966 459 966 497.5 998.5 c 128,-1,68
 536 1031 536 1031 582.5 1054.5 c 128,-1,69
 629 1078 629 1078 681.5 1091.5 c 128,-1,70
 734 1105 734 1105 790 1105 c 0,71,72
 851 1105 851 1105 909 1089 c 0,33,34
EndSplineSet
EndChar

StartChar: nine
Encoding: 57 57 28
Width: 1037
GlyphClass: 2
Flags: W
LayerCount: 2
Fore
SplineSet
889 601 m 0,0,1
 889 605 889 605 889.5 608.5 c 128,-1,2
 890 612 890 612 890 617 c 0,3,4
 890 668 890 668 856 700.5 c 128,-1,5
 822 733 822 733 764 733 c 0,6,7
 726 733 726 733 687 715.5 c 128,-1,8
 648 698 648 698 611.5 669 c 128,-1,9
 575 640 575 640 542.5 601.5 c 128,-1,10
 510 563 510 563 486 521.5 c 128,-1,11
 462 480 462 480 448 437.5 c 128,-1,12
 434 395 434 395 434 357 c 0,13,14
 434 302 434 302 460 277.5 c 128,-1,15
 486 253 486 253 529 253 c 0,16,17
 558 253 558 253 593 261.5 c 128,-1,18
 628 270 628 270 665.5 285.5 c 128,-1,19
 703 301 703 301 741.5 322.5 c 128,-1,20
 780 344 780 344 816 371 c 1,21,22
 879 499 879 499 889 601 c 0,0,1
1072 581 m 0,23,24
 1062 489 1062 489 1012 369 c 128,-1,25
 962 249 962 249 868 119 c 128,-1,26
 774 -11 774 -11 634 -143.5 c 128,-1,27
 494 -276 494 -276 303 -393 c 1,28,29
 295 -401 295 -401 286 -402 c 128,-1,30
 277 -403 277 -403 269 -403 c 0,31,32
 238 -403 238 -403 214 -380 c 128,-1,33
 190 -357 190 -357 190 -326 c 0,34,35
 190 -309 190 -309 200 -289 c 128,-1,36
 210 -269 210 -269 235 -254 c 0,37,38
 335 -194 335 -194 411.5 -134 c 128,-1,39
 488 -74 488 -74 543.5 -20 c 128,-1,40
 599 34 599 34 636.5 80 c 128,-1,41
 674 126 674 126 698 158 c 1,42,43
 638 132 638 132 574 117.5 c 128,-1,44
 510 103 510 103 450 103 c 0,45,46
 407 103 407 103 369.5 115.5 c 128,-1,47
 332 128 332 128 304 154.5 c 128,-1,48
 276 181 276 181 260 222.5 c 128,-1,49
 244 264 244 264 244 323 c 0,50,51
 244 399 244 399 266 471.5 c 128,-1,52
 288 544 288 544 327 609 c 128,-1,53
 366 674 366 674 419.5 728 c 128,-1,54
 473 782 473 782 535 821.5 c 128,-1,55
 597 861 597 861 665.5 883 c 128,-1,56
 734 905 734 905 803 905 c 0,57,58
 866 905 866 905 916 884 c 128,-1,59
 966 863 966 863 1001 826 c 128,-1,60
 1036 789 1036 789 1055 737.5 c 128,-1,61
 1074 686 1074 686 1074 625 c 0,62,63
 1074 614 1074 614 1073.5 603 c 128,-1,64
 1073 592 1073 592 1072 581 c 0,23,24
EndSplineSet
EndChar

StartChar: colon
Encoding: 58 58 29
Width: 815
GlyphClass: 2
Flags: W
LayerCount: 2
Fore
SplineSet
579 139 m 0,0,1
 573 108 573 108 557.5 80 c 128,-1,2
 542 52 542 52 519.5 30.5 c 128,-1,3
 497 9 497 9 469.5 -3.5 c 128,-1,4
 442 -16 442 -16 412 -16 c 0,5,6
 368 -16 368 -16 342 12 c 128,-1,7
 316 40 316 40 316 82 c 0,8,9
 316 115 316 115 331 146 c 128,-1,10
 346 177 346 177 370 201 c 128,-1,11
 394 225 394 225 425 239.5 c 128,-1,12
 456 254 456 254 489 254 c 0,13,14
 534 254 534 254 557.5 229.5 c 128,-1,15
 581 205 581 205 581 164 c 0,16,17
 581 158 581 158 580.5 151.5 c 128,-1,18
 580 145 580 145 579 139 c 0,0,1
811 573 m 0,19,20
 806 544 806 544 790 517 c 128,-1,21
 774 490 774 490 751 470 c 128,-1,22
 728 450 728 450 699.5 438 c 128,-1,23
 671 426 671 426 641 426 c 0,24,25
 597 426 597 426 571 452 c 128,-1,26
 545 478 545 478 545 520 c 0,27,28
 545 553 545 553 560.5 584 c 128,-1,29
 576 615 576 615 600.5 639 c 128,-1,30
 625 663 625 663 656.5 677.5 c 128,-1,31
 688 692 688 692 721 692 c 0,32,33
 764 692 764 692 788.5 667 c 128,-1,34
 813 642 813 642 813 599 c 0,35,36
 813 593 813 593 812.5 586.5 c 128,-1,37
 812 580 812 580 811 573 c 0,19,20
EndSplineSet
EndChar

StartChar: semicolon
Encoding: 59 59 30
Width: 711
GlyphClass: 2
Flags: W
LayerCount: 2
Fore
SplineSet
579 233 m 1,0,-1
 176 -279 l 1,1,-1
 73 -279 l 1,2,-1
 329 233 l 1,3,-1
 579 233 l 1,0,-1
705 573 m 0,4,5
 701 544 701 544 686.5 517 c 128,-1,6
 672 490 672 490 650.5 470 c 128,-1,7
 629 450 629 450 601.5 438 c 128,-1,8
 574 426 574 426 544 426 c 0,9,10
 499 426 499 426 472.5 454 c 128,-1,11
 446 482 446 482 446 525 c 0,12,13
 446 558 446 558 459 587.5 c 128,-1,14
 472 617 472 617 494.5 639.5 c 128,-1,15
 517 662 517 662 546 675 c 128,-1,16
 575 688 575 688 607 688 c 0,17,18
 652 688 652 688 679 662.5 c 128,-1,19
 706 637 706 637 706 590 c 0,20,21
 706 586 706 586 706 582 c 128,-1,22
 706 578 706 578 705 573 c 0,4,5
EndSplineSet
EndChar

StartChar: less
Encoding: 60 60 31
Width: 1329
GlyphClass: 2
Flags: W
LayerCount: 2
Fore
SplineSet
1124 184 m 1,0,1
 938 290 938 290 752.5 396.5 c 128,-1,2
 567 503 567 503 381 610 c 0,3,4
 348 628 348 628 348 665 c 0,5,6
 348 694 348 694 369 721 c 128,-1,7
 390 748 390 748 434 766 c 0,8,9
 694 872 694 872 951.5 978.5 c 128,-1,10
 1209 1085 1209 1085 1469 1192 c 0,11,12
 1482 1197 1482 1197 1491 1197 c 0,13,14
 1510 1197 1510 1197 1520.5 1183.5 c 128,-1,15
 1531 1170 1531 1170 1531 1149 c 0,16,17
 1531 1133 1531 1133 1524 1114.5 c 128,-1,18
 1517 1096 1517 1096 1502 1077.5 c 128,-1,19
 1487 1059 1487 1059 1463.5 1041 c 128,-1,20
 1440 1023 1440 1023 1406 1008 c 1,21,22
 1203 927 1203 927 1002.5 848 c 128,-1,23
 802 769 802 769 600 688 c 1,24,25
 747 607 747 607 893 526.5 c 128,-1,26
 1039 446 1039 446 1186 365 c 0,27,28
 1215 348 1215 348 1227.5 329 c 128,-1,29
 1240 310 1240 310 1240 290 c 0,30,31
 1240 269 1240 269 1230.5 249 c 128,-1,32
 1221 229 1221 229 1206.5 213.5 c 128,-1,33
 1192 198 1192 198 1175 188.5 c 128,-1,34
 1158 179 1158 179 1143 179 c 0,35,36
 1130 179 1130 179 1124 184 c 1,0,1
EndSplineSet
EndChar

StartChar: equal
Encoding: 61 61 32
Width: 1510
GlyphClass: 2
Flags: W
LayerCount: 2
Fore
SplineSet
1337 494 m 2,0,-1
 501 494 l 2,1,2
 475 494 475 494 466.5 513 c 128,-1,3
 458 532 458 532 465.5 554.5 c 128,-1,4
 473 577 473 577 497.5 596 c 128,-1,5
 522 615 522 615 562 615 c 2,6,-1
 1397 615 l 2,7,8
 1425 615 1425 615 1434 596 c 128,-1,9
 1443 577 1443 577 1434.5 554.5 c 128,-1,10
 1426 532 1426 532 1401 513 c 128,-1,11
 1376 494 1376 494 1337 494 c 2,0,-1
1526 870 m 2,12,-1
 690 870 l 2,13,14
 659 870 659 870 642.5 889 c 128,-1,15
 626 908 626 908 630.5 930.5 c 128,-1,16
 635 953 635 953 663.5 972 c 128,-1,17
 692 991 692 991 750 991 c 2,18,-1
 1586 991 l 2,19,20
 1620 991 1620 991 1629 972 c 128,-1,21
 1638 953 1638 953 1627.5 930.5 c 128,-1,22
 1617 908 1617 908 1590 889 c 128,-1,23
 1563 870 1563 870 1526 870 c 2,12,-1
EndSplineSet
EndChar

StartChar: greater
Encoding: 62 62 33
Width: 1355
GlyphClass: 2
Flags: W
LayerCount: 2
Fore
SplineSet
1298 610 m 1,0,1
 1041 503 1041 503 787 397 c 128,-1,2
 533 291 533 291 277 184 c 0,3,4
 268 181 268 181 259 181 c 0,5,6
 235 181 235 181 218.5 197.5 c 128,-1,7
 202 214 202 214 202 240 c 0,8,9
 202 270 202 270 231 305 c 128,-1,10
 260 340 260 340 332 365 c 1,11,12
 533 446 533 446 731 526.5 c 128,-1,13
 929 607 929 607 1130 688 c 1,14,15
 980 769 980 769 832 850 c 128,-1,16
 684 931 684 931 535 1012 c 0,17,18
 511 1025 511 1025 500.5 1044.5 c 128,-1,19
 490 1064 490 1064 490 1087 c 0,20,21
 490 1106 490 1106 496.5 1125.5 c 128,-1,22
 503 1145 503 1145 514 1160.5 c 128,-1,23
 525 1176 525 1176 540 1185.5 c 128,-1,24
 555 1195 555 1195 573 1195 c 0,25,26
 582 1195 582 1195 591 1192 c 1,27,-1
 1347 766 l 2,28,29
 1369 753 1369 753 1381 737 c 128,-1,30
 1393 721 1393 721 1393 705 c 0,31,32
 1393 681 1393 681 1370 657 c 128,-1,33
 1347 633 1347 633 1298 610 c 1,0,1
EndSplineSet
EndChar

StartChar: question
Encoding: 63 63 34
Width: 903
GlyphClass: 2
Flags: W
LayerCount: 2
Fore
SplineSet
481 139 m 0,0,1
 473 108 473 108 455 80 c 128,-1,2
 437 52 437 52 413 30.5 c 128,-1,3
 389 9 389 9 360 -3.5 c 128,-1,4
 331 -16 331 -16 302 -16 c 0,5,6
 260 -16 260 -16 237 8.5 c 128,-1,7
 214 33 214 33 214 71 c 0,8,9
 214 105 214 105 230.5 138 c 128,-1,10
 247 171 247 171 273.5 197 c 128,-1,11
 300 223 300 223 333.5 238.5 c 128,-1,12
 367 254 367 254 400 254 c 0,13,14
 442 254 442 254 463.5 231 c 128,-1,15
 485 208 485 208 485 173 c 0,16,17
 485 155 485 155 481 139 c 0,0,1
733 640 m 1,18,19
 692 611 692 611 655.5 579 c 128,-1,20
 619 547 619 547 589 514 c 128,-1,21
 559 481 559 481 537.5 449.5 c 128,-1,22
 516 418 516 418 504 390 c 0,23,24
 496 373 496 373 474 365 c 128,-1,25
 452 357 452 357 434 357 c 0,26,27
 414 357 414 357 399 366.5 c 128,-1,28
 384 376 384 376 384 394 c 0,29,30
 384 397 384 397 386 405 c 0,31,32
 406 480 406 480 471 555 c 128,-1,33
 536 630 536 630 627 699 c 1,34,35
 666 724 666 724 710 755 c 128,-1,36
 754 786 754 786 792.5 819 c 128,-1,37
 831 852 831 852 859 883.5 c 128,-1,38
 887 915 887 915 894 942 c 0,39,40
 899 964 899 964 899 978 c 0,41,42
 899 1009 899 1009 882 1023 c 128,-1,43
 865 1037 865 1037 836 1037 c 128,-1,44
 807 1037 807 1037 767.5 1024.5 c 128,-1,45
 728 1012 728 1012 686.5 988.5 c 128,-1,46
 645 965 645 965 605.5 932.5 c 128,-1,47
 566 900 566 900 536 860 c 0,48,49
 514 831 514 831 482 831 c 0,50,51
 469 831 469 831 456 834.5 c 128,-1,52
 443 838 443 838 433 844.5 c 128,-1,53
 423 851 423 851 416.5 860.5 c 128,-1,54
 410 870 410 870 410 881 c 0,55,56
 410 895 410 895 417.5 908.5 c 128,-1,57
 425 922 425 922 438 938 c 0,58,59
 487 998 487 998 547 1044.5 c 128,-1,60
 607 1091 607 1091 670 1123 c 128,-1,61
 733 1155 733 1155 795 1171.5 c 128,-1,62
 857 1188 857 1188 911 1188 c 0,63,64
 949 1188 949 1188 981 1179 c 128,-1,65
 1013 1170 1013 1170 1036 1152 c 128,-1,66
 1059 1134 1059 1134 1072 1106.5 c 128,-1,67
 1085 1079 1085 1079 1085 1041 c 0,68,69
 1085 981 1085 981 1065.5 933.5 c 128,-1,70
 1046 886 1046 886 1003.5 841 c 128,-1,71
 961 796 961 796 894 748 c 128,-1,72
 827 700 827 700 733 640 c 1,18,19
EndSplineSet
EndChar

StartChar: at
Encoding: 64 64 35
Width: 1856
GlyphClass: 2
Flags: W
LayerCount: 2
Fore
SplineSet
1274 1008 m 0,0,1
 1190 1008 1190 1008 1102.5 976.5 c 128,-1,2
 1015 945 1015 945 938 888 c 128,-1,3
 861 831 861 831 801 750.5 c 128,-1,4
 741 670 741 670 711 573 c 0,5,6
 635 330 635 330 860 330 c 0,7,8
 946 330 946 330 1027.5 367.5 c 128,-1,9
 1109 405 1109 405 1183.5 485 c 128,-1,10
 1258 565 1258 565 1323.5 689 c 128,-1,11
 1389 813 1389 813 1443 987 c 1,12,-1
 1428 990 l 2,13,14
 1412 994 1412 994 1387.5 997.5 c 128,-1,15
 1363 1001 1363 1001 1332.5 1004.5 c 128,-1,16
 1302 1008 1302 1008 1274 1008 c 0,0,1
825 -155 m 0,17,18
 605 -155 605 -155 465 -96 c 128,-1,19
 325 -37 325 -37 255 63.5 c 128,-1,20
 185 164 185 164 178 297 c 128,-1,21
 171 430 171 430 217 578 c 0,22,23
 261 720 261 720 332 840 c 128,-1,24
 403 960 403 960 492 1057.5 c 128,-1,25
 581 1155 581 1155 685.5 1229.5 c 128,-1,26
 790 1304 790 1304 900 1354.5 c 128,-1,27
 1010 1405 1010 1405 1122.5 1430.5 c 128,-1,28
 1235 1456 1235 1456 1342 1456 c 0,29,30
 1450 1456 1450 1456 1546.5 1437.5 c 128,-1,31
 1643 1419 1643 1419 1721 1380.5 c 128,-1,32
 1799 1342 1799 1342 1856 1284.5 c 128,-1,33
 1913 1227 1913 1227 1942.5 1149.5 c 128,-1,34
 1972 1072 1972 1072 1971 973.5 c 128,-1,35
 1970 875 1970 875 1933 756 c 0,36,37
 1900 649 1900 649 1853.5 566 c 128,-1,38
 1807 483 1807 483 1752 421 c 128,-1,39
 1697 359 1697 359 1638.5 316.5 c 128,-1,40
 1580 274 1580 274 1523 248 c 128,-1,41
 1466 222 1466 222 1413.5 210.5 c 128,-1,42
 1361 199 1361 199 1319 199 c 0,43,44
 1284 199 1284 199 1267.5 208.5 c 128,-1,45
 1251 218 1251 218 1245.5 234 c 128,-1,46
 1240 250 1240 250 1244 271 c 128,-1,47
 1248 292 1248 292 1256 316 c 2,48,-1
 1328 548 l 1,49,50
 1298 489 1298 489 1248 427.5 c 128,-1,51
 1198 366 1198 366 1131.5 315 c 128,-1,52
 1065 264 1065 264 982 231.5 c 128,-1,53
 899 199 899 199 803 199 c 0,54,55
 717 199 717 199 658 226.5 c 128,-1,56
 599 254 599 254 568 305 c 128,-1,57
 537 356 537 356 535 428 c 128,-1,58
 533 500 533 500 561 590 c 0,59,60
 581 655 581 655 620.5 720 c 128,-1,61
 660 785 660 785 714.5 845 c 128,-1,62
 769 905 769 905 836 956.5 c 128,-1,63
 903 1008 903 1008 977.5 1046 c 128,-1,64
 1052 1084 1052 1084 1133 1106 c 128,-1,65
 1214 1128 1214 1128 1295 1128 c 0,66,67
 1311 1128 1311 1128 1339.5 1126 c 128,-1,68
 1368 1124 1368 1124 1400 1120.5 c 128,-1,69
 1432 1117 1432 1117 1464 1112.5 c 128,-1,70
 1496 1108 1496 1108 1518 1104 c 0,71,72
 1547 1099 1547 1099 1560 1088 c 128,-1,73
 1573 1077 1573 1077 1578.5 1061.5 c 128,-1,74
 1584 1046 1584 1046 1585.5 1027 c 128,-1,75
 1587 1008 1587 1008 1591 987 c 1,76,-1
 1383 317 l 1,77,78
 1444 317 1444 317 1499 341.5 c 128,-1,79
 1554 366 1554 366 1603 419.5 c 128,-1,80
 1652 473 1652 473 1694.5 556.5 c 128,-1,81
 1737 640 1737 640 1774 758 c 0,82,83
 1809 869 1809 869 1809 953.5 c 128,-1,84
 1809 1038 1809 1038 1782.5 1100 c 128,-1,85
 1756 1162 1756 1162 1706.5 1203.5 c 128,-1,86
 1657 1245 1657 1245 1593.5 1270.5 c 128,-1,87
 1530 1296 1530 1296 1456 1306.5 c 128,-1,88
 1382 1317 1382 1317 1305 1317 c 0,89,90
 1154 1317 1154 1317 1010.5 1267 c 128,-1,91
 867 1217 867 1217 744 1122 c 128,-1,92
 621 1027 621 1027 525.5 889.5 c 128,-1,93
 430 752 430 752 376 578 c 0,94,95
 333 440 333 440 343 329.5 c 128,-1,96
 353 219 353 219 415.5 142.5 c 128,-1,97
 478 66 478 66 593.5 25 c 128,-1,98
 709 -16 709 -16 878 -16 c 0,99,100
 965 -16 965 -16 1039 -5 c 128,-1,101
 1113 6 1113 6 1172 22.5 c 128,-1,102
 1231 39 1231 39 1276 58 c 0,103,104
 1322 78 1322 78 1351 94 c 128,-1,105
 1380 110 1380 110 1396 122 c 2,106,-1
 1411 134 l 1,107,-1
 1474 42 l 1,108,109
 1419 -3 1419 -3 1347.5 -39.5 c 128,-1,110
 1276 -76 1276 -76 1192.5 -101.5 c 128,-1,111
 1109 -127 1109 -127 1016 -141 c 128,-1,112
 923 -155 923 -155 825 -155 c 0,17,18
EndSplineSet
EndChar

StartChar: A
Encoding: 65 65 36
Width: 1323
GlyphClass: 2
Flags: W
LayerCount: 2
Fore
SplineSet
1076 285 m 0,0,1
 1071 266 1071 266 1065.5 241.5 c 128,-1,2
 1060 217 1060 217 1060 195 c 0,3,4
 1060 175 1060 175 1066 161 c 128,-1,5
 1072 147 1072 147 1092 147 c 0,6,7
 1119 147 1119 147 1156.5 166.5 c 128,-1,8
 1194 186 1194 186 1237 218.5 c 128,-1,9
 1280 251 1280 251 1326 293.5 c 128,-1,10
 1372 336 1372 336 1417 381.5 c 128,-1,11
 1462 427 1462 427 1503 473 c 128,-1,12
 1544 519 1544 519 1576 559 c 1,13,-1
 1613 426 l 1,14,15
 1547 338 1547 338 1477 257 c 128,-1,16
 1407 176 1407 176 1334.5 114 c 128,-1,17
 1262 52 1262 52 1189 15 c 128,-1,18
 1116 -22 1116 -22 1044 -22 c 0,19,20
 1002 -22 1002 -22 972.5 -8.5 c 128,-1,21
 943 5 943 5 925 28.5 c 128,-1,22
 907 52 907 52 898.5 82.5 c 128,-1,23
 890 113 890 113 890 147 c 0,24,25
 890 160 890 160 891 184 c 128,-1,26
 892 208 892 208 893.5 233.5 c 128,-1,27
 895 259 895 259 896.5 280 c 128,-1,28
 898 301 898 301 898 307 c 1,29,-1
 543 285 l 1,30,-1
 378 283 l 1,31,32
 336 192 336 192 295 122 c 0,33,34
 277 92 277 92 257 63 c 128,-1,35
 237 34 237 34 217 11.5 c 128,-1,36
 197 -11 197 -11 177 -24.5 c 128,-1,37
 157 -38 157 -38 138 -38 c 0,38,39
 108 -38 108 -38 89 -29 c 128,-1,40
 70 -20 70 -20 59 -6.5 c 128,-1,41
 48 7 48 7 43.5 24 c 128,-1,42
 39 41 39 41 39 56 c 0,43,44
 39 82 39 82 46 107.5 c 128,-1,45
 53 133 53 133 66 156 c 2,46,-1
 198 378 l 2,47,48
 207 392 207 392 234.5 445 c 128,-1,49
 262 498 262 498 305.5 575.5 c 128,-1,50
 349 653 349 653 406 747 c 128,-1,51
 463 841 463 841 529.5 937.5 c 128,-1,52
 596 1034 596 1034 670.5 1125 c 128,-1,53
 745 1216 745 1216 823.5 1286.5 c 128,-1,54
 902 1357 902 1357 982 1399.5 c 128,-1,55
 1062 1442 1062 1442 1141 1442 c 0,56,57
 1215 1442 1215 1442 1286.5 1396 c 128,-1,58
 1358 1350 1358 1350 1423 1245 c 1,59,60
 1430 1231 1430 1231 1430 1221 c 0,61,62
 1430 1208 1430 1208 1423 1195 c 128,-1,63
 1416 1182 1416 1182 1404.5 1172 c 128,-1,64
 1393 1162 1393 1162 1379 1156 c 128,-1,65
 1365 1150 1365 1150 1350 1150 c 0,66,67
 1332 1150 1332 1150 1308.5 1158 c 128,-1,68
 1285 1166 1285 1166 1264 1192 c 1,69,70
 1233 1228 1233 1228 1199.5 1244.5 c 128,-1,71
 1166 1261 1166 1261 1133 1261 c 0,72,73
 1086 1261 1086 1261 1037 1234.5 c 128,-1,74
 988 1208 988 1208 938.5 1162.5 c 128,-1,75
 889 1117 889 1117 840 1057.5 c 128,-1,76
 791 998 791 998 745 932 c 128,-1,77
 699 866 699 866 656 797 c 128,-1,78
 613 728 613 728 575 665 c 128,-1,79
 537 602 537 602 505.5 549 c 128,-1,80
 474 496 474 496 450 460 c 1,81,-1
 633 460 l 1,82,-1
 942 483 l 1,83,84
 951 503 951 503 966 537.5 c 128,-1,85
 981 572 981 572 999.5 615 c 128,-1,86
 1018 658 1018 658 1040 708 c 128,-1,87
 1062 758 1062 758 1084.5 808.5 c 128,-1,88
 1107 859 1107 859 1129 908.5 c 128,-1,89
 1151 958 1151 958 1170 1000 c 1,90,91
 1183 1038 1183 1038 1208.5 1054 c 128,-1,92
 1234 1070 1234 1070 1263 1070 c 0,93,94
 1278 1070 1278 1070 1293 1065.5 c 128,-1,95
 1308 1061 1308 1061 1320.5 1051.5 c 128,-1,96
 1333 1042 1333 1042 1341 1027.5 c 128,-1,97
 1349 1013 1349 1013 1350 993 c 0,98,99
 1350 974 1350 974 1333.5 928 c 128,-1,100
 1317 882 1317 882 1291.5 820 c 128,-1,101
 1266 758 1266 758 1234.5 685.5 c 128,-1,102
 1203 613 1203 613 1172.5 540.5 c 128,-1,103
 1142 468 1142 468 1116 401.5 c 128,-1,104
 1090 335 1090 335 1076 285 c 0,0,1
EndSplineSet
EndChar

StartChar: B
Encoding: 66 66 37
Width: 1293
GlyphClass: 2
Flags: W
LayerCount: 2
Fore
SplineSet
874 924 m 1,0,1
 963 960 963 960 1030 998 c 128,-1,2
 1097 1036 1097 1036 1142 1073.5 c 128,-1,3
 1187 1111 1187 1111 1210 1146 c 128,-1,4
 1233 1181 1233 1181 1233 1210 c 0,5,6
 1233 1220 1233 1220 1223 1233 c 128,-1,7
 1213 1246 1213 1246 1192.5 1257 c 128,-1,8
 1172 1268 1172 1268 1141 1275.5 c 128,-1,9
 1110 1283 1110 1283 1069 1283 c 0,10,11
 959 1283 959 1283 865 1256.5 c 128,-1,12
 771 1230 771 1230 694 1192 c 128,-1,13
 617 1154 617 1154 558 1112.5 c 128,-1,14
 499 1071 499 1071 459 1040 c 0,15,16
 434 1021 434 1021 415.5 1002.5 c 128,-1,17
 397 984 397 984 379.5 969.5 c 128,-1,18
 362 955 362 955 342 946 c 128,-1,19
 322 937 322 937 294 937 c 0,20,21
 252 937 252 937 228.5 957 c 128,-1,22
 205 977 205 977 205 1013 c 0,23,24
 205 1056 205 1056 239 1104.5 c 128,-1,25
 273 1153 273 1153 333 1201 c 128,-1,26
 393 1249 393 1249 474 1292.5 c 128,-1,27
 555 1336 555 1336 648.5 1369 c 128,-1,28
 742 1402 742 1402 843.5 1422 c 128,-1,29
 945 1442 945 1442 1047 1442 c 0,30,31
 1152 1442 1152 1442 1228 1425 c 128,-1,32
 1304 1408 1304 1408 1352.5 1378 c 128,-1,33
 1401 1348 1401 1348 1424.5 1307 c 128,-1,34
 1448 1266 1448 1266 1448 1218 c 128,-1,35
 1448 1170 1448 1170 1416 1118 c 128,-1,36
 1384 1066 1384 1066 1324.5 1014 c 128,-1,37
 1265 962 1265 962 1179.5 914.5 c 128,-1,38
 1094 867 1094 867 987 828 c 1,39,40
 1093 793 1093 793 1159.5 754.5 c 128,-1,41
 1226 716 1226 716 1263.5 674.5 c 128,-1,42
 1301 633 1301 633 1314 588.5 c 128,-1,43
 1327 544 1327 544 1327 497 c 0,44,45
 1327 428 1327 428 1289 361 c 128,-1,46
 1251 294 1251 294 1183.5 234.5 c 128,-1,47
 1116 175 1116 175 1023.5 124.5 c 128,-1,48
 931 74 931 74 822 37.5 c 128,-1,49
 713 1 713 1 592 -19.5 c 128,-1,50
 471 -40 471 -40 347 -40 c 0,51,52
 303 -40 303 -40 258 -35 c 128,-1,53
 213 -30 213 -30 175.5 -17 c 128,-1,54
 138 -4 138 -4 114.5 18 c 128,-1,55
 91 40 91 40 91 75 c 0,56,57
 91 79 91 79 91.5 82.5 c 128,-1,58
 92 86 92 86 93 91 c 1,59,60
 97 99 97 99 102 110.5 c 128,-1,61
 107 122 107 122 125 133 c 128,-1,62
 143 144 143 144 181.5 151.5 c 128,-1,63
 220 159 220 159 292 159 c 1,64,65
 417 388 417 388 498.5 553.5 c 128,-1,66
 580 719 580 719 635 826 c 128,-1,67
 690 933 690 933 727.5 984 c 128,-1,68
 765 1035 765 1035 801 1035 c 0,69,70
 817 1035 817 1035 832 1030 c 128,-1,71
 847 1025 847 1025 858.5 1016.5 c 128,-1,72
 870 1008 870 1008 877 995.5 c 128,-1,73
 884 983 884 983 884 968 c 1,74,75
 876 958 876 958 875 947.5 c 128,-1,76
 874 937 874 937 874 924 c 1,0,1
819 733 m 1,77,78
 774 631 774 631 734.5 550 c 128,-1,79
 695 469 695 469 660 401.5 c 128,-1,80
 625 334 625 334 593.5 275.5 c 128,-1,81
 562 217 562 217 532 161 c 1,82,83
 648 171 648 171 748.5 201.5 c 128,-1,84
 849 232 849 232 923.5 277 c 128,-1,85
 998 322 998 322 1040.5 378 c 128,-1,86
 1083 434 1083 434 1083 496 c 0,87,88
 1083 524 1083 524 1070.5 555 c 128,-1,89
 1058 586 1058 586 1028 617 c 128,-1,90
 998 648 998 648 947 678 c 128,-1,91
 896 708 896 708 819 733 c 1,77,78
EndSplineSet
EndChar

StartChar: C
Encoding: 67 67 38
Width: 1039
GlyphClass: 2
Flags: W
LayerCount: 2
Fore
SplineSet
1364 1263 m 0,0,1
 1364 1236 1364 1236 1355.5 1198 c 128,-1,2
 1347 1160 1347 1160 1331 1119 c 128,-1,3
 1315 1078 1315 1078 1292.5 1037.5 c 128,-1,4
 1270 997 1270 997 1241 964.5 c 128,-1,5
 1212 932 1212 932 1178 912 c 128,-1,6
 1144 892 1144 892 1105 892 c 0,7,8
 1096 892 1096 892 1081.5 893.5 c 128,-1,9
 1067 895 1067 895 1052.5 900.5 c 128,-1,10
 1038 906 1038 906 1027.5 917 c 128,-1,11
 1017 928 1017 928 1017 946 c 0,12,13
 1017 958 1017 958 1023.5 974 c 128,-1,14
 1030 990 1030 990 1047 1011 c 1,15,16
 1065 1031 1065 1031 1086 1058.5 c 128,-1,17
 1107 1086 1107 1086 1124 1116 c 128,-1,18
 1141 1146 1141 1146 1152.5 1175 c 128,-1,19
 1164 1204 1164 1204 1164 1227 c 0,20,21
 1164 1256 1164 1256 1150.5 1273.5 c 128,-1,22
 1137 1291 1137 1291 1104 1291 c 0,23,24
 1061 1291 1061 1291 1007 1263 c 128,-1,25
 953 1235 953 1235 894 1186 c 128,-1,26
 835 1137 835 1137 774 1071.5 c 128,-1,27
 713 1006 713 1006 656 931.5 c 128,-1,28
 599 857 599 857 548.5 776.5 c 128,-1,29
 498 696 498 696 460.5 617.5 c 128,-1,30
 423 539 423 539 401.5 466.5 c 128,-1,31
 380 394 380 394 380 335 c 0,32,33
 380 262 380 262 419 218 c 128,-1,34
 458 174 458 174 548 174 c 0,35,36
 590 174 590 174 673 206.5 c 128,-1,37
 756 239 756 239 811.5 271.5 c 128,-1,38
 867 304 867 304 923.5 343.5 c 128,-1,39
 980 383 980 383 1031 419.5 c 128,-1,40
 1082 456 1082 456 1124 485.5 c 128,-1,41
 1166 515 1166 515 1193 527 c 1,42,43
 1198 531 1198 531 1205 531 c 0,44,45
 1220 531 1220 531 1225.5 506.5 c 128,-1,46
 1231 482 1231 482 1231 451 c 0,47,48
 1231 434 1231 434 1226.5 409.5 c 128,-1,49
 1222 385 1222 385 1198 353 c 1,50,51
 1187 340 1187 340 1157 309 c 128,-1,52
 1127 278 1127 278 1082 239 c 128,-1,53
 1037 200 1037 200 979 158 c 128,-1,54
 921 116 921 116 853.5 81 c 128,-1,55
 786 46 786 46 679.5 12 c 128,-1,56
 573 -22 573 -22 494 -22 c 0,57,58
 401 -22 401 -22 335 0.5 c 128,-1,59
 269 23 269 23 227 63 c 128,-1,60
 185 103 185 103 165.5 158.5 c 128,-1,61
 146 214 146 214 146 280 c 0,62,63
 146 362 146 362 171 456 c 128,-1,64
 196 550 196 550 240.5 647 c 128,-1,65
 285 744 285 744 346.5 841 c 128,-1,66
 408 938 408 938 481.5 1026.5 c 128,-1,67
 555 1115 555 1115 638 1191 c 128,-1,68
 721 1267 721 1267 808 1323 c 128,-1,69
 895 1379 895 1379 983 1411 c 128,-1,70
 1071 1443 1071 1443 1156 1443 c 0,71,72
 1198 1443 1198 1443 1236 1433.5 c 128,-1,73
 1274 1424 1274 1424 1302.5 1403 c 128,-1,74
 1331 1382 1331 1382 1347.5 1347.5 c 128,-1,75
 1364 1313 1364 1313 1364 1263 c 0,0,1
EndSplineSet
EndChar

StartChar: D
Encoding: 68 68 39
Width: 1397
GlyphClass: 2
Flags: W
LayerCount: 2
Fore
SplineSet
928 901 m 0,0,1
 911 870 911 870 883.5 819 c 128,-1,2
 856 768 856 768 820.5 705 c 128,-1,3
 785 642 785 642 743.5 569.5 c 128,-1,4
 702 497 702 497 657.5 424 c 128,-1,5
 613 351 613 351 566.5 280.5 c 128,-1,6
 520 210 520 210 476 150 c 1,7,8
 584 161 584 161 684 205 c 128,-1,9
 784 249 784 249 871.5 314.5 c 128,-1,10
 959 380 959 380 1031.5 461.5 c 128,-1,11
 1104 543 1104 543 1155.5 630.5 c 128,-1,12
 1207 718 1207 718 1235.5 806 c 128,-1,13
 1264 894 1264 894 1264 972 c 0,14,15
 1264 1038 1264 1038 1247.5 1094 c 128,-1,16
 1231 1150 1231 1150 1197.5 1191 c 128,-1,17
 1164 1232 1164 1232 1112 1255 c 128,-1,18
 1060 1278 1060 1278 990 1278 c 0,19,20
 925 1278 925 1278 859.5 1265.5 c 128,-1,21
 794 1253 794 1253 734 1232 c 128,-1,22
 674 1211 674 1211 623.5 1182.5 c 128,-1,23
 573 1154 573 1154 537 1121 c 1,24,25
 497 1077 497 1077 466.5 1033 c 128,-1,26
 436 989 436 989 406.5 954 c 128,-1,27
 377 919 377 919 343 897 c 128,-1,28
 309 875 309 875 263 875 c 0,29,30
 177 875 177 875 177 951 c 0,31,32
 177 999 177 999 208 1054.5 c 128,-1,33
 239 1110 239 1110 294.5 1164.5 c 128,-1,34
 350 1219 350 1219 426.5 1269.5 c 128,-1,35
 503 1320 503 1320 595 1358.5 c 128,-1,36
 687 1397 687 1397 791 1420 c 128,-1,37
 895 1443 895 1443 1005 1443 c 0,38,39
 1133 1443 1133 1443 1228 1405 c 128,-1,40
 1323 1367 1323 1367 1385.5 1300.5 c 128,-1,41
 1448 1234 1448 1234 1478.5 1144 c 128,-1,42
 1509 1054 1509 1054 1509 950 c 128,-1,43
 1509 846 1509 846 1473.5 732 c 128,-1,44
 1438 618 1438 618 1369.5 508 c 128,-1,45
 1301 398 1301 398 1200.5 299 c 128,-1,46
 1100 200 1100 200 969.5 125 c 128,-1,47
 839 50 839 50 680.5 6 c 128,-1,48
 522 -38 522 -38 338 -38 c 0,49,50
 298 -38 298 -38 275 -12.5 c 128,-1,51
 252 13 252 13 252 50 c 0,52,53
 252 79 252 79 262 106 c 128,-1,54
 272 133 272 133 288 156 c 1,55,-1
 699 973 l 1,56,57
 728 1018 728 1018 756.5 1045 c 128,-1,58
 785 1072 785 1072 809.5 1087 c 128,-1,59
 834 1102 834 1102 853 1106.5 c 128,-1,60
 872 1111 872 1111 882 1111 c 0,61,62
 927 1111 927 1111 946 1085 c 128,-1,63
 965 1059 965 1059 965 1023 c 0,64,65
 965 994 965 994 955 962 c 128,-1,66
 945 930 945 930 928 901 c 0,0,1
EndSplineSet
EndChar

StartChar: E
Encoding: 69 69 40
Width: 1155
GlyphClass: 2
Flags: W
LayerCount: 2
Fore
SplineSet
1078 825 m 0,0,1
 1094 825 1094 825 1109 821 c 128,-1,2
 1124 817 1124 817 1136 810 c 128,-1,3
 1148 803 1148 803 1155 793.5 c 128,-1,4
 1162 784 1162 784 1162 774 c 0,5,6
 1162 758 1162 758 1142 741.5 c 128,-1,7
 1122 725 1122 725 1073 711 c 128,-1,8
 1024 697 1024 697 942.5 688 c 128,-1,9
 861 679 861 679 737 679 c 0,10,11
 670 679 670 679 604 660.5 c 128,-1,12
 538 642 538 642 486 606 c 128,-1,13
 434 570 434 570 401.5 518 c 128,-1,14
 369 466 369 466 369 399 c 0,15,16
 369 345 369 345 384.5 296 c 128,-1,17
 400 247 400 247 431.5 210 c 128,-1,18
 463 173 463 173 510.5 151 c 128,-1,19
 558 129 558 129 623 129 c 0,20,21
 754 129 754 129 841 144.5 c 128,-1,22
 928 160 928 160 986.5 183.5 c 128,-1,23
 1045 207 1045 207 1082.5 234 c 128,-1,24
 1120 261 1120 261 1152.5 284.5 c 128,-1,25
 1185 308 1185 308 1219.5 323.5 c 128,-1,26
 1254 339 1254 339 1306 339 c 0,27,28
 1348 339 1348 339 1372 318.5 c 128,-1,29
 1396 298 1396 298 1396 260 c 0,30,31
 1396 234 1396 234 1368.5 202 c 128,-1,32
 1341 170 1341 170 1290.5 136.5 c 128,-1,33
 1240 103 1240 103 1169 72 c 128,-1,34
 1098 41 1098 41 1011 16.5 c 128,-1,35
 924 -8 924 -8 824 -23 c 128,-1,36
 724 -38 724 -38 616 -38 c 0,37,38
 517 -38 517 -38 430 -11.5 c 128,-1,39
 343 15 343 15 278 68 c 128,-1,40
 213 121 213 121 175.5 200.5 c 128,-1,41
 138 280 138 280 138 387 c 0,42,43
 138 479 138 479 180 554.5 c 128,-1,44
 222 630 222 630 294.5 687 c 128,-1,45
 367 744 367 744 463.5 781 c 128,-1,46
 560 818 560 818 669 832 c 1,47,48
 585 895 585 895 551 955.5 c 128,-1,49
 517 1016 517 1016 517 1075 c 0,50,51
 517 1133 517 1133 546 1182.5 c 128,-1,52
 575 1232 575 1232 625.5 1273 c 128,-1,53
 676 1314 676 1314 743 1345.5 c 128,-1,54
 810 1377 810 1377 887 1398.5 c 128,-1,55
 964 1420 964 1420 1046.5 1431.5 c 128,-1,56
 1129 1443 1129 1443 1209 1443 c 0,57,58
 1291 1443 1291 1443 1364.5 1426 c 128,-1,59
 1438 1409 1438 1409 1496 1373 c 128,-1,60
 1554 1337 1554 1337 1591 1282 c 128,-1,61
 1628 1227 1628 1227 1636 1152 c 1,62,63
 1636 1131 1636 1131 1626 1109 c 128,-1,64
 1616 1087 1616 1087 1595.5 1068.5 c 128,-1,65
 1575 1050 1575 1050 1545.5 1038.5 c 128,-1,66
 1516 1027 1516 1027 1477 1027 c 0,67,68
 1456 1027 1456 1027 1443.5 1032 c 128,-1,69
 1431 1037 1431 1037 1424.5 1046 c 128,-1,70
 1418 1055 1418 1055 1416.5 1067.5 c 128,-1,71
 1415 1080 1415 1080 1415 1095 c 0,72,73
 1415 1142 1415 1142 1404 1176 c 128,-1,74
 1393 1210 1393 1210 1367.5 1231.5 c 128,-1,75
 1342 1253 1342 1253 1301 1263.5 c 128,-1,76
 1260 1274 1260 1274 1199 1274 c 0,77,78
 1126 1274 1126 1274 1047 1258.5 c 128,-1,79
 968 1243 968 1243 902 1213.5 c 128,-1,80
 836 1184 836 1184 793.5 1143 c 128,-1,81
 751 1102 751 1102 751 1051 c 0,82,83
 751 991 751 991 778.5 948 c 128,-1,84
 806 905 806 905 851.5 877.5 c 128,-1,85
 897 850 897 850 956 837.5 c 128,-1,86
 1015 825 1015 825 1078 825 c 0,0,1
EndSplineSet
EndChar

StartChar: F
Encoding: 70 70 41
Width: 855
GlyphClass: 2
Flags: W
LayerCount: 2
Fore
SplineSet
1182 826 m 1,0,1
 1170 797 1170 797 1159 780 c 128,-1,2
 1148 763 1148 763 1135 753.5 c 128,-1,3
 1122 744 1122 744 1105.5 741 c 128,-1,4
 1089 738 1089 738 1067 738 c 1,5,6
 973 746 973 746 905.5 750 c 128,-1,7
 838 754 838 754 786 754 c 0,8,9
 735 754 735 754 696.5 750 c 128,-1,10
 658 746 658 746 621 736 c 1,11,12
 606 712 606 712 576 660 c 128,-1,13
 546 608 546 608 509.5 541.5 c 128,-1,14
 473 475 473 475 435 400 c 128,-1,15
 397 325 397 325 365 256 c 0,16,17
 296 106 296 106 241.5 32 c 128,-1,18
 187 -42 187 -42 149 -42 c 0,19,20
 103 -42 103 -42 82.5 -25.5 c 128,-1,21
 62 -9 62 -9 62 23 c 0,22,23
 62 61 62 61 89.5 129.5 c 128,-1,24
 117 198 117 198 166 296 c 0,25,26
 184 332 184 332 205.5 373 c 128,-1,27
 227 414 227 414 249 455 c 128,-1,28
 271 496 271 496 292 535 c 128,-1,29
 313 574 313 574 330 605.5 c 128,-1,30
 347 637 347 637 358.5 659 c 128,-1,31
 370 681 370 681 373 688 c 0,32,33
 376 696 376 696 377.5 699 c 128,-1,34
 379 702 379 702 379.5 703.5 c 128,-1,35
 380 705 380 705 380 705.5 c 128,-1,36
 380 706 380 706 381 710 c 1,37,-1
 363 710 l 2,38,39
 325 710 325 710 302 716 c 128,-1,40
 279 722 279 722 279 742 c 0,41,42
 279 753 279 753 288 770 c 0,43,44
 309 809 309 809 335 829.5 c 128,-1,45
 361 850 361 850 385.5 859 c 128,-1,46
 410 868 410 868 430.5 868.5 c 128,-1,47
 451 869 451 869 462 869 c 1,48,49
 489 924 489 924 516 979 c 128,-1,50
 543 1034 543 1034 570 1089 c 0,51,52
 621 1190 621 1190 673.5 1258 c 128,-1,53
 726 1326 726 1326 788 1367 c 128,-1,54
 850 1408 850 1408 925 1425.5 c 128,-1,55
 1000 1443 1000 1443 1096 1443 c 0,56,57
 1184 1443 1184 1443 1236.5 1438 c 128,-1,58
 1289 1433 1289 1433 1310 1428 c 0,59,60
 1350 1417 1350 1417 1366.5 1390.5 c 128,-1,61
 1383 1364 1383 1364 1383 1332 c 0,62,63
 1383 1307 1383 1307 1374.5 1282 c 128,-1,64
 1366 1257 1366 1257 1351.5 1236.5 c 128,-1,65
 1337 1216 1337 1216 1318.5 1203 c 128,-1,66
 1300 1190 1300 1190 1281 1190 c 0,67,68
 1270 1190 1270 1190 1262 1194 c 0,69,70
 1240 1204 1240 1204 1222.5 1211.5 c 128,-1,71
 1205 1219 1205 1219 1187 1223.5 c 128,-1,72
 1169 1228 1169 1228 1146.5 1230 c 128,-1,73
 1124 1232 1124 1232 1091 1232 c 0,74,75
 1057 1232 1057 1232 1010.5 1230.5 c 128,-1,76
 964 1229 964 1229 897 1226 c 1,77,78
 870 1179 870 1179 846.5 1138.5 c 128,-1,79
 823 1098 823 1098 800.5 1058.5 c 128,-1,80
 778 1019 778 1019 754.5 978.5 c 128,-1,81
 731 938 731 938 703 890 c 1,82,83
 740 903 740 903 783.5 913.5 c 128,-1,84
 827 924 827 924 872.5 931 c 128,-1,85
 918 938 918 938 964 942 c 128,-1,86
 1010 946 1010 946 1052 946 c 0,87,88
 1128 946 1128 946 1161.5 934 c 128,-1,89
 1195 922 1195 922 1195 885 c 0,90,91
 1195 877 1195 877 1194 861.5 c 128,-1,92
 1193 846 1193 846 1182 826 c 1,0,1
EndSplineSet
EndChar

StartChar: G
Encoding: 71 71 42
Width: 1336
GlyphClass: 2
Flags: W
LayerCount: 2
Fore
SplineSet
1245 435 m 1,0,1
 1241 430 1241 430 1230.5 403.5 c 128,-1,2
 1220 377 1220 377 1205 337 c 128,-1,3
 1190 297 1190 297 1172.5 247.5 c 128,-1,4
 1155 198 1155 198 1136.5 146.5 c 128,-1,5
 1118 95 1118 95 1101 45.5 c 128,-1,6
 1084 -4 1084 -4 1070.5 -44 c 128,-1,7
 1057 -84 1057 -84 1048 -111 c 128,-1,8
 1039 -138 1039 -138 1037 -143 c 0,9,10
 1032 -159 1032 -159 1021 -178.5 c 128,-1,11
 1010 -198 1010 -198 995 -215.5 c 128,-1,12
 980 -233 980 -233 962 -244.5 c 128,-1,13
 944 -256 944 -256 925 -256 c 0,14,15
 893 -256 893 -256 878.5 -238 c 128,-1,16
 864 -220 864 -220 864 -172 c 0,17,18
 864 -165 864 -165 864 -158 c 128,-1,19
 864 -151 864 -151 865 -143 c 0,20,21
 866 -127 866 -127 880 -83 c 128,-1,22
 894 -39 894 -39 913.5 16.5 c 128,-1,23
 933 72 933 72 955.5 131.5 c 128,-1,24
 978 191 978 191 996 238 c 1,25,26
 943 188 943 188 881 138.5 c 128,-1,27
 819 89 819 89 754 49.5 c 128,-1,28
 689 10 689 10 623 -15 c 128,-1,29
 557 -40 557 -40 496 -40 c 0,30,31
 426 -40 426 -40 375.5 -14 c 128,-1,32
 325 12 325 12 292 54 c 128,-1,33
 259 96 259 96 243 149 c 128,-1,34
 227 202 227 202 227 255 c 0,35,36
 227 262 227 262 227 268 c 128,-1,37
 227 274 227 274 228 280 c 0,38,39
 234 376 234 376 260.5 477 c 128,-1,40
 287 578 287 578 330 678 c 128,-1,41
 373 778 373 778 429.5 873.5 c 128,-1,42
 486 969 486 969 552.5 1054 c 128,-1,43
 619 1139 619 1139 694 1210.5 c 128,-1,44
 769 1282 769 1282 848 1333.5 c 128,-1,45
 927 1385 927 1385 1007.5 1414 c 128,-1,46
 1088 1443 1088 1443 1167 1443 c 0,47,48
 1258 1443 1258 1443 1343 1401 c 128,-1,49
 1428 1359 1428 1359 1502 1265 c 0,50,51
 1519 1244 1519 1244 1523.5 1222.5 c 128,-1,52
 1528 1201 1528 1201 1528 1182 c 0,53,54
 1528 1137 1528 1137 1502.5 1111 c 128,-1,55
 1477 1085 1477 1085 1442 1085 c 0,56,57
 1410 1085 1410 1085 1382.5 1113.5 c 128,-1,58
 1355 1142 1355 1142 1321 1195 c 1,59,60
 1289 1243 1289 1243 1250.5 1264.5 c 128,-1,61
 1212 1286 1212 1286 1167 1286 c 0,62,63
 1097 1286 1097 1286 1017.5 1237 c 128,-1,64
 938 1188 938 1188 860 1107.5 c 128,-1,65
 782 1027 782 1027 710.5 923.5 c 128,-1,66
 639 820 639 820 584 711.5 c 128,-1,67
 529 603 529 603 496.5 497.5 c 128,-1,68
 464 392 464 392 464 308 c 0,69,70
 464 280 464 280 468.5 250.5 c 128,-1,71
 473 221 473 221 485.5 197 c 128,-1,72
 498 173 498 173 519.5 157.5 c 128,-1,73
 541 142 541 142 574 142 c 0,74,75
 611 142 611 142 658 163 c 128,-1,76
 705 184 705 184 755.5 218 c 128,-1,77
 806 252 806 252 857 295 c 128,-1,78
 908 338 908 338 952 382 c 128,-1,79
 996 426 996 426 1030 466.5 c 128,-1,80
 1064 507 1064 507 1081 537 c 1,81,-1
 1174 772 l 1,82,83
 1191 810 1191 810 1218.5 826 c 128,-1,84
 1246 842 1246 842 1275 842 c 0,85,86
 1289 842 1289 842 1303 838 c 128,-1,87
 1317 834 1317 834 1328 825.5 c 128,-1,88
 1339 817 1339 817 1345.5 803.5 c 128,-1,89
 1352 790 1352 790 1352 772 c 0,90,91
 1352 724 1352 724 1342 682 c 128,-1,92
 1332 640 1332 640 1316.5 600 c 128,-1,93
 1301 560 1301 560 1282 519.5 c 128,-1,94
 1263 479 1263 479 1245 435 c 1,0,1
EndSplineSet
EndChar

StartChar: H
Encoding: 72 72 43
Width: 1467
GlyphClass: 2
Flags: W
LayerCount: 2
Fore
SplineSet
1401 405 m 0,0,1
 1396 405 1396 405 1392.5 404.5 c 128,-1,2
 1389 404 1389 404 1385 404 c 1,3,4
 1336 294 1336 294 1298.5 211 c 128,-1,5
 1261 128 1261 128 1241 91 c 0,6,7
 1224 60 1224 60 1202.5 37 c 128,-1,8
 1181 14 1181 14 1157 -1.5 c 128,-1,9
 1133 -17 1133 -17 1108.5 -24.5 c 128,-1,10
 1084 -32 1084 -32 1063 -32 c 0,11,12
 1032 -32 1032 -32 1011 -17 c 128,-1,13
 990 -2 990 -2 990 28 c 0,14,15
 990 54 990 54 1006 89 c 2,16,-1
 1150 394 l 1,17,18
 1041 390 1041 390 940.5 387 c 128,-1,19
 840 384 840 384 747 382 c 1,20,21
 700 286 700 286 646 201.5 c 128,-1,22
 592 117 592 117 532 54 c 128,-1,23
 472 -9 472 -9 407 -45.5 c 128,-1,24
 342 -82 342 -82 272 -82 c 0,25,26
 218 -82 218 -82 172 -54 c 1,27,28
 158 -48 158 -48 141.5 -31.5 c 128,-1,29
 125 -15 125 -15 111 8 c 128,-1,30
 97 31 97 31 87.5 58 c 128,-1,31
 78 85 78 85 78 113 c 0,32,33
 78 133 78 133 85 151.5 c 128,-1,34
 92 170 92 170 105 187 c 0,35,36
 111 194 111 194 119 205 c 128,-1,37
 127 216 127 216 138 226.5 c 128,-1,38
 149 237 149 237 161.5 244 c 128,-1,39
 174 251 174 251 189 251 c 0,40,41
 195 251 195 251 201 249.5 c 128,-1,42
 207 248 207 248 212 244 c 0,43,44
 222 238 222 238 231.5 217 c 128,-1,45
 241 196 241 196 252.5 173.5 c 128,-1,46
 264 151 264 151 278 133 c 128,-1,47
 292 115 292 115 311 115 c 0,48,49
 338 115 338 115 365.5 135.5 c 128,-1,50
 393 156 393 156 421.5 192.5 c 128,-1,51
 450 229 450 229 479 280 c 128,-1,52
 508 331 508 331 537 391 c 1,53,54
 505 401 505 401 492 419.5 c 128,-1,55
 479 438 479 438 479 458 c 0,56,57
 479 470 479 470 488 482 c 128,-1,58
 497 494 497 494 513 503.5 c 128,-1,59
 529 513 529 513 550.5 520 c 128,-1,60
 572 527 572 527 598 528 c 1,61,62
 634 616 634 616 667 711 c 128,-1,63
 700 806 700 806 730 897 c 128,-1,64
 760 988 760 988 785 1071.5 c 128,-1,65
 810 1155 810 1155 829 1221 c 128,-1,66
 848 1287 848 1287 860 1330 c 128,-1,67
 872 1373 872 1373 875 1384 c 0,68,69
 883 1415 883 1415 905.5 1429 c 128,-1,70
 928 1443 928 1443 954 1443 c 0,71,72
 993 1443 993 1443 1013.5 1417.5 c 128,-1,73
 1034 1392 1034 1392 1034 1325 c 0,74,75
 1034 1317 1034 1317 1034 1308.5 c 128,-1,76
 1034 1300 1034 1300 1033 1290 c 0,77,78
 1031 1264 1031 1264 1023 1219.5 c 128,-1,79
 1015 1175 1015 1175 1002 1117 c 128,-1,80
 989 1059 989 1059 970 989.5 c 128,-1,81
 951 920 951 920 927.5 844.5 c 128,-1,82
 904 769 904 769 875.5 689 c 128,-1,83
 847 609 847 609 814 530 c 1,84,85
 845 530 845 530 882 530 c 128,-1,86
 919 530 919 530 965.5 529.5 c 128,-1,87
 1012 529 1012 529 1071 527.5 c 128,-1,88
 1130 526 1130 526 1206 524 c 0,89,90
 1207 524 1207 524 1208 523.5 c 128,-1,91
 1209 523 1209 523 1210 523 c 0,92,93
 1298 708 1298 708 1377 871.5 c 128,-1,94
 1456 1035 1456 1035 1522 1157.5 c 128,-1,95
 1588 1280 1588 1280 1639 1351 c 128,-1,96
 1690 1422 1690 1422 1723 1422 c 0,97,98
 1758 1422 1758 1422 1775.5 1405.5 c 128,-1,99
 1793 1389 1793 1389 1793 1361 c 0,100,101
 1793 1346 1793 1346 1789.5 1334.5 c 128,-1,102
 1786 1323 1786 1323 1780 1309 c 0,103,104
 1754 1246 1754 1246 1714 1154 c 128,-1,105
 1674 1062 1674 1062 1627 955.5 c 128,-1,106
 1580 849 1580 849 1529.5 734.5 c 128,-1,107
 1479 620 1479 620 1432 513 c 1,108,109
 1462 507 1462 507 1481.5 496.5 c 128,-1,110
 1501 486 1501 486 1501 469 c 0,111,112
 1501 447 1501 447 1478 427.5 c 128,-1,113
 1455 408 1455 408 1401 405 c 0,0,1
EndSplineSet
EndChar

StartChar: I
Encoding: 73 73 44
Width: 1075
GlyphClass: 2
Flags: W
LayerCount: 2
Fore
SplineSet
778 8 m 0,0,1
 712 15 712 15 660.5 17.5 c 128,-1,2
 609 20 609 20 564 20 c 0,3,4
 534 20 534 20 505.5 19 c 128,-1,5
 477 18 477 18 448.5 17.5 c 128,-1,6
 420 17 420 17 389.5 16 c 128,-1,7
 359 15 359 15 325 15 c 0,8,9
 292 15 292 15 274 34 c 128,-1,10
 256 53 256 53 256 81 c 0,11,12
 256 92 256 92 259 104 c 0,13,14
 262 114 262 114 282.5 125.5 c 128,-1,15
 303 137 303 137 336.5 147.5 c 128,-1,16
 370 158 370 158 415 166 c 128,-1,17
 460 174 460 174 511 178 c 1,18,19
 563 291 563 291 619.5 406.5 c 128,-1,20
 676 522 676 522 733 631.5 c 128,-1,21
 790 741 790 741 844 841 c 128,-1,22
 898 941 898 941 945 1023.5 c 128,-1,23
 992 1106 992 1106 1029.5 1167 c 128,-1,24
 1067 1228 1067 1228 1091 1260 c 1,25,26
 1040 1249 1040 1249 992 1236.5 c 128,-1,27
 944 1224 944 1224 884 1212 c 1,28,29
 872 1208 872 1208 860 1208 c 0,30,31
 831 1208 831 1208 815 1228.5 c 128,-1,32
 799 1249 799 1249 799 1278 c 0,33,34
 799 1291 799 1291 822.5 1308.5 c 128,-1,35
 846 1326 846 1326 887.5 1344.5 c 128,-1,36
 929 1363 929 1363 985.5 1380.5 c 128,-1,37
 1042 1398 1042 1398 1108.5 1412 c 128,-1,38
 1175 1426 1175 1426 1248.5 1434.5 c 128,-1,39
 1322 1443 1322 1443 1397 1443 c 0,40,41
 1467 1443 1467 1443 1506.5 1428.5 c 128,-1,42
 1546 1414 1546 1414 1546 1379 c 0,43,44
 1546 1362 1546 1362 1536 1344.5 c 128,-1,45
 1526 1327 1526 1327 1509.5 1313 c 128,-1,46
 1493 1299 1493 1299 1470 1290.5 c 128,-1,47
 1447 1282 1447 1282 1422 1282 c 0,48,49
 1408 1282 1408 1282 1396 1283.5 c 128,-1,50
 1384 1285 1384 1285 1370 1285 c 0,51,52
 1333 1285 1333 1285 1301 1283.5 c 128,-1,53
 1269 1282 1269 1282 1240 1280 c 1,54,55
 1242 1270 1242 1270 1242 1265 c 0,56,57
 1242 1251 1242 1251 1237 1238.5 c 128,-1,58
 1232 1226 1232 1226 1227 1215 c 0,59,60
 1196 1150 1196 1150 1152 1058.5 c 128,-1,61
 1108 967 1108 967 1058 864 c 128,-1,62
 1008 761 1008 761 956.5 655 c 128,-1,63
 905 549 905 549 859 455 c 128,-1,64
 813 361 813 361 776 287.5 c 128,-1,65
 739 214 739 214 720 176 c 1,66,67
 776 171 776 171 823 162.5 c 128,-1,68
 870 154 870 154 903.5 141.5 c 128,-1,69
 937 129 937 129 956 112 c 128,-1,70
 975 95 975 95 975 74 c 0,71,72
 975 59 975 59 965 44.5 c 128,-1,73
 955 30 955 30 939 18.5 c 128,-1,74
 923 7 923 7 903 0.5 c 128,-1,75
 883 -6 883 -6 862 -6 c 0,76,77
 839 -6 839 -6 818.5 0 c 128,-1,78
 798 6 798 6 778 8 c 0,0,1
EndSplineSet
EndChar

StartChar: J
Encoding: 74 74 45
Width: 1257
GlyphClass: 2
Flags: W
LayerCount: 2
Fore
SplineSet
1264 636 m 1,0,1
 1202 499 1202 499 1129.5 375.5 c 128,-1,2
 1057 252 1057 252 974.5 159 c 128,-1,3
 892 66 892 66 802 11.5 c 128,-1,4
 712 -43 712 -43 616 -43 c 0,5,6
 560 -43 560 -43 503 -25 c 128,-1,7
 446 -7 446 -7 386.5 31.5 c 128,-1,8
 327 70 327 70 266.5 130.5 c 128,-1,9
 206 191 206 191 144 277 c 1,10,11
 129 294 129 294 123 311 c 128,-1,12
 117 328 117 328 117 348 c 0,13,14
 117 363 117 363 126.5 385 c 128,-1,15
 136 407 136 407 154 427.5 c 128,-1,16
 172 448 172 448 198 462.5 c 128,-1,17
 224 477 224 477 257 477 c 0,18,19
 277 477 277 477 294 470 c 128,-1,20
 311 463 311 463 325 446 c 1,21,22
 405 286 405 286 483.5 212 c 128,-1,23
 562 138 562 138 639 138 c 0,24,25
 695 138 695 138 750.5 174.5 c 128,-1,26
 806 211 806 211 861 280.5 c 128,-1,27
 916 350 916 350 971.5 450 c 128,-1,28
 1027 550 1027 550 1083 677 c 1,29,-1
 1370 1272 l 1,30,31
 1263 1273 1263 1273 1193.5 1273 c 128,-1,32
 1124 1273 1124 1273 1098 1273 c 0,33,34
 1080 1273 1080 1273 1065.5 1281 c 128,-1,35
 1051 1289 1051 1289 1040.5 1301 c 128,-1,36
 1030 1313 1030 1313 1024 1328 c 128,-1,37
 1018 1343 1018 1343 1018 1357 c 0,38,39
 1018 1385 1018 1385 1040 1402.5 c 128,-1,40
 1062 1420 1062 1420 1110 1420 c 0,41,42
 1119 1420 1119 1420 1128.5 1419.5 c 128,-1,43
 1138 1419 1138 1419 1147 1419 c 0,44,45
 1221 1419 1221 1419 1295.5 1423 c 128,-1,46
 1370 1427 1370 1427 1443.5 1431.5 c 128,-1,47
 1517 1436 1517 1436 1590.5 1440 c 128,-1,48
 1664 1444 1664 1444 1736 1444 c 0,49,50
 1793 1444 1793 1444 1829.5 1440.5 c 128,-1,51
 1866 1437 1866 1437 1887 1430.5 c 128,-1,52
 1908 1424 1908 1424 1916 1414 c 128,-1,53
 1924 1404 1924 1404 1924 1392 c 0,54,55
 1924 1376 1924 1376 1916.5 1359 c 128,-1,56
 1909 1342 1909 1342 1888 1327.5 c 128,-1,57
 1867 1313 1867 1313 1828.5 1304 c 128,-1,58
 1790 1295 1790 1295 1728 1295 c 0,59,60
 1699 1295 1699 1295 1664.5 1292.5 c 128,-1,61
 1630 1290 1630 1290 1589 1285 c 1,62,-1
 1264 636 l 1,0,1
EndSplineSet
EndChar

StartChar: K
Encoding: 75 75 46
Width: 1596
GlyphClass: 2
Flags: W
LayerCount: 2
Fore
SplineSet
288 -54 m 1,0,1
 274 -48 274 -48 258.5 -32 c 128,-1,2
 243 -16 243 -16 229 6 c 128,-1,3
 215 28 215 28 206 54.5 c 128,-1,4
 197 81 197 81 197 108 c 0,5,6
 197 148 197 148 225 187 c 0,7,8
 231 194 231 194 239.5 205 c 128,-1,9
 248 216 248 216 259.5 226.5 c 128,-1,10
 271 237 271 237 284 244 c 128,-1,11
 297 251 297 251 311 251 c 0,12,13
 317 251 317 251 323 249.5 c 128,-1,14
 329 248 329 248 334 244 c 0,15,16
 344 238 344 238 353 217 c 128,-1,17
 362 196 362 196 373 173.5 c 128,-1,18
 384 151 384 151 398 133 c 128,-1,19
 412 115 412 115 430 115 c 0,20,21
 464 115 464 115 502 148.5 c 128,-1,22
 540 182 540 182 579 240 c 128,-1,23
 618 298 618 298 658 375.5 c 128,-1,24
 698 453 698 453 736.5 541 c 128,-1,25
 775 629 775 629 811 723 c 128,-1,26
 847 817 847 817 879.5 907 c 128,-1,27
 912 997 912 997 939.5 1079 c 128,-1,28
 967 1161 967 1161 987.5 1225.5 c 128,-1,29
 1008 1290 1008 1290 1021 1332 c 128,-1,30
 1034 1374 1034 1374 1037 1385 c 0,31,32
 1046 1416 1046 1416 1068.5 1430 c 128,-1,33
 1091 1444 1091 1444 1117 1444 c 0,34,35
 1155 1444 1155 1444 1175 1420.5 c 128,-1,36
 1195 1397 1195 1397 1195 1335 c 0,37,38
 1195 1325 1195 1325 1194.5 1314 c 128,-1,39
 1194 1303 1194 1303 1193 1291 c 0,40,41
 1190 1262 1190 1262 1179.5 1210.5 c 128,-1,42
 1169 1159 1169 1159 1151 1092 c 128,-1,43
 1133 1025 1133 1025 1108 945 c 128,-1,44
 1083 865 1083 865 1052 779 c 1,45,46
 1195 901 1195 901 1305.5 992 c 128,-1,47
 1416 1083 1416 1083 1499.5 1148.5 c 128,-1,48
 1583 1214 1583 1214 1642 1256.5 c 128,-1,49
 1701 1299 1701 1299 1741.5 1323.5 c 128,-1,50
 1782 1348 1782 1348 1806 1358 c 128,-1,51
 1830 1368 1830 1368 1844 1368 c 0,52,53
 1859 1368 1859 1368 1870 1360 c 128,-1,54
 1881 1352 1881 1352 1888.5 1341 c 128,-1,55
 1896 1330 1896 1330 1899.5 1318.5 c 128,-1,56
 1903 1307 1903 1307 1903 1300 c 0,57,58
 1903 1283 1903 1283 1894.5 1267.5 c 128,-1,59
 1886 1252 1886 1252 1869 1241 c 0,60,61
 1799 1192 1799 1192 1722 1133 c 128,-1,62
 1645 1074 1645 1074 1567.5 1011.5 c 128,-1,63
 1490 949 1490 949 1415 886 c 128,-1,64
 1340 823 1340 823 1273.5 767 c 128,-1,65
 1207 711 1207 711 1152.5 666 c 128,-1,66
 1098 621 1098 621 1061 593 c 1,67,68
 1114 522 1114 522 1163.5 458 c 128,-1,69
 1213 394 1213 394 1258.5 333.5 c 128,-1,70
 1304 273 1304 273 1346.5 215 c 128,-1,71
 1389 157 1389 157 1427 98 c 0,72,73
 1440 78 1440 78 1445.5 58.5 c 128,-1,74
 1451 39 1451 39 1451 23 c 0,75,76
 1451 -4 1451 -4 1439 -24 c 128,-1,77
 1427 -44 1427 -44 1410.5 -57 c 128,-1,78
 1394 -70 1394 -70 1376.5 -76.5 c 128,-1,79
 1359 -83 1359 -83 1347 -83 c 0,80,81
 1314 -83 1314 -83 1284.5 -59.5 c 128,-1,82
 1255 -36 1255 -36 1234 0 c 1,83,84
 1203 41 1203 41 1182.5 70 c 128,-1,85
 1162 99 1162 99 1145 124.5 c 128,-1,86
 1128 150 1128 150 1111.5 177 c 128,-1,87
 1095 204 1095 204 1070.5 242.5 c 128,-1,88
 1046 281 1046 281 1010 335 c 128,-1,89
 974 389 974 389 920 469 c 1,90,91
 867 359 867 359 806.5 259 c 128,-1,92
 746 159 746 159 679 83 c 128,-1,93
 612 7 612 7 539 -37.5 c 128,-1,94
 466 -82 466 -82 389 -82 c 0,95,96
 362 -82 362 -82 336.5 -75 c 128,-1,97
 311 -68 311 -68 288 -54 c 1,0,1
EndSplineSet
EndChar

StartChar: L
Encoding: 76 76 47
Width: 1297
GlyphClass: 2
Flags: W
LayerCount: 2
Fore
SplineSet
326 209 m 0,0,1
 326 196 326 196 340 182.5 c 128,-1,2
 354 169 354 169 383.5 157 c 128,-1,3
 413 145 413 145 459.5 137.5 c 128,-1,4
 506 130 506 130 571 129 c 1,5,6
 541 145 541 145 510.5 162.5 c 128,-1,7
 480 180 480 180 452 194.5 c 128,-1,8
 424 209 424 209 401 218.5 c 128,-1,9
 378 228 378 228 362 228 c 0,10,11
 326 228 326 228 326 209 c 0,0,1
1215 1322 m 1,12,13
 1230 1352 1230 1352 1251 1375 c 128,-1,14
 1272 1398 1272 1398 1296 1413 c 128,-1,15
 1320 1428 1320 1428 1345 1435.5 c 128,-1,16
 1370 1443 1370 1443 1392 1443 c 0,17,18
 1424 1443 1424 1443 1446 1426.5 c 128,-1,19
 1468 1410 1468 1410 1468 1378 c 0,20,21
 1468 1353 1468 1353 1455 1324 c 0,22,23
 1399 1204 1399 1204 1341 1082.5 c 128,-1,24
 1283 961 1283 961 1224.5 845 c 128,-1,25
 1166 729 1166 729 1110 621.5 c 128,-1,26
 1054 514 1054 514 1002 422 c 128,-1,27
 950 330 950 330 904.5 257 c 128,-1,28
 859 184 859 184 822 136 c 1,29,30
 909 142 909 142 981 152 c 128,-1,31
 1053 162 1053 162 1120 175 c 128,-1,32
 1187 188 1187 188 1254.5 203.5 c 128,-1,33
 1322 219 1322 219 1400 235 c 0,34,35
 1405 237 1405 237 1411 238 c 128,-1,36
 1417 239 1417 239 1422 239 c 0,37,38
 1453 239 1453 239 1471 214.5 c 128,-1,39
 1489 190 1489 190 1489 159 c 0,40,41
 1489 140 1489 140 1453 118.5 c 128,-1,42
 1417 97 1417 97 1354.5 76 c 128,-1,43
 1292 55 1292 55 1207.5 35.5 c 128,-1,44
 1123 16 1123 16 1025 1.5 c 128,-1,45
 927 -13 927 -13 820 -21.5 c 128,-1,46
 713 -30 713 -30 607 -30 c 0,47,48
 484 -30 484 -30 395 -13 c 128,-1,49
 306 4 306 4 248.5 34 c 128,-1,50
 191 64 191 64 163.5 105 c 128,-1,51
 136 146 136 146 136 194 c 0,52,53
 136 241 136 241 153.5 273.5 c 128,-1,54
 171 306 171 306 201.5 326 c 128,-1,55
 232 346 232 346 273.5 355 c 128,-1,56
 315 364 315 364 363 364 c 0,57,58
 402 364 402 364 444 350 c 128,-1,59
 486 336 486 336 526.5 313.5 c 128,-1,60
 567 291 567 291 603.5 263.5 c 128,-1,61
 640 236 640 236 667 208 c 1,62,63
 690 268 690 268 722.5 342 c 128,-1,64
 755 416 755 416 793 497.5 c 128,-1,65
 831 579 831 579 873 664.5 c 128,-1,66
 915 750 915 750 957 833 c 128,-1,67
 999 916 999 916 1039 993 c 128,-1,68
 1079 1070 1079 1070 1113 1134 c 128,-1,69
 1147 1198 1147 1198 1173.5 1247 c 128,-1,70
 1200 1296 1200 1296 1215 1322 c 1,12,13
EndSplineSet
EndChar

StartChar: M
Encoding: 77 77 48
Width: 1821
GlyphClass: 2
Flags: W
LayerCount: 2
Fore
SplineSet
1485 71 m 1,0,1
 1494 157 1494 157 1507 270 c 128,-1,2
 1520 383 1520 383 1535 506.5 c 128,-1,3
 1550 630 1550 630 1565.5 755 c 128,-1,4
 1581 880 1581 880 1596 989 c 1,5,6
 1543 887 1543 887 1489 784 c 128,-1,7
 1435 681 1435 681 1386.5 588.5 c 128,-1,8
 1338 496 1338 496 1297.5 421 c 128,-1,9
 1257 346 1257 346 1232 300 c 1,10,11
 1209 269 1209 269 1186 241 c 128,-1,12
 1163 213 1163 213 1140.5 192 c 128,-1,13
 1118 171 1118 171 1096 158.5 c 128,-1,14
 1074 146 1074 146 1053 146 c 0,15,16
 1025 146 1025 146 1008.5 158 c 128,-1,17
 992 170 992 170 992 194 c 0,18,19
 992 199 992 199 992.5 203.5 c 128,-1,20
 993 208 993 208 995 213 c 1,21,22
 989 355 989 355 986 499.5 c 128,-1,23
 983 644 983 644 983 784 c 0,24,25
 983 817 983 817 983 850 c 128,-1,26
 983 883 983 883 984 915 c 1,27,28
 944 825 944 825 897 728 c 128,-1,29
 850 631 850 631 799 536.5 c 128,-1,30
 748 442 748 442 694 354.5 c 128,-1,31
 640 267 640 267 586 195.5 c 128,-1,32
 532 124 532 124 479.5 73.5 c 128,-1,33
 427 23 427 23 379 3 c 0,34,35
 337 -14 337 -14 306 -21.5 c 128,-1,36
 275 -29 275 -29 251 -29 c 0,37,38
 215 -29 215 -29 197.5 -14.5 c 128,-1,39
 180 0 180 0 180 21 c 0,40,41
 180 46 180 46 201 73 c 128,-1,42
 222 100 222 100 260 115 c 0,43,44
 306 133 306 133 360.5 194.5 c 128,-1,45
 415 256 415 256 473 344 c 128,-1,46
 531 432 531 432 590 540 c 128,-1,47
 649 648 649 648 704.5 759 c 128,-1,48
 760 870 760 870 809 976.5 c 128,-1,49
 858 1083 858 1083 896 1169 c 128,-1,50
 934 1255 934 1255 958.5 1312.5 c 128,-1,51
 983 1370 983 1370 989 1384 c 0,52,53
 1003 1415 1003 1415 1028 1429 c 128,-1,54
 1053 1443 1053 1443 1079 1443 c 0,55,56
 1115 1443 1115 1443 1129 1423.5 c 128,-1,57
 1143 1404 1143 1404 1143 1354 c 1,58,59
 1151 1291 1151 1291 1156.5 1235.5 c 128,-1,60
 1162 1180 1162 1180 1166 1121.5 c 128,-1,61
 1170 1063 1170 1063 1171.5 995.5 c 128,-1,62
 1173 928 1173 928 1173 840 c 0,63,64
 1173 777 1173 777 1170.5 701 c 128,-1,65
 1168 625 1168 625 1168 531 c 1,66,67
 1288 749 1288 749 1380.5 915.5 c 128,-1,68
 1473 1082 1473 1082 1541.5 1194.5 c 128,-1,69
 1610 1307 1610 1307 1657 1364.5 c 128,-1,70
 1704 1422 1704 1422 1732 1422 c 2,71,-1
 1739 1422 l 2,72,73
 1742 1422 1742 1422 1745 1422.5 c 128,-1,74
 1748 1423 1748 1423 1751 1423 c 0,75,76
 1775 1423 1775 1423 1789 1393 c 128,-1,77
 1803 1363 1803 1363 1803 1315 c 1,78,79
 1799 1266 1799 1266 1791 1193 c 128,-1,80
 1783 1120 1783 1120 1772.5 1032.5 c 128,-1,81
 1762 945 1762 945 1750 848 c 128,-1,82
 1738 751 1738 751 1726 655.5 c 128,-1,83
 1714 560 1714 560 1703.5 470 c 128,-1,84
 1693 380 1693 380 1686 307 c 0,85,86
 1684 294 1684 294 1684 280.5 c 128,-1,87
 1684 267 1684 267 1684 253 c 0,88,89
 1684 227 1684 227 1685 200.5 c 128,-1,90
 1686 174 1686 174 1686 148 c 0,91,92
 1686 118 1686 118 1683 87.5 c 128,-1,93
 1680 57 1680 57 1666.5 32.5 c 128,-1,94
 1653 8 1653 8 1624 -7.5 c 128,-1,95
 1595 -23 1595 -23 1544 -23 c 0,96,97
 1517 -23 1517 -23 1501 -2.5 c 128,-1,98
 1485 18 1485 18 1485 71 c 1,0,1
EndSplineSet
EndChar

StartChar: N
Encoding: 78 78 49
Width: 1527
GlyphClass: 2
Flags: W
LayerCount: 2
Fore
SplineSet
1065 1347 m 1,0,1
 1081 1278 1081 1278 1097 1196 c 128,-1,2
 1113 1114 1113 1114 1128.5 1025.5 c 128,-1,3
 1144 937 1144 937 1159.5 845.5 c 128,-1,4
 1175 754 1175 754 1190.5 665.5 c 128,-1,5
 1206 577 1206 577 1220.5 494.5 c 128,-1,6
 1235 412 1235 412 1250 342 c 1,7,8
 1351 541 1351 541 1444.5 719 c 128,-1,9
 1538 897 1538 897 1619 1038.5 c 128,-1,10
 1700 1180 1700 1180 1766 1279.5 c 128,-1,11
 1832 1379 1832 1379 1880 1422 c 0,12,13
 1901 1442 1901 1442 1924 1450 c 128,-1,14
 1947 1458 1947 1458 1969 1458 c 0,15,16
 2001 1458 2001 1458 2023.5 1442 c 128,-1,17
 2046 1426 2046 1426 2046 1401 c 0,18,19
 2046 1386 2046 1386 2041 1376 c 128,-1,20
 2036 1366 2036 1366 2025 1354 c 0,21,22
 1984 1307 1984 1307 1948 1267.5 c 128,-1,23
 1912 1228 1912 1228 1877.5 1184.5 c 128,-1,24
 1843 1141 1843 1141 1808.5 1087 c 128,-1,25
 1774 1033 1774 1033 1737 958 c 1,26,27
 1692 875 1692 875 1647 787.5 c 128,-1,28
 1602 700 1602 700 1560 613.5 c 128,-1,29
 1518 527 1518 527 1479.5 446 c 128,-1,30
 1441 365 1441 365 1409 296.5 c 128,-1,31
 1377 228 1377 228 1351 174.5 c 128,-1,32
 1325 121 1325 121 1308 91 c 1,33,34
 1279 29 1279 29 1241.5 -1 c 128,-1,35
 1204 -31 1204 -31 1173 -32 c 1,36,-1
 1166 -32 l 1,37,38
 1146 -31 1146 -31 1127 -24 c 128,-1,39
 1108 -17 1108 -17 1092 -3 c 128,-1,40
 1076 11 1076 11 1064.5 32.5 c 128,-1,41
 1053 54 1053 54 1049 83 c 1,42,43
 1033 146 1033 146 1020.5 206.5 c 128,-1,44
 1008 267 1008 267 997 330.5 c 128,-1,45
 986 394 986 394 974.5 463.5 c 128,-1,46
 963 533 963 533 950 615 c 128,-1,47
 937 697 937 697 920.5 794 c 128,-1,48
 904 891 904 891 882 1009 c 1,49,50
 852 909 852 909 809 789.5 c 128,-1,51
 766 670 766 670 714 548.5 c 128,-1,52
 662 427 662 427 602 313.5 c 128,-1,53
 542 200 542 200 476 112 c 128,-1,54
 410 24 410 24 340.5 -29 c 128,-1,55
 271 -82 271 -82 201 -82 c 0,56,57
 189 -82 189 -82 173 -76.5 c 128,-1,58
 157 -71 157 -71 142.5 -60.5 c 128,-1,59
 128 -50 128 -50 118 -35 c 128,-1,60
 108 -20 108 -20 108 -2 c 0,61,62
 108 12 108 12 113.5 23.5 c 128,-1,63
 119 35 119 35 129 51 c 0,64,65
 142 72 142 72 170 87.5 c 128,-1,66
 198 103 198 103 234.5 122 c 128,-1,67
 271 141 271 141 314 166.5 c 128,-1,68
 357 192 357 192 400 234 c 0,69,70
 424 257 424 257 457 316.5 c 128,-1,71
 490 376 490 376 528.5 457.5 c 128,-1,72
 567 539 567 539 608.5 636.5 c 128,-1,73
 650 734 650 734 690 833 c 128,-1,74
 730 932 730 932 766 1026.5 c 128,-1,75
 802 1121 802 1121 830.5 1196.5 c 128,-1,76
 859 1272 859 1272 877 1322.5 c 128,-1,77
 895 1373 895 1373 899 1384 c 0,78,79
 909 1414 909 1414 931.5 1428 c 128,-1,80
 954 1442 954 1442 980 1443 c 1,81,82
 979 1443 979 1443 978 1442 c 1,83,84
 981 1442 981 1442 984.5 1442.5 c 128,-1,85
 988 1443 988 1443 991 1443 c 0,86,87
 1013 1443 1013 1443 1034.5 1421.5 c 128,-1,88
 1056 1400 1056 1400 1065 1347 c 1,0,1
EndSplineSet
EndChar

StartChar: O
Encoding: 79 79 50
Width: 1341
GlyphClass: 2
Flags: W
LayerCount: 2
Fore
SplineSet
235 459 m 0,0,1
 235 605 235 605 278.5 734.5 c 128,-1,2
 322 864 322 864 395.5 973.5 c 128,-1,3
 469 1083 469 1083 565.5 1170 c 128,-1,4
 662 1257 662 1257 767.5 1317.5 c 128,-1,5
 873 1378 873 1378 981.5 1410.5 c 128,-1,6
 1090 1443 1090 1443 1188 1443 c 0,7,8
 1275 1443 1275 1443 1353.5 1423 c 128,-1,9
 1432 1403 1432 1403 1493.5 1362 c 128,-1,10
 1555 1321 1555 1321 1596 1258.5 c 128,-1,11
 1637 1196 1637 1196 1651 1112 c 0,12,13
 1652 1107 1652 1107 1652 1103 c 128,-1,14
 1652 1099 1652 1099 1652 1094 c 0,15,16
 1652 1055 1652 1055 1629.5 1034.5 c 128,-1,17
 1607 1014 1607 1014 1581 1014 c 0,18,19
 1552 1014 1552 1014 1527 1045 c 128,-1,20
 1502 1076 1502 1076 1479 1133 c 1,21,22
 1442 1203 1442 1203 1372 1235 c 128,-1,23
 1302 1267 1302 1267 1214 1267 c 0,24,25
 1137 1267 1137 1267 1052.5 1239 c 128,-1,26
 968 1211 968 1211 885.5 1160 c 128,-1,27
 803 1109 803 1109 728 1037.5 c 128,-1,28
 653 966 653 966 596 879.5 c 128,-1,29
 539 793 539 793 505.5 693 c 128,-1,30
 472 593 472 593 472 486 c 0,31,32
 472 397 472 397 494 336 c 128,-1,33
 516 275 516 275 552 237 c 128,-1,34
 588 199 588 199 633 182 c 128,-1,35
 678 165 678 165 724 165 c 0,36,37
 827 165 827 165 920.5 221 c 128,-1,38
 1014 277 1014 277 1085 381.5 c 128,-1,39
 1156 486 1156 486 1198 636.5 c 128,-1,40
 1240 787 1240 787 1240 976 c 0,41,42
 1240 995 1240 995 1239.5 1013.5 c 128,-1,43
 1239 1032 1239 1032 1239 1052 c 0,44,45
 1239 1102 1239 1102 1257 1125.5 c 128,-1,46
 1275 1149 1275 1149 1298 1149 c 0,47,48
 1337 1149 1337 1149 1361.5 1127.5 c 128,-1,49
 1386 1106 1386 1106 1400 1070.5 c 128,-1,50
 1414 1035 1414 1035 1419.5 989.5 c 128,-1,51
 1425 944 1425 944 1425 896 c 0,52,53
 1425 760 1425 760 1396 639.5 c 128,-1,54
 1367 519 1367 519 1315.5 416.5 c 128,-1,55
 1264 314 1264 314 1193.5 232.5 c 128,-1,56
 1123 151 1123 151 1041 94.5 c 128,-1,57
 959 38 959 38 868.5 7.5 c 128,-1,58
 778 -23 778 -23 686 -23 c 0,59,60
 601 -23 601 -23 520 1.5 c 128,-1,61
 439 26 439 26 375.5 82.5 c 128,-1,62
 312 139 312 139 273.5 231.5 c 128,-1,63
 235 324 235 324 235 459 c 0,0,1
EndSplineSet
EndChar

StartChar: P
Encoding: 80 80 51
Width: 1191
GlyphClass: 2
Flags: W
LayerCount: 2
Fore
SplineSet
763 537 m 1,0,1
 744 495 744 495 721 436 c 128,-1,2
 698 377 698 377 671 313 c 128,-1,3
 644 249 644 249 613.5 186 c 128,-1,4
 583 123 583 123 549.5 73.5 c 128,-1,5
 516 24 516 24 480.5 -7 c 128,-1,6
 445 -38 445 -38 408 -38 c 0,7,8
 377 -38 377 -38 357 -28.5 c 128,-1,9
 337 -19 337 -19 326 -4.5 c 128,-1,10
 315 10 315 10 310.5 27.5 c 128,-1,11
 306 45 306 45 306 61 c 0,12,13
 306 85 306 85 313.5 110 c 128,-1,14
 321 135 321 135 332 156 c 2,15,-1
 715 861 l 2,16,17
 740 905 740 905 762.5 930 c 128,-1,18
 785 955 785 955 804.5 967 c 128,-1,19
 824 979 824 979 839 981.5 c 128,-1,20
 854 984 854 984 864 984 c 0,21,22
 882 984 882 984 897 971.5 c 128,-1,23
 912 959 912 959 912 926 c 0,24,25
 912 894 912 894 895 838 c 128,-1,26
 878 782 878 782 832 694 c 1,27,28
 910 700 910 700 986 720.5 c 128,-1,29
 1062 741 1062 741 1122.5 777 c 128,-1,30
 1183 813 1183 813 1220 864.5 c 128,-1,31
 1257 916 1257 916 1257 984 c 0,32,33
 1257 1044 1257 1044 1237.5 1098.5 c 128,-1,34
 1218 1153 1218 1153 1180.5 1194.5 c 128,-1,35
 1143 1236 1143 1236 1088 1260.5 c 128,-1,36
 1033 1285 1033 1285 961 1285 c 0,37,38
 863 1285 863 1285 792.5 1266.5 c 128,-1,39
 722 1248 722 1248 671.5 1218 c 128,-1,40
 621 1188 621 1188 587 1149 c 128,-1,41
 553 1110 553 1110 528.5 1070 c 128,-1,42
 504 1030 504 1030 485 991 c 128,-1,43
 466 952 466 952 445.5 922 c 128,-1,44
 425 892 425 892 399 873.5 c 128,-1,45
 373 855 373 855 335 855 c 0,46,47
 286 855 286 855 262.5 880 c 128,-1,48
 239 905 239 905 239 951 c 128,-1,49
 239 997 239 997 264 1051.5 c 128,-1,50
 289 1106 289 1106 335 1161 c 128,-1,51
 381 1216 381 1216 446.5 1266.5 c 128,-1,52
 512 1317 512 1317 594 1356 c 128,-1,53
 676 1395 676 1395 772.5 1418.5 c 128,-1,54
 869 1442 869 1442 976 1442 c 0,55,56
 1076 1442 1076 1442 1168.5 1413.5 c 128,-1,57
 1261 1385 1261 1385 1332 1328 c 128,-1,58
 1403 1271 1403 1271 1445.5 1185.5 c 128,-1,59
 1488 1100 1488 1100 1488 985 c 0,60,61
 1488 880 1488 880 1437.5 795.5 c 128,-1,62
 1387 711 1387 711 1301.5 652.5 c 128,-1,63
 1216 594 1216 594 1104 562.5 c 128,-1,64
 992 531 992 531 868 531 c 0,65,66
 842 531 842 531 815.5 532 c 128,-1,67
 789 533 789 533 763 537 c 1,0,1
EndSplineSet
EndChar

StartChar: Q
Encoding: 81 81 52
Width: 1315
GlyphClass: 2
Flags: W
LayerCount: 2
Fore
SplineSet
210 459 m 0,0,1
 210 605 210 605 253.5 734.5 c 128,-1,2
 297 864 297 864 370.5 973.5 c 128,-1,3
 444 1083 444 1083 540.5 1170 c 128,-1,4
 637 1257 637 1257 742.5 1317.5 c 128,-1,5
 848 1378 848 1378 956.5 1410.5 c 128,-1,6
 1065 1443 1065 1443 1163 1443 c 0,7,8
 1250 1443 1250 1443 1328.5 1423 c 128,-1,9
 1407 1403 1407 1403 1468.5 1362 c 128,-1,10
 1530 1321 1530 1321 1571 1258.5 c 128,-1,11
 1612 1196 1612 1196 1626 1112 c 0,12,13
 1627 1107 1627 1107 1627 1103 c 128,-1,14
 1627 1099 1627 1099 1627 1094 c 0,15,16
 1627 1055 1627 1055 1604.5 1034.5 c 128,-1,17
 1582 1014 1582 1014 1556 1014 c 0,18,19
 1527 1014 1527 1014 1502 1045 c 128,-1,20
 1477 1076 1477 1076 1454 1133 c 1,21,22
 1417 1203 1417 1203 1347 1235 c 128,-1,23
 1277 1267 1277 1267 1189 1267 c 0,24,25
 1112 1267 1112 1267 1027.5 1239 c 128,-1,26
 943 1211 943 1211 860.5 1160 c 128,-1,27
 778 1109 778 1109 703 1037.5 c 128,-1,28
 628 966 628 966 571 879.5 c 128,-1,29
 514 793 514 793 480.5 693 c 128,-1,30
 447 593 447 593 447 486 c 0,31,32
 447 397 447 397 469 336 c 128,-1,33
 491 275 491 275 527 237 c 128,-1,34
 563 199 563 199 608 182 c 128,-1,35
 653 165 653 165 699 165 c 2,36,-1
 704 165 l 1,37,38
 701 176 701 176 699.5 187.5 c 128,-1,39
 698 199 698 199 698 209 c 0,40,41
 698 231 698 231 705.5 247.5 c 128,-1,42
 713 264 713 264 725.5 275.5 c 128,-1,43
 738 287 738 287 754.5 293 c 128,-1,44
 771 299 771 299 788 299 c 0,45,46
 819 299 819 299 847.5 279.5 c 128,-1,47
 876 260 876 260 889 220 c 1,48,49
 979 280 979 280 1041.5 357.5 c 128,-1,50
 1104 435 1104 435 1142 535 c 128,-1,51
 1180 635 1180 635 1197 760.5 c 128,-1,52
 1214 886 1214 886 1214 1042 c 0,53,54
 1214 1097 1214 1097 1238 1123 c 128,-1,55
 1262 1149 1262 1149 1293 1149 c 0,56,57
 1326 1149 1326 1149 1346.5 1127.5 c 128,-1,58
 1367 1106 1367 1106 1379 1070.5 c 128,-1,59
 1391 1035 1391 1035 1395.5 989.5 c 128,-1,60
 1400 944 1400 944 1400 896 c 0,61,62
 1400 740 1400 740 1362 604 c 128,-1,63
 1324 468 1324 468 1258 358 c 128,-1,64
 1192 248 1192 248 1104 166 c 128,-1,65
 1016 84 1016 84 916 37 c 1,66,67
 933 -43 933 -43 960.5 -97 c 128,-1,68
 988 -151 988 -151 1022 -184 c 128,-1,69
 1056 -217 1056 -217 1094.5 -231 c 128,-1,70
 1133 -245 1133 -245 1174 -245 c 0,71,72
 1208 -245 1208 -245 1243 -237.5 c 128,-1,73
 1278 -230 1278 -230 1308.5 -218 c 128,-1,74
 1339 -206 1339 -206 1363.5 -191.5 c 128,-1,75
 1388 -177 1388 -177 1402 -163 c 1,76,77
 1408 -160 1408 -160 1412.5 -157.5 c 128,-1,78
 1417 -155 1417 -155 1423 -155 c 0,79,80
 1439 -155 1439 -155 1451.5 -170 c 128,-1,81
 1464 -185 1464 -185 1464 -208 c 0,82,83
 1464 -228 1464 -228 1453 -250.5 c 128,-1,84
 1442 -273 1442 -273 1416 -297 c 1,85,86
 1358 -363 1358 -363 1292 -395 c 128,-1,87
 1226 -427 1226 -427 1158 -427 c 0,88,89
 1096 -427 1096 -427 1036 -401 c 128,-1,90
 976 -375 976 -375 922.5 -323.5 c 128,-1,91
 869 -272 869 -272 824 -195 c 128,-1,92
 779 -118 779 -118 747 -16 c 1,93,94
 725 -19 725 -19 704 -21 c 128,-1,95
 683 -23 683 -23 661 -23 c 0,96,97
 576 -23 576 -23 495 1.5 c 128,-1,98
 414 26 414 26 350.5 82.5 c 128,-1,99
 287 139 287 139 248.5 231.5 c 128,-1,100
 210 324 210 324 210 459 c 0,0,1
EndSplineSet
EndChar

StartChar: R
Encoding: 82 82 53
Width: 1219
GlyphClass: 2
Flags: W
LayerCount: 2
Fore
SplineSet
707 651 m 1,0,1
 713 650 713 650 719.5 650 c 128,-1,2
 726 650 726 650 733 650 c 0,3,4
 820 650 820 650 897.5 687.5 c 128,-1,5
 975 725 975 725 1033 783 c 128,-1,6
 1091 841 1091 841 1124.5 912 c 128,-1,7
 1158 983 1158 983 1158 1050 c 0,8,9
 1158 1098 1158 1098 1140.5 1141 c 128,-1,10
 1123 1184 1123 1184 1085.5 1216 c 128,-1,11
 1048 1248 1048 1248 989.5 1267 c 128,-1,12
 931 1286 931 1286 850 1286 c 0,13,14
 759 1286 759 1286 693.5 1269 c 128,-1,15
 628 1252 628 1252 580.5 1225 c 128,-1,16
 533 1198 533 1198 500.5 1163 c 128,-1,17
 468 1128 468 1128 444.5 1091 c 128,-1,18
 421 1054 421 1054 402 1019 c 128,-1,19
 383 984 383 984 362.5 957 c 128,-1,20
 342 930 342 930 317 913 c 128,-1,21
 292 896 292 896 255 896 c 0,22,23
 205 896 205 896 180 921.5 c 128,-1,24
 155 947 155 947 155 993 c 0,25,26
 155 1036 155 1036 178.5 1086 c 128,-1,27
 202 1136 202 1136 245.5 1186 c 128,-1,28
 289 1236 289 1236 352 1282.5 c 128,-1,29
 415 1329 415 1329 493.5 1364.5 c 128,-1,30
 572 1400 572 1400 665 1421.5 c 128,-1,31
 758 1443 758 1443 862 1443 c 0,32,33
 964 1443 964 1443 1057.5 1417 c 128,-1,34
 1151 1391 1151 1391 1223 1339.5 c 128,-1,35
 1295 1288 1295 1288 1337.5 1210 c 128,-1,36
 1380 1132 1380 1132 1380 1028 c 0,37,38
 1380 958 1380 958 1354.5 894.5 c 128,-1,39
 1329 831 1329 831 1286 775.5 c 128,-1,40
 1243 720 1243 720 1185.5 673.5 c 128,-1,41
 1128 627 1128 627 1063 591 c 128,-1,42
 998 555 998 555 929.5 530 c 128,-1,43
 861 505 861 505 797 494 c 1,44,45
 806 447 806 447 826.5 388.5 c 128,-1,46
 847 330 847 330 876.5 277.5 c 128,-1,47
 906 225 906 225 942 188 c 128,-1,48
 978 151 978 151 1018 148 c 0,49,50
 1026 147 1026 147 1033 147 c 128,-1,51
 1040 147 1040 147 1047 147 c 0,52,53
 1120 147 1120 147 1177 171 c 128,-1,54
 1234 195 1234 195 1272 224 c 0,55,56
 1317 257 1317 257 1350 301 c 1,57,58
 1381 336 1381 336 1413 336 c 0,59,60
 1433 336 1433 336 1447 322 c 128,-1,61
 1461 308 1461 308 1461 284 c 0,62,63
 1461 261 1461 261 1446.5 230.5 c 128,-1,64
 1432 200 1432 200 1397 167 c 0,65,66
 1294 70 1294 70 1195.5 25.5 c 128,-1,67
 1097 -19 1097 -19 1009 -19 c 0,68,69
 937 -19 937 -19 876 22 c 128,-1,70
 815 63 815 63 765 133 c 128,-1,71
 715 203 715 203 674 296.5 c 128,-1,72
 633 390 633 390 601 494 c 1,73,74
 583 453 583 453 564 397.5 c 128,-1,75
 545 342 545 342 523 283 c 128,-1,76
 501 224 501 224 477 166.5 c 128,-1,77
 453 109 453 109 424 63.5 c 128,-1,78
 395 18 395 18 362 -10 c 128,-1,79
 329 -38 329 -38 290 -38 c 0,80,81
 258 -38 258 -38 238 -28 c 128,-1,82
 218 -18 218 -18 207 -3 c 128,-1,83
 196 12 196 12 191.5 30 c 128,-1,84
 187 48 187 48 187 64 c 0,85,86
 187 87 187 87 193 111 c 128,-1,87
 199 135 199 135 210 156 c 2,88,-1
 505 696 l 2,89,90
 543 764 543 764 581.5 827.5 c 128,-1,91
 620 891 620 891 656.5 940 c 128,-1,92
 693 989 693 989 725.5 1018.5 c 128,-1,93
 758 1048 758 1048 784 1048 c 0,94,95
 791 1048 791 1048 801 1045.5 c 128,-1,96
 811 1043 811 1043 819 1036.5 c 128,-1,97
 827 1030 827 1030 833 1017.5 c 128,-1,98
 839 1005 839 1005 839 986 c 128,-1,99
 839 967 839 967 828 933 c 128,-1,100
 817 899 817 899 799 855 c 128,-1,101
 781 811 781 811 757 758.5 c 128,-1,102
 733 706 733 706 707 651 c 1,0,1
EndSplineSet
EndChar

StartChar: S
Encoding: 83 83 54
Width: 1196
GlyphClass: 2
Flags: W
LayerCount: 2
Fore
SplineSet
535 557 m 1,0,1
 564 557 564 557 577.5 533.5 c 128,-1,2
 591 510 591 510 591 480 c 0,3,4
 591 465 591 465 588 454 c 128,-1,5
 585 443 585 443 576 433.5 c 128,-1,6
 567 424 567 424 552 415.5 c 128,-1,7
 537 407 537 407 513 397 c 0,8,9
 457 373 457 373 425 339.5 c 128,-1,10
 393 306 393 306 393 273 c 0,11,12
 393 252 393 252 407 233 c 128,-1,13
 421 214 421 214 451 199.5 c 128,-1,14
 481 185 481 185 528.5 176.5 c 128,-1,15
 576 168 576 168 643 168 c 0,16,17
 712 168 712 168 774 184.5 c 128,-1,18
 836 201 836 201 882.5 231 c 128,-1,19
 929 261 929 261 956.5 302 c 128,-1,20
 984 343 984 343 984 391 c 0,21,22
 984 427 984 427 954 466 c 128,-1,23
 924 505 924 505 859 547 c 0,24,25
 744 622 744 622 684.5 668 c 128,-1,26
 625 714 625 714 611 726 c 0,27,28
 536 792 536 792 499 853 c 128,-1,29
 462 914 462 914 462 980 c 0,30,31
 462 1041 462 1041 491.5 1099 c 128,-1,32
 521 1157 521 1157 571 1208 c 128,-1,33
 621 1259 621 1259 686.5 1302.5 c 128,-1,34
 752 1346 752 1346 823.5 1377 c 128,-1,35
 895 1408 895 1408 967.5 1425.5 c 128,-1,36
 1040 1443 1040 1443 1105 1443 c 0,37,38
 1154 1443 1154 1443 1195.5 1432 c 128,-1,39
 1237 1421 1237 1421 1268 1397.5 c 128,-1,40
 1299 1374 1299 1374 1316.5 1337 c 128,-1,41
 1334 1300 1334 1300 1334 1248 c 0,42,43
 1334 1173 1334 1173 1291 1105 c 128,-1,44
 1248 1037 1248 1037 1160 978 c 0,45,46
 1121 951 1121 951 1088 951 c 0,47,48
 1054 951 1054 951 1034 975.5 c 128,-1,49
 1014 1000 1014 1000 1014 1033 c 0,50,51
 1014 1061 1014 1061 1030.5 1089 c 128,-1,52
 1047 1117 1047 1117 1084 1137 c 0,53,54
 1113 1152 1113 1152 1135.5 1177.5 c 128,-1,55
 1158 1203 1158 1203 1158 1227 c 0,56,57
 1158 1250 1158 1250 1142.5 1257 c 128,-1,58
 1127 1264 1127 1264 1105 1264 c 0,59,60
 1063 1264 1063 1264 1013.5 1253.5 c 128,-1,61
 964 1243 964 1243 914.5 1225 c 128,-1,62
 865 1207 865 1207 818.5 1182 c 128,-1,63
 772 1157 772 1157 736.5 1128 c 128,-1,64
 701 1099 701 1099 679.5 1066.5 c 128,-1,65
 658 1034 658 1034 658 1002 c 0,66,67
 658 980 658 980 667 961 c 128,-1,68
 676 942 676 942 693.5 923 c 128,-1,69
 711 904 711 904 736 883.5 c 128,-1,70
 761 863 761 863 794 839 c 2,71,-1
 1028 666 l 2,72,73
 1073 633 1073 633 1108.5 601.5 c 128,-1,74
 1144 570 1144 570 1168 538.5 c 128,-1,75
 1192 507 1192 507 1205 475 c 128,-1,76
 1218 443 1218 443 1218 407 c 0,77,78
 1218 327 1218 327 1176.5 250.5 c 128,-1,79
 1135 174 1135 174 1058.5 114 c 128,-1,80
 982 54 982 54 874.5 17 c 128,-1,81
 767 -20 767 -20 636 -20 c 0,82,83
 514 -20 514 -20 428.5 -0.5 c 128,-1,84
 343 19 343 19 288 52.5 c 128,-1,85
 233 86 233 86 208 129.5 c 128,-1,86
 183 173 183 173 183 221 c 0,87,88
 183 271 183 271 208.5 322.5 c 128,-1,89
 234 374 234 374 280.5 420 c 128,-1,90
 327 466 327 466 392 502 c 128,-1,91
 457 538 457 538 535 557 c 1,0,1
EndSplineSet
EndChar

StartChar: T
Encoding: 84 84 55
Width: 1015
GlyphClass: 2
Flags: W
LayerCount: 2
Fore
SplineSet
529 47 m 1,0,1
 514 17 514 17 493 -6 c 128,-1,2
 472 -29 472 -29 448 -44 c 128,-1,3
 424 -59 424 -59 399 -66.5 c 128,-1,4
 374 -74 374 -74 352 -74 c 0,5,6
 320 -74 320 -74 298 -57.5 c 128,-1,7
 276 -41 276 -41 276 -9 c 0,8,9
 276 2 276 2 278.5 15.5 c 128,-1,10
 281 29 281 29 289 45 c 0,11,12
 365 202 365 202 440.5 347 c 128,-1,13
 516 492 516 492 586.5 618 c 128,-1,14
 657 744 657 744 720 847.5 c 128,-1,15
 783 951 783 951 834.5 1024.5 c 128,-1,16
 886 1098 886 1098 922.5 1138 c 128,-1,17
 959 1178 959 1178 976 1178 c 0,18,19
 1011 1178 1011 1178 1028 1158 c 128,-1,20
 1045 1138 1045 1138 1045 1111 c 0,21,22
 1045 1089 1045 1089 1034 1067 c 0,23,24
 1009 1016 1009 1016 977.5 951.5 c 128,-1,25
 946 887 946 887 911 814.5 c 128,-1,26
 876 742 876 742 838 664.5 c 128,-1,27
 800 587 800 587 763 510.5 c 128,-1,28
 726 434 726 434 690.5 362.5 c 128,-1,29
 655 291 655 291 624.5 230 c 128,-1,30
 594 169 594 169 569.5 121.5 c 128,-1,31
 545 74 545 74 529 47 c 1,0,1
1698 1217 m 0,32,33
 1698 1199 1698 1199 1684.5 1166.5 c 128,-1,34
 1671 1134 1671 1134 1646.5 1103 c 128,-1,35
 1622 1072 1622 1072 1587.5 1049 c 128,-1,36
 1553 1026 1553 1026 1511 1026 c 0,37,38
 1501 1026 1501 1026 1486 1027.5 c 128,-1,39
 1471 1029 1471 1029 1456.5 1035 c 128,-1,40
 1442 1041 1442 1041 1432 1052 c 128,-1,41
 1422 1063 1422 1063 1422 1081 c 0,42,43
 1422 1090 1422 1090 1431 1106.5 c 128,-1,44
 1440 1123 1440 1123 1450.5 1142 c 128,-1,45
 1461 1161 1461 1161 1470 1179 c 128,-1,46
 1479 1197 1479 1197 1479 1209 c 0,47,48
 1479 1243 1479 1243 1431 1258.5 c 128,-1,49
 1383 1274 1383 1274 1270 1274 c 1,50,51
 1157 1270 1157 1270 1066 1260.5 c 128,-1,52
 975 1251 975 1251 898 1236.5 c 128,-1,53
 821 1222 821 1222 754 1203 c 128,-1,54
 687 1184 687 1184 622 1162.5 c 128,-1,55
 557 1141 557 1141 490.5 1116.5 c 128,-1,56
 424 1092 424 1092 349 1067 c 0,57,58
 342 1065 342 1065 335.5 1063 c 128,-1,59
 329 1061 329 1061 324 1061 c 0,60,61
 308 1061 308 1061 295 1068 c 128,-1,62
 282 1075 282 1075 272.5 1087 c 128,-1,63
 263 1099 263 1099 257.5 1114 c 128,-1,64
 252 1129 252 1129 252 1145 c 0,65,66
 252 1171 252 1171 294 1203.5 c 128,-1,67
 336 1236 336 1236 409 1269 c 128,-1,68
 482 1302 482 1302 581 1333.5 c 128,-1,69
 680 1365 680 1365 794.5 1389.5 c 128,-1,70
 909 1414 909 1414 1033.5 1428.5 c 128,-1,71
 1158 1443 1158 1443 1282 1443 c 0,72,73
 1389 1443 1389 1443 1467 1426 c 128,-1,74
 1545 1409 1545 1409 1596 1379 c 128,-1,75
 1647 1349 1647 1349 1672 1307.5 c 128,-1,76
 1697 1266 1697 1266 1698 1217 c 0,32,33
EndSplineSet
EndChar

StartChar: U
Encoding: 85 85 56
Width: 1195
GlyphClass: 2
Flags: W
LayerCount: 2
Fore
SplineSet
575 1355 m 0,0,1
 601 1407 601 1407 633.5 1425 c 128,-1,2
 666 1443 666 1443 697 1443 c 0,3,4
 714 1443 714 1443 729.5 1439.5 c 128,-1,5
 745 1436 745 1436 757 1427.5 c 128,-1,6
 769 1419 769 1419 776 1404.5 c 128,-1,7
 783 1390 783 1390 783 1369 c 0,8,9
 783 1343 783 1343 772 1309 c 128,-1,10
 761 1275 761 1275 736 1227 c 1,11,12
 636 1050 636 1050 568 854 c 128,-1,13
 500 658 500 658 459 462 c 1,14,15
 455 437 455 437 454 414 c 128,-1,16
 453 391 453 391 453 370 c 0,17,18
 453 311 453 311 468 270 c 128,-1,19
 483 229 483 229 507.5 204 c 128,-1,20
 532 179 532 179 562 168 c 128,-1,21
 592 157 592 157 622 157 c 0,22,23
 735 157 735 157 839 238 c 128,-1,24
 943 319 943 319 1024.5 467.5 c 128,-1,25
 1106 616 1106 616 1157.5 824.5 c 128,-1,26
 1209 1033 1209 1033 1217 1289 c 0,27,28
 1218 1316 1218 1316 1227 1336.5 c 128,-1,29
 1236 1357 1236 1357 1250 1370 c 128,-1,30
 1264 1383 1264 1383 1282.5 1389.5 c 128,-1,31
 1301 1396 1301 1396 1320 1396 c 0,32,33
 1344 1396 1344 1396 1359.5 1378.5 c 128,-1,34
 1375 1361 1375 1361 1384 1332 c 128,-1,35
 1393 1303 1393 1303 1396.5 1264.5 c 128,-1,36
 1400 1226 1400 1226 1400 1184 c 0,37,38
 1400 1007 1400 1007 1367.5 848.5 c 128,-1,39
 1335 690 1335 690 1278 555.5 c 128,-1,40
 1221 421 1221 421 1143.5 313.5 c 128,-1,41
 1066 206 1066 206 975 130.5 c 128,-1,42
 884 55 884 55 784.5 14.5 c 128,-1,43
 685 -26 685 -26 585 -26 c 0,44,45
 523 -26 523 -26 460.5 0 c 128,-1,46
 398 26 398 26 348 76 c 128,-1,47
 298 126 298 126 267 198 c 128,-1,48
 236 270 236 270 236 362 c 0,49,50
 236 379 236 379 237 397.5 c 128,-1,51
 238 416 238 416 241 435 c 0,52,53
 254 512 254 512 269.5 581.5 c 128,-1,54
 285 651 285 651 305 718.5 c 128,-1,55
 325 786 325 786 350 855 c 128,-1,56
 375 924 375 924 407.5 1000.5 c 128,-1,57
 440 1077 440 1077 481.5 1164 c 128,-1,58
 523 1251 523 1251 575 1355 c 0,0,1
EndSplineSet
EndChar

StartChar: V
Encoding: 86 86 57
Width: 968
GlyphClass: 2
Flags: W
LayerCount: 2
Fore
SplineSet
1261 1219 m 0,0,1
 1259 1199 1259 1199 1241.5 1155 c 128,-1,2
 1224 1111 1224 1111 1196.5 1050.5 c 128,-1,3
 1169 990 1169 990 1132 917 c 128,-1,4
 1095 844 1095 844 1053 766 c 128,-1,5
 1011 688 1011 688 966 608 c 128,-1,6
 921 528 921 528 876 454 c 0,7,8
 801 330 801 330 730.5 228 c 128,-1,9
 660 126 660 126 602 57 c 1,10,11
 610 42 610 42 610 27 c 0,12,13
 610 4 610 4 590.5 -14 c 128,-1,14
 571 -32 571 -32 539.5 -44 c 128,-1,15
 508 -56 508 -56 468 -62.5 c 128,-1,16
 428 -69 428 -69 386 -69 c 0,17,18
 354 -69 354 -69 337.5 -54.5 c 128,-1,19
 321 -40 321 -40 321 -17 c 0,20,21
 321 11 321 11 334.5 29 c 128,-1,22
 348 47 348 47 367 55 c 1,23,24
 364 76 364 76 357 118 c 128,-1,25
 350 160 350 160 342 215 c 128,-1,26
 334 270 334 270 325 334 c 128,-1,27
 316 398 316 398 308 463 c 128,-1,28
 300 528 300 528 293 590.5 c 128,-1,29
 286 653 286 653 283 704 c 0,30,31
 278 776 278 776 275 840 c 128,-1,32
 272 904 272 904 272 961 c 0,33,34
 272 1015 272 1015 275 1060.5 c 128,-1,35
 278 1106 278 1106 283 1141 c 0,36,37
 289 1177 289 1177 307.5 1210.5 c 128,-1,38
 326 1244 326 1244 351.5 1270.5 c 128,-1,39
 377 1297 377 1297 407 1312.5 c 128,-1,40
 437 1328 437 1328 466 1328 c 0,41,42
 499 1328 499 1328 512.5 1300.5 c 128,-1,43
 526 1273 526 1273 526 1223 c 0,44,45
 526 1191 526 1191 521 1150.5 c 128,-1,46
 516 1110 516 1110 510 1074 c 0,47,48
 504 1036 504 1036 500 1012 c 1,49,-1
 495 989 l 2,50,51
 492 971 492 971 491 946.5 c 128,-1,52
 490 922 490 922 490 891 c 0,53,54
 490 827 490 827 495 744 c 128,-1,55
 500 661 500 661 508 574.5 c 128,-1,56
 516 488 516 488 526.5 406 c 128,-1,57
 537 324 537 324 548 262 c 1,58,59
 617 352 617 352 688 464.5 c 128,-1,60
 759 577 759 577 819 699 c 1,61,62
 870 800 870 800 919.5 906 c 128,-1,63
 969 1012 969 1012 1020 1113 c 1,64,65
 1112 1282 1112 1282 1188 1282 c 0,66,67
 1220 1282 1220 1282 1241 1272 c 128,-1,68
 1262 1262 1262 1262 1262 1233 c 0,69,70
 1262 1224 1262 1224 1261 1219 c 0,0,1
EndSplineSet
EndChar

StartChar: W
Encoding: 87 87 58
Width: 1372
GlyphClass: 2
Flags: W
LayerCount: 2
Fore
SplineSet
1643 1191 m 0,0,1
 1595 923 1595 923 1372 487 c 1,2,3
 1311 363 1311 363 1263 269 c 128,-1,4
 1215 175 1215 175 1171 111.5 c 128,-1,5
 1127 48 1127 48 1082.5 16 c 128,-1,6
 1038 -16 1038 -16 984 -16 c 0,7,8
 947 -16 947 -16 921 2 c 128,-1,9
 895 20 895 20 876 71.5 c 128,-1,10
 857 123 857 123 844 216 c 128,-1,11
 831 309 831 309 821 460 c 1,12,-1
 598 133 l 2,13,14
 568 89 568 89 541.5 58.5 c 128,-1,15
 515 28 515 28 489.5 9.5 c 128,-1,16
 464 -9 464 -9 437 -17 c 128,-1,17
 410 -25 410 -25 380 -25 c 0,18,19
 337 -25 337 -25 308.5 0 c 128,-1,20
 280 25 280 25 280 73 c 0,21,22
 280 144 280 144 280.5 229.5 c 128,-1,23
 281 315 281 315 285 420.5 c 128,-1,24
 289 526 289 526 297.5 653.5 c 128,-1,25
 306 781 306 781 322 937 c 1,26,27
 287 896 287 896 263 878 c 128,-1,28
 239 860 239 860 224 860 c 0,29,30
 211 860 211 860 205 871 c 128,-1,31
 199 882 199 882 199 901 c 0,32,33
 199 934 199 934 216 985 c 128,-1,34
 233 1036 233 1036 265 1094 c 128,-1,35
 297 1152 297 1152 344.5 1209.5 c 128,-1,36
 392 1267 392 1267 454 1312 c 0,37,38
 466 1320 466 1320 481 1320 c 0,39,40
 499 1320 499 1320 515.5 1307 c 128,-1,41
 532 1294 532 1294 544.5 1273 c 128,-1,42
 557 1252 557 1252 564.5 1226 c 128,-1,43
 572 1200 572 1200 572 1175 c 0,44,45
 572 1151 572 1151 569 1135 c 0,46,47
 564 1113 564 1113 559.5 1096 c 128,-1,48
 555 1079 555 1079 550 1055 c 128,-1,49
 545 1031 545 1031 539 992.5 c 128,-1,50
 533 954 533 954 525 889 c 0,51,52
 515 807 515 807 509.5 724 c 128,-1,53
 504 641 504 641 500 556.5 c 128,-1,54
 496 472 496 472 492.5 386 c 128,-1,55
 489 300 489 300 485 212 c 1,56,57
 507 239 507 239 536 281.5 c 128,-1,58
 565 324 565 324 596 371.5 c 128,-1,59
 627 419 627 419 657 467 c 128,-1,60
 687 515 687 515 711 554 c 1,61,62
 736 592 736 592 750 616 c 2,63,-1
 764 641 l 1,64,65
 801 735 801 735 839 826 c 128,-1,66
 877 917 877 917 914 1007 c 0,67,68
 950 1095 950 1095 990 1143 c 128,-1,69
 1030 1191 1030 1191 1077 1191 c 0,70,71
 1115 1191 1115 1191 1138 1177.5 c 128,-1,72
 1161 1164 1161 1164 1161 1143 c 0,73,74
 1161 1108 1161 1108 1143.5 1060.5 c 128,-1,75
 1126 1013 1126 1013 1103 959 c 128,-1,76
 1080 905 1080 905 1057.5 848 c 128,-1,77
 1035 791 1035 791 1024 739 c 1,78,79
 1019 652 1019 652 1016 591 c 128,-1,80
 1013 530 1013 530 1013 479 c 0,81,82
 1013 416 1013 416 1014 347 c 128,-1,83
 1015 278 1015 278 1023 215 c 1,84,85
 1063 273 1063 273 1106.5 340.5 c 128,-1,86
 1150 408 1150 408 1193 480 c 128,-1,87
 1236 552 1236 552 1276 627.5 c 128,-1,88
 1316 703 1316 703 1350 778 c 128,-1,89
 1384 853 1384 853 1409 925.5 c 128,-1,90
 1434 998 1434 998 1447 1064 c 1,91,-1
 1460 1139 l 2,92,93
 1460 1143 1460 1143 1461 1147 c 128,-1,94
 1462 1151 1462 1151 1462 1155 c 0,95,96
 1468 1185 1468 1185 1475 1209 c 128,-1,97
 1482 1233 1482 1233 1493.5 1249.5 c 128,-1,98
 1505 1266 1505 1266 1522.5 1275 c 128,-1,99
 1540 1284 1540 1284 1566 1284 c 0,100,101
 1609 1284 1609 1284 1628.5 1275 c 128,-1,102
 1648 1266 1648 1266 1648 1235 c 0,103,104
 1648 1225 1648 1225 1646.5 1215 c 128,-1,105
 1645 1205 1645 1205 1643 1191 c 0,0,1
EndSplineSet
EndChar

StartChar: X
Encoding: 88 88 59
Width: 1087
GlyphClass: 2
Flags: W
LayerCount: 2
Fore
SplineSet
1198 1367 m 1,0,1
 1219 1388 1219 1388 1244 1404.5 c 128,-1,2
 1269 1421 1269 1421 1295 1432.5 c 128,-1,3
 1321 1444 1321 1444 1346 1450.5 c 128,-1,4
 1371 1457 1371 1457 1391 1457 c 0,5,6
 1414 1457 1414 1457 1423.5 1449 c 128,-1,7
 1433 1441 1433 1441 1433 1427 c 0,8,9
 1433 1406 1433 1406 1414.5 1373.5 c 128,-1,10
 1396 1341 1396 1341 1370.5 1306.5 c 128,-1,11
 1345 1272 1345 1272 1317.5 1240 c 128,-1,12
 1290 1208 1290 1208 1272 1188 c 0,13,14
 1136 1036 1136 1036 1015.5 903 c 128,-1,15
 895 770 895 770 786 655 c 1,16,17
 809 573 809 573 829 512 c 128,-1,18
 849 451 849 451 868 401.5 c 128,-1,19
 887 352 887 352 906 310 c 128,-1,20
 925 268 925 268 948 225.5 c 128,-1,21
 971 183 971 183 998 135.5 c 128,-1,22
 1025 88 1025 88 1060 27 c 0,23,24
 1065 18 1065 18 1065 9 c 0,25,26
 1065 -3 1065 -3 1056.5 -12 c 128,-1,27
 1048 -21 1048 -21 1035.5 -27.5 c 128,-1,28
 1023 -34 1023 -34 1007.5 -37.5 c 128,-1,29
 992 -41 992 -41 978 -41 c 0,30,31
 939 -41 939 -41 901 -14.5 c 128,-1,32
 863 12 863 12 821 73.5 c 128,-1,33
 779 135 779 135 731.5 236 c 128,-1,34
 684 337 684 337 625 486 c 1,35,36
 515 371 515 371 430.5 286.5 c 128,-1,37
 346 202 346 202 281.5 142 c 128,-1,38
 217 82 217 82 168.5 44 c 128,-1,39
 120 6 120 6 82.5 -15.5 c 128,-1,40
 45 -37 45 -37 15 -45 c 128,-1,41
 -15 -53 -15 -53 -44 -53 c 0,42,43
 -67 -53 -67 -53 -84.5 -40 c 128,-1,44
 -102 -27 -102 -27 -102 7 c 0,45,46
 -102 38 -102 38 -82.5 62 c 128,-1,47
 -63 86 -63 86 -36 104.5 c 128,-1,48
 -9 123 -9 123 18.5 136.5 c 128,-1,49
 46 150 46 150 61 161 c 0,50,51
 107 192 107 192 162.5 240.5 c 128,-1,52
 218 289 218 289 282 352 c 128,-1,53
 346 415 346 415 417 490.5 c 128,-1,54
 488 566 488 566 565 652 c 1,55,56
 517 793 517 793 486 904.5 c 128,-1,57
 455 1016 455 1016 432 1112 c 0,58,59
 417 1174 417 1174 405 1222.5 c 128,-1,60
 393 1271 393 1271 393 1300 c 0,61,62
 393 1327 393 1327 412.5 1361 c 128,-1,63
 432 1395 432 1395 461 1425.5 c 128,-1,64
 490 1456 490 1456 523 1476.5 c 128,-1,65
 556 1497 556 1497 583 1497 c 0,66,67
 614 1497 614 1497 637 1464.5 c 128,-1,68
 660 1432 660 1432 660 1352 c 0,69,70
 660 1337 660 1337 658.5 1328.5 c 128,-1,71
 657 1320 657 1320 654 1314 c 128,-1,72
 651 1308 651 1308 647 1302 c 128,-1,73
 643 1296 643 1296 638 1286 c 0,74,75
 637 1283 637 1283 637 1273 c 0,76,77
 637 1235 637 1235 662 1129 c 128,-1,78
 687 1023 687 1023 732 854 c 0,79,80
 732 852 732 852 734 846 c 1,81,-1
 794 917 l 1,82,83
 851 975 851 975 898.5 1032.5 c 128,-1,84
 946 1090 946 1090 992 1146.5 c 128,-1,85
 1038 1203 1038 1203 1087.5 1258.5 c 128,-1,86
 1137 1314 1137 1314 1198 1367 c 1,0,1
EndSplineSet
EndChar

StartChar: Y
Encoding: 89 89 60
Width: 969
GlyphClass: 2
Flags: W
LayerCount: 2
Fore
SplineSet
638 665 m 1,0,1
 578 735 578 735 530 818 c 128,-1,2
 482 901 482 901 461 997 c 1,3,4
 444 1055 444 1055 437.5 1105 c 128,-1,5
 431 1155 431 1155 431 1198 c 0,6,7
 431 1255 431 1255 445.5 1301 c 128,-1,8
 460 1347 460 1347 484.5 1378.5 c 128,-1,9
 509 1410 509 1410 541 1427 c 128,-1,10
 573 1444 573 1444 609 1444 c 0,11,12
 682 1444 682 1444 682 1367 c 0,13,14
 682 1353 682 1353 676.5 1331.5 c 128,-1,15
 671 1310 671 1310 665 1284 c 128,-1,16
 659 1258 659 1258 653.5 1229 c 128,-1,17
 648 1200 648 1200 648 1172 c 0,18,19
 648 1113 648 1113 661.5 1054 c 128,-1,20
 675 995 675 995 698.5 941 c 128,-1,21
 722 887 722 887 752 840.5 c 128,-1,22
 782 794 782 794 815 760 c 1,23,-1
 889 808 l 2,24,25
 948 846 948 846 1006.5 887 c 128,-1,26
 1065 928 1065 928 1112 974 c 1,27,28
 1149 1018 1149 1018 1177.5 1060 c 128,-1,29
 1206 1102 1206 1102 1226.5 1139 c 128,-1,30
 1247 1176 1247 1176 1259 1206 c 128,-1,31
 1271 1236 1271 1236 1276 1256 c 0,32,33
 1285 1298 1285 1298 1294 1328 c 128,-1,34
 1303 1358 1303 1358 1320 1377 c 128,-1,35
 1337 1396 1337 1396 1367.5 1405 c 128,-1,36
 1398 1414 1398 1414 1450 1414 c 0,37,38
 1498 1414 1498 1414 1498 1346 c 0,39,40
 1498 1342 1498 1342 1494 1311 c 128,-1,41
 1490 1280 1490 1280 1470.5 1227 c 128,-1,42
 1451 1174 1451 1174 1410.5 1102 c 128,-1,43
 1370 1030 1370 1030 1297 945 c 1,44,45
 1250 900 1250 900 1197.5 859 c 128,-1,46
 1145 818 1145 818 1088.5 780.5 c 128,-1,47
 1032 743 1032 743 974 708 c 128,-1,48
 916 673 916 673 859 639 c 2,49,-1
 815 613 l 1,50,-1
 613 231 l 2,51,52
 584 175 584 175 571.5 145.5 c 128,-1,53
 559 116 559 116 557 105 c 1,54,55
 557 52 557 52 541.5 14 c 128,-1,56
 526 -24 526 -24 502.5 -49.5 c 128,-1,57
 479 -75 479 -75 451 -87 c 128,-1,58
 423 -99 423 -99 398 -99 c 0,59,60
 361 -99 361 -99 334.5 -77 c 128,-1,61
 308 -55 308 -55 308 -12 c 0,62,63
 308 4 308 4 309 14 c 128,-1,64
 310 24 310 24 316 40 c 128,-1,65
 322 56 322 56 335.5 83.5 c 128,-1,66
 349 111 349 111 374 164 c 1,67,-1
 638 665 l 1,0,1
EndSplineSet
EndChar

StartChar: Z
Encoding: 90 90 61
Width: 1646
GlyphClass: 2
Flags: W
LayerCount: 2
Fore
SplineSet
1496 1270 m 0,0,1
 1512 1282 1512 1282 1532 1282 c 0,2,3
 1558 1282 1558 1282 1580 1262.5 c 128,-1,4
 1602 1243 1602 1243 1602 1214 c 0,5,6
 1602 1197 1602 1197 1591.5 1178 c 128,-1,7
 1581 1159 1581 1159 1556 1141 c 0,8,9
 1515 1111 1515 1111 1474.5 1074.5 c 128,-1,10
 1434 1038 1434 1038 1397 1003 c 1,11,12
 1323 927 1323 927 1248.5 842 c 128,-1,13
 1174 757 1174 757 1098.5 666.5 c 128,-1,14
 1023 576 1023 576 946 483 c 128,-1,15
 869 390 869 390 790 297 c 1,16,17
 828 288 828 288 864.5 268 c 128,-1,18
 901 248 901 248 937.5 228.5 c 128,-1,19
 974 209 974 209 1010.5 194 c 128,-1,20
 1047 179 1047 179 1085 179 c 0,21,22
 1168 179 1168 179 1231.5 208 c 128,-1,23
 1295 237 1295 237 1346 286 c 128,-1,24
 1397 335 1397 335 1438 400 c 128,-1,25
 1479 465 1479 465 1518 538 c 1,26,27
 1531 556 1531 556 1547.5 563.5 c 128,-1,28
 1564 571 1564 571 1581 571 c 0,29,30
 1600 571 1600 571 1618 563.5 c 128,-1,31
 1636 556 1636 556 1650 545 c 128,-1,32
 1664 534 1664 534 1673 521 c 128,-1,33
 1682 508 1682 508 1682 497 c 0,34,35
 1682 493 1682 493 1678 485 c 1,36,37
 1639 378 1639 378 1576 285.5 c 128,-1,38
 1513 193 1513 193 1432.5 125 c 128,-1,39
 1352 57 1352 57 1256 18 c 128,-1,40
 1160 -21 1160 -21 1055 -21 c 0,41,42
 1032 -21 1032 -21 1008.5 -10.5 c 128,-1,43
 985 0 985 0 959.5 16 c 128,-1,44
 934 32 934 32 905.5 50.5 c 128,-1,45
 877 69 877 69 844.5 85 c 128,-1,46
 812 101 812 101 774.5 111.5 c 128,-1,47
 737 122 737 122 694 122 c 0,48,49
 677 122 677 122 655.5 118.5 c 128,-1,50
 634 115 634 115 613 109 c 128,-1,51
 592 103 592 103 574 95.5 c 128,-1,52
 556 88 556 88 546 81 c 0,53,54
 507 54 507 54 468 26.5 c 128,-1,55
 429 -1 429 -1 390 -28 c 0,56,57
 376 -37 376 -37 363 -37 c 0,58,59
 349 -37 349 -37 336 -29 c 128,-1,60
 323 -21 323 -21 313 -8.5 c 128,-1,61
 303 4 303 4 297 19.5 c 128,-1,62
 291 35 291 35 291 51 c 0,63,64
 291 65 291 65 295.5 76.5 c 128,-1,65
 300 88 300 88 313 99 c 0,66,67
 350 129 350 129 386 159.5 c 128,-1,68
 422 190 422 190 459 221 c 1,69,70
 478 234 478 234 494.5 246 c 128,-1,71
 511 258 511 258 530.5 275.5 c 128,-1,72
 550 293 550 293 575.5 319 c 128,-1,73
 601 345 601 345 637 386 c 128,-1,74
 673 427 673 427 722.5 485.5 c 128,-1,75
 772 544 772 544 839.5 626.5 c 128,-1,76
 907 709 907 709 995.5 818 c 128,-1,77
 1084 927 1084 927 1199 1070 c 1,78,79
 1179 1068 1179 1068 1160 1066 c 128,-1,80
 1141 1064 1141 1064 1121 1064 c 0,81,82
 1074 1064 1074 1064 1022.5 1075.5 c 128,-1,83
 971 1087 971 1087 918.5 1100.5 c 128,-1,84
 866 1114 866 1114 814 1125.5 c 128,-1,85
 762 1137 762 1137 714 1137 c 0,86,87
 682 1137 682 1137 649.5 1121 c 128,-1,88
 617 1105 617 1105 586.5 1086 c 128,-1,89
 556 1067 556 1067 529 1051 c 128,-1,90
 502 1035 502 1035 482 1035 c 0,91,92
 464 1035 464 1035 453 1046.5 c 128,-1,93
 442 1058 442 1058 442 1077 c 0,94,95
 442 1088 442 1088 447 1103 c 128,-1,96
 452 1118 452 1118 464 1132 c 0,97,98
 493 1166 493 1166 532 1197 c 128,-1,99
 571 1228 571 1228 614.5 1251.5 c 128,-1,100
 658 1275 658 1275 705 1289 c 128,-1,101
 752 1303 752 1303 797 1303 c 0,102,103
 816 1303 816 1303 834 1300 c 0,104,105
 927 1287 927 1287 991 1272 c 128,-1,106
 1055 1257 1055 1257 1102.5 1244.5 c 128,-1,107
 1150 1232 1150 1232 1186 1224 c 128,-1,108
 1222 1216 1222 1216 1259 1216 c 0,109,110
 1304 1216 1304 1216 1338.5 1218 c 128,-1,111
 1373 1220 1373 1220 1401 1226 c 128,-1,112
 1429 1232 1429 1232 1451.5 1242.5 c 128,-1,113
 1474 1253 1474 1253 1496 1270 c 0,0,1
EndSplineSet
EndChar

StartChar: bracketleft
Encoding: 91 91 62
Width: 966
GlyphClass: 2
Flags: W
LayerCount: 2
Fore
SplineSet
1448 1573 m 2,0,1
 1472 1573 1472 1573 1484 1559.5 c 128,-1,2
 1496 1546 1496 1546 1496 1526 c 0,3,4
 1496 1511 1496 1511 1488.5 1494.5 c 128,-1,5
 1481 1478 1481 1478 1466.5 1464.5 c 128,-1,6
 1452 1451 1452 1451 1430 1442.5 c 128,-1,7
 1408 1434 1408 1434 1378 1434 c 2,8,-1
 1182 1434 l 1,9,10
 990 1056 990 1056 801.5 682 c 128,-1,11
 613 308 613 308 421 -70 c 1,12,-1
 618 -70 l 2,13,14
 639 -70 639 -70 649 -81.5 c 128,-1,15
 659 -93 659 -93 659 -110 c 0,16,17
 659 -125 659 -125 651.5 -141.5 c 128,-1,18
 644 -158 644 -158 629.5 -172.5 c 128,-1,19
 615 -187 615 -187 594.5 -196 c 128,-1,20
 574 -205 574 -205 548 -205 c 2,21,-1
 180 -205 l 1,22,23
 405 240 405 240 629.5 684 c 128,-1,24
 854 1128 854 1128 1080 1573 c 1,25,-1
 1448 1573 l 2,0,1
EndSplineSet
EndChar

StartChar: backslash
Encoding: 92 92 63
Width: 892
GlyphClass: 2
Flags: W
LayerCount: 2
Fore
SplineSet
1244 1476 m 1,0,1
 1007 1072 1007 1072 770.5 668 c 128,-1,2
 534 264 534 264 297 -140 c 0,3,4
 283 -165 283 -165 263 -175 c 128,-1,5
 243 -185 243 -185 221 -185 c 0,6,7
 192 -185 192 -185 168 -170 c 128,-1,8
 144 -155 144 -155 144 -131 c 0,9,10
 144 -126 144 -126 145 -119.5 c 128,-1,11
 146 -113 146 -113 149 -109 c 0,12,13
 384 298 384 298 616 700.5 c 128,-1,14
 848 1103 848 1103 1083 1510 c 0,15,16
 1097 1533 1097 1533 1118.5 1543.5 c 128,-1,17
 1140 1554 1140 1554 1164 1554 c 0,18,19
 1202 1554 1202 1554 1223.5 1536 c 128,-1,20
 1245 1518 1245 1518 1245 1491 c 0,21,22
 1245 1481 1245 1481 1244 1476 c 1,0,1
EndSplineSet
EndChar

StartChar: bracketright
Encoding: 93 93 64
Width: 784
GlyphClass: 2
Flags: W
LayerCount: 2
Fore
SplineSet
1232 1573 m 1,0,1
 1008 1128 1008 1128 783 684 c 128,-1,2
 558 240 558 240 334 -205 c 1,3,-1
 -38 -205 l 2,4,5
 -64 -205 -64 -205 -76 -194 c 128,-1,6
 -88 -183 -88 -183 -88 -166 c 0,7,8
 -88 -151 -88 -151 -79 -134 c 128,-1,9
 -70 -117 -70 -117 -54 -102.5 c 128,-1,10
 -38 -88 -38 -88 -15 -79 c 128,-1,11
 8 -70 8 -70 36 -70 c 2,12,-1
 232 -70 l 1,13,14
 611 684 611 684 990 1434 c 1,15,-1
 793 1434 l 2,16,17
 762 1434 762 1434 747.5 1447.5 c 128,-1,18
 733 1461 733 1461 733 1480 c 0,19,20
 733 1495 733 1495 741.5 1511.5 c 128,-1,21
 750 1528 750 1528 766.5 1541.5 c 128,-1,22
 783 1555 783 1555 807.5 1564 c 128,-1,23
 832 1573 832 1573 863 1573 c 2,24,-1
 1232 1573 l 1,0,1
EndSplineSet
EndChar

StartChar: asciicircum
Encoding: 94 94 65
Width: 1070
GlyphClass: 2
Flags: W
LayerCount: 2
Fore
SplineSet
1124 815 m 0,0,1
 1125 812 1125 812 1125 808.5 c 128,-1,2
 1125 805 1125 805 1125 802 c 0,3,4
 1125 783 1125 783 1115 766.5 c 128,-1,5
 1105 750 1105 750 1089.5 738 c 128,-1,6
 1074 726 1074 726 1055 719 c 128,-1,7
 1036 712 1036 712 1018 712 c 0,8,9
 996 712 996 712 979 724 c 128,-1,10
 962 736 962 736 958 762 c 1,11,12
 929 883 929 883 901 1003.5 c 128,-1,13
 873 1124 873 1124 844 1245 c 1,14,15
 787 1185 787 1185 736.5 1131 c 128,-1,16
 686 1077 686 1077 636.5 1024.5 c 128,-1,17
 587 972 587 972 536 918 c 128,-1,18
 485 864 485 864 428 804 c 1,19,20
 387 757 387 757 347.5 737 c 128,-1,21
 308 717 308 717 279 717 c 0,22,23
 259 717 259 717 246 726 c 128,-1,24
 233 735 233 735 233 751 c 0,25,26
 233 761 233 761 239.5 774.5 c 128,-1,27
 246 788 246 788 260 804 c 0,28,29
 331 880 331 880 396 950 c 128,-1,30
 461 1020 461 1020 525.5 1088.5 c 128,-1,31
 590 1157 590 1157 655 1226.5 c 128,-1,32
 720 1296 720 1296 791 1372 c 1,33,-1
 996 1372 l 1,34,35
 1012 1296 1012 1296 1028.5 1228 c 128,-1,36
 1045 1160 1045 1160 1060.5 1093.5 c 128,-1,37
 1076 1027 1076 1027 1092 959 c 128,-1,38
 1108 891 1108 891 1124 815 c 0,0,1
EndSplineSet
EndChar

StartChar: underscore
Encoding: 95 95 66
Width: 1024
GlyphClass: 2
Flags: W
LayerCount: 2
Fore
SplineSet
34 -143 m 2,0,1
 11 -143 11 -143 1 -135 c 128,-1,2
 -9 -127 -9 -127 -9 -113 c 0,3,4
 -9 -100 -9 -100 -0.5 -85.5 c 128,-1,5
 8 -71 8 -71 23 -58 c 128,-1,6
 38 -45 38 -45 57.5 -36.5 c 128,-1,7
 77 -28 77 -28 98 -28 c 2,8,-1
 998 -28 l 2,9,10
 1015 -28 1015 -28 1022.5 -36.5 c 128,-1,11
 1030 -45 1030 -45 1030 -58 c 128,-1,12
 1030 -71 1030 -71 1023 -86 c 128,-1,13
 1016 -101 1016 -101 1003 -113.5 c 128,-1,14
 990 -126 990 -126 972.5 -134.5 c 128,-1,15
 955 -143 955 -143 934 -143 c 2,16,-1
 34 -143 l 2,0,1
EndSplineSet
EndChar

StartChar: grave
Encoding: 96 96 67
Width: 1044
GlyphClass: 2
Flags: W
LayerCount: 2
Fore
SplineSet
631 942 m 0,0,1
 633 929 633 929 634 918 c 128,-1,2
 635 907 635 907 635 897 c 0,3,4
 635 860 635 860 620 843 c 128,-1,5
 605 826 605 826 585 826 c 128,-1,6
 565 826 565 826 543.5 843 c 128,-1,7
 522 860 522 860 508 894 c 1,8,9
 479 957 479 957 449 1019 c 128,-1,10
 419 1081 419 1081 390 1144 c 0,11,12
 378 1171 378 1171 378 1196 c 0,13,14
 378 1220 378 1220 387 1240.5 c 128,-1,15
 396 1261 396 1261 410.5 1275.5 c 128,-1,16
 425 1290 425 1290 443.5 1298.5 c 128,-1,17
 462 1307 462 1307 481 1307 c 0,18,19
 513 1307 513 1307 542.5 1281 c 128,-1,20
 572 1255 572 1255 586 1192 c 1,21,22
 597 1129 597 1129 608.5 1067 c 128,-1,23
 620 1005 620 1005 631 942 c 0,0,1
EndSplineSet
EndChar

StartChar: a
Encoding: 97 97 68
Width: 984
GlyphClass: 2
Flags: W
LayerCount: 2
Fore
SplineSet
500 546 m 0,0,1
 453 546 453 546 409 522 c 128,-1,2
 365 498 365 498 331 459 c 128,-1,3
 297 420 297 420 277 371.5 c 128,-1,4
 257 323 257 323 257 274 c 0,5,6
 257 254 257 254 259.5 232.5 c 128,-1,7
 262 211 262 211 271 193 c 128,-1,8
 280 175 280 175 296.5 163 c 128,-1,9
 313 151 313 151 341 151 c 0,10,11
 363 151 363 151 392.5 170.5 c 128,-1,12
 422 190 422 190 453.5 220.5 c 128,-1,13
 485 251 485 251 515 287.5 c 128,-1,14
 545 324 545 324 569 359 c 128,-1,15
 593 394 593 394 608 422 c 128,-1,16
 623 450 623 450 623 463 c 0,17,18
 623 482 623 482 610 497.5 c 128,-1,19
 597 513 597 513 578 524 c 128,-1,20
 559 535 559 535 537.5 540.5 c 128,-1,21
 516 546 516 546 500 546 c 0,0,1
1193 288 m 0,22,23
 1175 271 1175 271 1145 241 c 128,-1,24
 1115 211 1115 211 1076.5 176 c 128,-1,25
 1038 141 1038 141 994.5 105.5 c 128,-1,26
 951 70 951 70 905.5 41 c 128,-1,27
 860 12 860 12 816 -6.5 c 128,-1,28
 772 -25 772 -25 733 -25 c 0,29,30
 698 -25 698 -25 673 -10 c 128,-1,31
 648 5 648 5 631.5 29 c 128,-1,32
 615 53 615 53 607 83.5 c 128,-1,33
 599 114 599 114 599 146 c 0,34,35
 599 167 599 167 602 187.5 c 128,-1,36
 605 208 605 208 612 226 c 1,37,38
 581 184 581 184 541.5 139.5 c 128,-1,39
 502 95 502 95 456.5 58.5 c 128,-1,40
 411 22 411 22 361.5 -1.5 c 128,-1,41
 312 -25 312 -25 261 -25 c 0,42,43
 235 -25 235 -25 200.5 -14.5 c 128,-1,44
 166 -4 166 -4 135 20 c 128,-1,45
 104 44 104 44 83 82 c 128,-1,46
 62 120 62 120 62 175 c 0,47,48
 62 216 62 216 74.5 273 c 128,-1,49
 87 330 87 330 112.5 391.5 c 128,-1,50
 138 453 138 453 177.5 513 c 128,-1,51
 217 573 217 573 271 620.5 c 128,-1,52
 325 668 325 668 394 697.5 c 128,-1,53
 463 727 463 727 548 727 c 0,54,55
 592 727 592 727 625 716 c 128,-1,56
 658 705 658 705 681 692 c 0,57,58
 707 676 707 676 727 657 c 1,59,60
 744 666 744 666 762 674 c 0,61,62
 777 681 777 681 793.5 686.5 c 128,-1,63
 810 692 810 692 822 692 c 0,64,65
 860 692 860 692 884 671 c 128,-1,66
 908 650 908 650 908 625 c 0,67,68
 908 618 908 618 907 614 c 0,69,70
 902 595 902 595 891.5 566 c 128,-1,71
 881 537 881 537 868 501.5 c 128,-1,72
 855 466 855 466 841.5 427.5 c 128,-1,73
 828 389 828 389 817 352 c 128,-1,74
 806 315 806 315 799 282.5 c 128,-1,75
 792 250 792 250 792 227 c 0,76,77
 792 197 792 197 802 177.5 c 128,-1,78
 812 158 812 158 836 158 c 0,79,80
 851 158 851 158 871.5 167.5 c 128,-1,81
 892 177 892 177 916 193 c 128,-1,82
 940 209 940 209 965.5 229.5 c 128,-1,83
 991 250 991 250 1015 271 c 0,84,85
 1071 321 1071 321 1134 385 c 1,86,87
 1150 398 1150 398 1165 398 c 0,88,89
 1185 398 1185 398 1198.5 378.5 c 128,-1,90
 1212 359 1212 359 1212 335 c 0,91,92
 1212 307 1212 307 1193 288 c 0,22,23
EndSplineSet
EndChar

StartChar: b
Encoding: 98 98 69
Width: 906
GlyphClass: 2
Flags: W
LayerCount: 2
Fore
SplineSet
607 561 m 0,0,1
 550 561 550 561 493 533.5 c 128,-1,2
 436 506 436 506 390.5 461 c 128,-1,3
 345 416 345 416 316 359.5 c 128,-1,4
 287 303 287 303 287 245 c 0,5,6
 287 229 287 229 290 212.5 c 128,-1,7
 293 196 293 196 302.5 182 c 128,-1,8
 312 168 312 168 330 159 c 128,-1,9
 348 150 348 150 378 150 c 0,10,11
 436 150 436 150 490.5 177.5 c 128,-1,12
 545 205 545 205 588 250 c 128,-1,13
 631 295 631 295 657 351.5 c 128,-1,14
 683 408 683 408 683 465 c 0,15,16
 683 480 683 480 680.5 497 c 128,-1,17
 678 514 678 514 670 528 c 128,-1,18
 662 542 662 542 647 551.5 c 128,-1,19
 632 561 632 561 607 561 c 0,0,1
691 158 m 1,20,21
 606 56 606 56 510.5 8.5 c 128,-1,22
 415 -39 415 -39 304 -39 c 0,23,24
 243 -39 243 -39 201 -21.5 c 128,-1,25
 159 -4 159 -4 133 26 c 128,-1,26
 107 56 107 56 95.5 96 c 128,-1,27
 84 136 84 136 84 181 c 0,28,29
 84 232 84 232 97 286.5 c 128,-1,30
 110 341 110 341 131 392 c 0,31,32
 145 425 145 425 154 447 c 128,-1,33
 163 469 163 469 169 484.5 c 128,-1,34
 175 500 175 500 179.5 511.5 c 128,-1,35
 184 523 184 523 189 535.5 c 128,-1,36
 194 548 194 548 201 564.5 c 128,-1,37
 208 581 208 581 220 607 c 2,38,-1
 512 1256 l 2,39,40
 518 1269 518 1269 529.5 1281 c 128,-1,41
 541 1293 541 1293 556 1302.5 c 128,-1,42
 571 1312 571 1312 588.5 1317.5 c 128,-1,43
 606 1323 606 1323 624 1323 c 0,44,45
 670 1323 670 1323 688.5 1305 c 128,-1,46
 707 1287 707 1287 707 1261 c 0,47,48
 707 1241 707 1241 697 1217.5 c 128,-1,49
 687 1194 687 1194 675 1174 c 1,50,51
 601 1032 601 1032 535 885.5 c 128,-1,52
 469 739 469 739 395 596 c 1,53,54
 427 621 427 621 463 644.5 c 128,-1,55
 499 668 499 668 538 686.5 c 128,-1,56
 577 705 577 705 619 716.5 c 128,-1,57
 661 728 661 728 705 728 c 0,58,59
 736 728 736 728 768 716 c 128,-1,60
 800 704 800 704 826.5 681 c 128,-1,61
 853 658 853 658 869.5 624.5 c 128,-1,62
 886 591 886 591 886 547 c 0,63,64
 886 537 886 537 880 507 c 128,-1,65
 874 477 874 477 862.5 439.5 c 128,-1,66
 851 402 851 402 834.5 362.5 c 128,-1,67
 818 323 818 323 798 293 c 1,68,69
 805 282 805 282 816 279.5 c 128,-1,70
 827 277 827 277 841 277 c 0,71,72
 887 277 887 277 932.5 289 c 128,-1,73
 978 301 978 301 1018.5 318.5 c 128,-1,74
 1059 336 1059 336 1093 355 c 128,-1,75
 1127 374 1127 374 1150 388 c 1,76,77
 1162 401 1162 401 1176 401 c 0,78,79
 1193 401 1193 401 1205.5 386 c 128,-1,80
 1218 371 1218 371 1218 347 c 0,81,82
 1218 324 1218 324 1208.5 301.5 c 128,-1,83
 1199 279 1199 279 1174 252 c 1,84,85
 1129 225 1129 225 1083.5 201 c 128,-1,86
 1038 177 1038 177 991 159.5 c 128,-1,87
 944 142 944 142 895.5 131.5 c 128,-1,88
 847 121 847 121 797 121 c 0,89,90
 765 121 765 121 738 130 c 128,-1,91
 711 139 711 139 691 158 c 1,20,21
EndSplineSet
EndChar

StartChar: c
Encoding: 99 99 70
Width: 645
GlyphClass: 2
Flags: W
LayerCount: 2
Fore
SplineSet
669 635 m 0,0,1
 669 604 669 604 662 566.5 c 128,-1,2
 655 529 655 529 639 496 c 128,-1,3
 623 463 623 463 598 441 c 128,-1,4
 573 419 573 419 536 419 c 0,5,6
 516 419 516 419 510.5 425 c 128,-1,7
 505 431 505 431 505 446 c 0,8,9
 505 455 505 455 505.5 472.5 c 128,-1,10
 506 490 506 490 506 506 c 0,11,12
 506 524 506 524 501 536.5 c 128,-1,13
 496 549 496 549 476 549 c 0,14,15
 453 549 453 549 424.5 531.5 c 128,-1,16
 396 514 396 514 367.5 486 c 128,-1,17
 339 458 339 458 312 422.5 c 128,-1,18
 285 387 285 387 263.5 350.5 c 128,-1,19
 242 314 242 314 229.5 280 c 128,-1,20
 217 246 217 246 217 222 c 0,21,22
 217 187 217 187 241.5 167 c 128,-1,23
 266 147 266 147 308 147 c 0,24,25
 353 147 353 147 404 162 c 128,-1,26
 455 177 455 177 505.5 200 c 128,-1,27
 556 223 556 223 603 250 c 128,-1,28
 650 277 650 277 688.5 301.5 c 128,-1,29
 727 326 727 326 753 343.5 c 128,-1,30
 779 361 779 361 787 365 c 0,31,32
 803 373 803 373 817 373 c 0,33,34
 829 373 829 373 837.5 367.5 c 128,-1,35
 846 362 846 362 851 354.5 c 128,-1,36
 856 347 856 347 858 338.5 c 128,-1,37
 860 330 860 330 860 324 c 0,38,39
 860 315 860 315 858 302.5 c 128,-1,40
 856 290 856 290 843 274 c 0,41,42
 838 268 838 268 810.5 243.5 c 128,-1,43
 783 219 783 219 739.5 186 c 128,-1,44
 696 153 696 153 639.5 115.5 c 128,-1,45
 583 78 583 78 518.5 47 c 128,-1,46
 454 16 454 16 385 -4.5 c 128,-1,47
 316 -25 316 -25 249 -25 c 0,48,49
 198 -25 198 -25 158.5 -9 c 128,-1,50
 119 7 119 7 92 34.5 c 128,-1,51
 65 62 65 62 51 99 c 128,-1,52
 37 136 37 136 37 177 c 0,53,54
 37 222 37 222 58 280.5 c 128,-1,55
 79 339 79 339 116 400 c 128,-1,56
 153 461 153 461 203 520 c 128,-1,57
 253 579 253 579 311.5 625 c 128,-1,58
 370 671 370 671 433.5 699 c 128,-1,59
 497 727 497 727 562 727 c 0,60,61
 584 727 584 727 603.5 722 c 128,-1,62
 623 717 623 717 637.5 706.5 c 128,-1,63
 652 696 652 696 660.5 678 c 128,-1,64
 669 660 669 660 669 635 c 0,0,1
EndSplineSet
EndChar

StartChar: d
Encoding: 100 100 71
Width: 967
GlyphClass: 2
Flags: W
LayerCount: 2
Fore
SplineSet
714 203 m 0,0,1
 713 201 713 201 713 198 c 128,-1,2
 713 195 713 195 712 193 c 1,3,4
 712 175 712 175 721 155.5 c 128,-1,5
 730 136 730 136 750 136 c 0,6,7
 758 136 758 136 762 138 c 0,8,9
 819 155 819 155 877.5 192 c 128,-1,10
 936 229 936 229 990 273 c 128,-1,11
 1044 317 1044 317 1089.5 363 c 128,-1,12
 1135 409 1135 409 1165 445 c 0,13,14
 1179 462 1179 462 1196 462 c 0,15,16
 1211 462 1211 462 1222.5 448 c 128,-1,17
 1234 434 1234 434 1234 410 c 0,18,19
 1234 391 1234 391 1223.5 365 c 128,-1,20
 1213 339 1213 339 1189 309 c 1,21,22
 1130 244 1130 244 1068 184 c 128,-1,23
 1006 124 1006 124 943 77.5 c 128,-1,24
 880 31 880 31 817.5 3 c 128,-1,25
 755 -25 755 -25 695 -25 c 0,26,27
 622 -25 622 -25 580 16.5 c 128,-1,28
 538 58 538 58 538 141 c 0,29,30
 538 146 538 146 538 151.5 c 128,-1,31
 538 157 538 157 539 162 c 1,32,33
 516 120 516 120 480 85.5 c 128,-1,34
 444 51 444 51 401 26.5 c 128,-1,35
 358 2 358 2 312 -11.5 c 128,-1,36
 266 -25 266 -25 223 -25 c 0,37,38
 186 -25 186 -25 155 -15 c 128,-1,39
 124 -5 124 -5 101.5 17 c 128,-1,40
 79 39 79 39 66.5 73 c 128,-1,41
 54 107 54 107 54 155 c 0,42,43
 54 239 54 239 80 314.5 c 128,-1,44
 106 390 106 390 149 453.5 c 128,-1,45
 192 517 192 517 247.5 567.5 c 128,-1,46
 303 618 303 618 362.5 653.5 c 128,-1,47
 422 689 422 689 481 708 c 128,-1,48
 540 727 540 727 589 727 c 0,49,50
 646 727 646 727 687 708 c 0,51,52
 707 698 707 698 724 681 c 1,53,54
 728 690 728 690 732 698 c 0,55,56
 742 722 742 722 750 739.5 c 128,-1,57
 758 757 758 757 761 765 c 0,58,59
 764 774 764 774 778 807 c 128,-1,60
 792 840 792 840 810.5 884.5 c 128,-1,61
 829 929 829 929 850.5 980 c 128,-1,62
 872 1031 872 1031 890 1076 c 128,-1,63
 908 1121 908 1121 921 1153.5 c 128,-1,64
 934 1186 934 1186 937 1195 c 0,65,66
 944 1220 944 1220 956 1243.5 c 128,-1,67
 968 1267 968 1267 984.5 1284.5 c 128,-1,68
 1001 1302 1001 1302 1023 1312.5 c 128,-1,69
 1045 1323 1045 1323 1073 1323 c 0,70,71
 1111 1323 1111 1323 1136 1306.5 c 128,-1,72
 1161 1290 1161 1290 1161 1243 c 0,73,74
 1161 1224 1161 1224 1156 1204 c 128,-1,75
 1151 1184 1151 1184 1144.5 1165 c 128,-1,76
 1138 1146 1138 1146 1130.5 1127.5 c 128,-1,77
 1123 1109 1123 1109 1117 1093 c 1,78,79
 1067 993 1067 993 1012 875.5 c 128,-1,80
 957 758 957 758 903 639 c 128,-1,81
 849 520 849 520 800 407 c 128,-1,82
 751 294 751 294 714 203 c 0,0,1
684 594 m 1,83,84
 624 592 624 592 558 568 c 1,85,86
 482 542 482 542 419 490.5 c 128,-1,87
 356 439 356 439 312.5 364 c 128,-1,88
 269 289 269 289 263 192 c 1,89,90
 263 152 263 152 297 152 c 0,91,92
 339 152 339 152 377 169.5 c 128,-1,93
 415 187 415 187 449.5 216.5 c 128,-1,94
 484 246 484 246 514 284 c 128,-1,95
 544 322 544 322 569.5 363 c 128,-1,96
 595 404 595 404 615.5 444.5 c 128,-1,97
 636 485 636 485 651 520 c 0,98,99
 656 531 656 531 665 551 c 0,100,101
 673 570 673 570 684 594 c 1,83,84
EndSplineSet
EndChar

StartChar: e
Encoding: 101 101 72
Width: 704
GlyphClass: 2
Flags: W
LayerCount: 2
Fore
SplineSet
518 590 m 0,0,1
 513 591 513 591 509 591 c 128,-1,2
 505 591 505 591 500 591 c 0,3,4
 462 591 462 591 429 576 c 128,-1,5
 396 561 396 561 368.5 536.5 c 128,-1,6
 341 512 341 512 319.5 481 c 128,-1,7
 298 450 298 450 281 419.5 c 128,-1,8
 264 389 264 389 252.5 361 c 128,-1,9
 241 333 241 333 235 314 c 1,10,11
 270 332 270 332 307.5 355 c 128,-1,12
 345 378 345 378 378 399 c 128,-1,13
 411 420 411 420 435.5 437 c 128,-1,14
 460 454 460 454 470 460 c 0,15,16
 515 488 515 488 532 512.5 c 128,-1,17
 549 537 549 537 549 555 c 0,18,19
 549 570 549 570 539.5 579 c 128,-1,20
 530 588 530 588 518 590 c 0,0,1
554 728 m 0,21,22
 637 728 637 728 678 688 c 128,-1,23
 719 648 719 648 719 577 c 0,24,25
 719 535 719 535 697 489 c 128,-1,26
 675 443 675 443 621 395.5 c 128,-1,27
 567 348 567 348 476.5 298.5 c 128,-1,28
 386 249 386 249 250 199 c 1,29,30
 255 170 255 170 281 153.5 c 128,-1,31
 307 137 307 137 350 137 c 0,32,33
 396 137 396 137 448.5 150.5 c 128,-1,34
 501 164 501 164 552.5 185 c 128,-1,35
 604 206 604 206 653 230.5 c 128,-1,36
 702 255 702 255 741.5 277 c 128,-1,37
 781 299 781 299 807.5 315 c 128,-1,38
 834 331 834 331 843 335 c 1,39,40
 852 341 852 341 859.5 342 c 128,-1,41
 867 343 867 343 873 343 c 0,42,43
 885 343 885 343 893 337.5 c 128,-1,44
 901 332 901 332 906.5 324.5 c 128,-1,45
 912 317 912 317 914 308.5 c 128,-1,46
 916 300 916 300 916 294 c 0,47,48
 916 285 916 285 914 272.5 c 128,-1,49
 912 260 912 260 899 244 c 0,50,51
 894 239 894 239 865.5 217 c 128,-1,52
 837 195 837 195 792 165 c 128,-1,53
 747 135 747 135 687.5 101.5 c 128,-1,54
 628 68 628 68 561.5 40 c 128,-1,55
 495 12 495 12 423 -6.5 c 128,-1,56
 351 -25 351 -25 281 -25 c 0,57,58
 221 -25 221 -25 174.5 -2 c 128,-1,59
 128 21 128 21 95.5 60 c 128,-1,60
 63 99 63 99 46 150 c 128,-1,61
 29 201 29 201 29 257 c 0,62,63
 29 300 29 300 46 351.5 c 128,-1,64
 63 403 63 403 95 455 c 128,-1,65
 127 507 127 507 173.5 556.5 c 128,-1,66
 220 606 220 606 278 644 c 128,-1,67
 336 682 336 682 405.5 705 c 128,-1,68
 475 728 475 728 554 728 c 0,21,22
EndSplineSet
EndChar

StartChar: f
Encoding: 102 102 73
Width: 506
GlyphClass: 2
Flags: W
LayerCount: 2
Fore
SplineSet
795 568 m 0,0,1
 743 566 743 566 696.5 565 c 128,-1,2
 650 564 650 564 606 563.5 c 128,-1,3
 562 563 562 563 519 563 c 128,-1,4
 476 563 476 563 432 563 c 1,5,6
 406 512 406 512 373.5 444.5 c 128,-1,7
 341 377 341 377 305.5 303 c 128,-1,8
 270 229 270 229 234.5 153.5 c 128,-1,9
 199 78 199 78 167 10.5 c 128,-1,10
 135 -57 135 -57 109 -111.5 c 128,-1,11
 83 -166 83 -166 67 -198 c 0,12,13
 56 -221 56 -221 40 -240.5 c 128,-1,14
 24 -260 24 -260 5 -274 c 128,-1,15
 -14 -288 -14 -288 -34 -295.5 c 128,-1,16
 -54 -303 -54 -303 -71 -303 c 0,17,18
 -95 -303 -95 -303 -114 -291 c 128,-1,19
 -133 -279 -133 -279 -133 -253 c 0,20,21
 -133 -240 -133 -240 -127 -222.5 c 128,-1,22
 -121 -205 -121 -205 -110 -182 c 2,23,-1
 243 566 l 1,24,-1
 190 566 l 2,25,26
 135 566 135 566 115 583 c 128,-1,27
 95 600 95 600 95 623 c 0,28,29
 95 647 95 647 120 669.5 c 128,-1,30
 145 692 145 692 193 692 c 2,31,-1
 311 692 l 1,32,33
 382 835 382 835 453.5 928 c 128,-1,34
 525 1021 525 1021 594 1075 c 128,-1,35
 663 1129 663 1129 728.5 1150 c 128,-1,36
 794 1171 794 1171 854 1171 c 0,37,38
 882 1171 882 1171 907.5 1160 c 128,-1,39
 933 1149 933 1149 952.5 1127 c 128,-1,40
 972 1105 972 1105 984 1071.5 c 128,-1,41
 996 1038 996 1038 996 993 c 0,42,43
 996 950 996 950 984 898 c 0,44,45
 981 884 981 884 972 874.5 c 128,-1,46
 963 865 963 865 952 859 c 128,-1,47
 941 853 941 853 930 850.5 c 128,-1,48
 919 848 919 848 911 848 c 0,49,50
 891 848 891 848 874 857.5 c 128,-1,51
 857 867 857 867 857 887 c 0,52,53
 857 900 857 900 858.5 911 c 128,-1,54
 860 922 860 922 860 933 c 0,55,56
 860 975 860 975 844.5 993 c 128,-1,57
 829 1011 829 1011 803 1011 c 0,58,59
 772 1011 772 1011 730.5 984 c 128,-1,60
 689 957 689 957 646.5 912 c 128,-1,61
 604 867 604 867 565 809.5 c 128,-1,62
 526 752 526 752 501 692 c 1,63,-1
 734 692 l 2,64,65
 765 692 765 692 792 691 c 128,-1,66
 819 690 819 690 839.5 685 c 128,-1,67
 860 680 860 680 871.5 668.5 c 128,-1,68
 883 657 883 657 883 635 c 0,69,70
 883 624 883 624 879 613 c 128,-1,71
 875 602 875 602 865.5 592.5 c 128,-1,72
 856 583 856 583 839 576.5 c 128,-1,73
 822 570 822 570 795 568 c 0,0,1
EndSplineSet
EndChar

StartChar: g
Encoding: 103 103 74
Width: 944
GlyphClass: 2
Flags: W
LayerCount: 2
Fore
SplineSet
569 727 m 0,0,1
 613 727 613 727 646 716 c 128,-1,2
 679 705 679 705 702 692 c 0,3,4
 728 676 728 676 748 657 c 1,5,6
 762 666 762 666 778 674 c 0,7,8
 792 681 792 681 809 686.5 c 128,-1,9
 826 692 826 692 843 692 c 0,10,11
 887 692 887 692 911 674 c 128,-1,12
 935 656 935 656 935 631 c 0,13,14
 935 618 935 618 928 605 c 2,15,-1
 694 162 l 1,16,-1
 713 179 l 1,17,18
 831 248 831 248 907 287.5 c 128,-1,19
 983 327 983 327 1028 346 c 128,-1,20
 1073 365 1073 365 1092.5 369.5 c 128,-1,21
 1112 374 1112 374 1117 374 c 0,22,23
 1140 374 1140 374 1152.5 356.5 c 128,-1,24
 1165 339 1165 339 1165 313 c 0,25,26
 1165 284 1165 284 1148.5 254 c 128,-1,27
 1132 224 1132 224 1098 211 c 1,28,29
 1053 188 1053 188 993 161.5 c 128,-1,30
 933 135 933 135 868 103 c 128,-1,31
 803 71 803 71 737.5 31.5 c 128,-1,32
 672 -8 672 -8 615 -56 c 1,33,-1
 421 -407 l 1,34,35
 397 -464 397 -464 377.5 -500 c 128,-1,36
 358 -536 358 -536 339 -557 c 128,-1,37
 320 -578 320 -578 300 -586 c 128,-1,38
 280 -594 280 -594 254 -594 c 0,39,40
 215 -594 215 -594 192.5 -567 c 128,-1,41
 170 -540 170 -540 170 -502 c 0,42,43
 170 -462 170 -462 189 -409 c 128,-1,44
 208 -356 208 -356 242.5 -294.5 c 128,-1,45
 277 -233 277 -233 326 -165.5 c 128,-1,46
 375 -98 375 -98 435 -28 c 1,47,-1
 559 130 l 1,48,49
 521 95 521 95 484 70 c 128,-1,50
 447 45 447 45 413 29.5 c 128,-1,51
 379 14 379 14 349.5 7 c 128,-1,52
 320 0 320 0 298 0 c 0,53,54
 258 0 258 0 224 18.5 c 128,-1,55
 190 37 190 37 165.5 70 c 128,-1,56
 141 103 141 103 127 148 c 128,-1,57
 113 193 113 193 113 246 c 0,58,59
 113 356 113 356 155.5 445 c 128,-1,60
 198 534 198 534 264.5 596.5 c 128,-1,61
 331 659 331 659 411.5 693 c 128,-1,62
 492 727 492 727 569 727 c 0,0,1
531 551 m 0,63,64
 484 551 484 551 440 527.5 c 128,-1,65
 396 504 396 504 362 465.5 c 128,-1,66
 328 427 328 427 308 377 c 128,-1,67
 288 327 288 327 288 274 c 0,68,69
 288 258 288 258 290.5 239.5 c 128,-1,70
 293 221 293 221 301.5 205 c 128,-1,71
 310 189 310 189 326.5 178.5 c 128,-1,72
 343 168 343 168 372 168 c 0,73,74
 393 168 393 168 421.5 186.5 c 128,-1,75
 450 205 450 205 480.5 233.5 c 128,-1,76
 511 262 511 262 540 296.5 c 128,-1,77
 569 331 569 331 592.5 364 c 128,-1,78
 616 397 616 397 630 423.5 c 128,-1,79
 644 450 644 450 644 463 c 0,80,81
 644 485 644 485 632 501.5 c 128,-1,82
 620 518 620 518 602.5 529 c 128,-1,83
 585 540 585 540 565.5 545.5 c 128,-1,84
 546 551 546 551 531 551 c 0,63,64
EndSplineSet
EndChar

StartChar: h
Encoding: 104 104 75
Width: 898
GlyphClass: 2
Flags: W
LayerCount: 2
Fore
SplineSet
9 158 m 0,0,1
 33 209 33 209 64 271.5 c 128,-1,2
 95 334 95 334 126.5 395.5 c 128,-1,3
 158 457 158 457 186 512.5 c 128,-1,4
 214 568 214 568 233 607 c 2,5,-1
 563 1256 l 2,6,7
 569 1269 569 1269 581.5 1281 c 128,-1,8
 594 1293 594 1293 610 1302.5 c 128,-1,9
 626 1312 626 1312 644 1317.5 c 128,-1,10
 662 1323 662 1323 680 1323 c 0,11,12
 724 1323 724 1323 741 1306.5 c 128,-1,13
 758 1290 758 1290 758 1266 c 0,14,15
 758 1244 758 1244 747 1219.5 c 128,-1,16
 736 1195 736 1195 722 1174 c 1,17,18
 678 1099 678 1099 637.5 1022.5 c 128,-1,19
 597 946 597 946 556.5 868.5 c 128,-1,20
 516 791 516 791 475 714.5 c 128,-1,21
 434 638 434 638 389 563 c 1,22,23
 417 590 417 590 448.5 619 c 128,-1,24
 480 648 480 648 517 672 c 128,-1,25
 554 696 554 696 598 711.5 c 128,-1,26
 642 727 642 727 696 727 c 0,27,28
 728 727 728 727 757 721 c 128,-1,29
 786 715 786 715 808 701.5 c 128,-1,30
 830 688 830 688 843 664.5 c 128,-1,31
 856 641 856 641 856 607 c 0,32,33
 856 562 856 562 842.5 524.5 c 128,-1,34
 829 487 829 487 808 453.5 c 128,-1,35
 787 420 787 420 762 389.5 c 128,-1,36
 737 359 737 359 714.5 327.5 c 128,-1,37
 692 296 692 296 675.5 262 c 128,-1,38
 659 228 659 228 655 188 c 0,39,40
 655 186 655 186 654.5 184 c 128,-1,41
 654 182 654 182 654 180 c 0,42,43
 654 160 654 160 667.5 155 c 128,-1,44
 681 150 681 150 702 150 c 0,45,46
 729 150 729 150 760 160.5 c 128,-1,47
 791 171 791 171 822.5 188.5 c 128,-1,48
 854 206 854 206 885.5 228 c 128,-1,49
 917 250 917 250 945.5 273 c 128,-1,50
 974 296 974 296 998 317.5 c 128,-1,51
 1022 339 1022 339 1039 355 c 0,52,53
 1048 363 1048 363 1058 367 c 128,-1,54
 1068 371 1068 371 1077 371 c 0,55,56
 1095 371 1095 371 1107.5 357.5 c 128,-1,57
 1120 344 1120 344 1120 321 c 0,58,59
 1120 300 1120 300 1105.5 273 c 128,-1,60
 1091 246 1091 246 1056 219 c 1,61,62
 1001 171 1001 171 944 127 c 128,-1,63
 887 83 887 83 829 49 c 128,-1,64
 771 15 771 15 713.5 -5 c 128,-1,65
 656 -25 656 -25 601 -25 c 0,66,67
 530 -25 530 -25 487 7.5 c 128,-1,68
 444 40 444 40 444 110 c 0,69,70
 444 161 444 161 461.5 206.5 c 128,-1,71
 479 252 479 252 504.5 294.5 c 128,-1,72
 530 337 530 337 559 376.5 c 128,-1,73
 588 416 588 416 610 454 c 1,74,75
 622 471 622 471 628.5 485.5 c 128,-1,76
 635 500 635 500 635 517 c 0,77,78
 635 532 635 532 627 541.5 c 128,-1,79
 619 551 619 551 602 551 c 0,80,81
 543 551 543 551 493 522 c 128,-1,82
 443 493 443 493 401 448 c 128,-1,83
 359 403 359 403 323 349.5 c 128,-1,84
 287 296 287 296 256 247 c 0,85,86
 242 225 242 225 227.5 196.5 c 128,-1,87
 213 168 213 168 197.5 138 c 128,-1,88
 182 108 182 108 165 78.5 c 128,-1,89
 148 49 148 49 129.5 26 c 128,-1,90
 111 3 111 3 90.5 -11 c 128,-1,91
 70 -25 70 -25 48 -25 c 0,92,93
 13 -25 13 -25 -6 -4.5 c 128,-1,94
 -25 16 -25 16 -25 47 c 0,95,96
 -25 70 -25 70 -17 95.5 c 128,-1,97
 -9 121 -9 121 9 158 c 0,0,1
EndSplineSet
EndChar

StartChar: i
Encoding: 105 105 76
Width: 480
GlyphClass: 2
Flags: W
LayerCount: 2
Fore
SplineSet
346 865 m 1,0,1
 346 888 346 888 354.5 912.5 c 128,-1,2
 363 937 363 937 380 957 c 128,-1,3
 397 977 397 977 422.5 990 c 128,-1,4
 448 1003 448 1003 483 1003 c 0,5,6
 541 1003 541 1003 564 980.5 c 128,-1,7
 587 958 587 958 587 924 c 0,8,9
 587 905 587 905 579.5 882 c 128,-1,10
 572 859 572 859 557 839.5 c 128,-1,11
 542 820 542 820 518 807 c 128,-1,12
 494 794 494 794 461 794 c 0,13,14
 399 794 399 794 374 813.5 c 128,-1,15
 349 833 349 833 346 865 c 1,0,1
236 640 m 1,16,17
 253 668 253 668 275 680 c 128,-1,18
 297 692 297 692 320 692 c 0,19,20
 358 692 358 692 385.5 667.5 c 128,-1,21
 413 643 413 643 413 605 c 1,22,23
 412 596 412 596 410.5 587 c 128,-1,24
 409 578 409 578 404 569 c 0,25,26
 390 543 390 543 381 525 c 128,-1,27
 372 507 372 507 364.5 491.5 c 128,-1,28
 357 476 357 476 350 461 c 128,-1,29
 343 446 343 446 333 425 c 0,30,31
 321 400 321 400 306 370.5 c 128,-1,32
 291 341 291 341 277.5 310 c 128,-1,33
 264 279 264 279 254.5 249 c 128,-1,34
 245 219 245 219 245 194 c 0,35,36
 245 167 245 167 258.5 158.5 c 128,-1,37
 272 150 272 150 297 150 c 0,38,39
 325 150 325 150 355.5 162 c 128,-1,40
 386 174 386 174 417 193 c 128,-1,41
 448 212 448 212 478 236.5 c 128,-1,42
 508 261 508 261 534.5 286 c 128,-1,43
 561 311 561 311 583.5 334 c 128,-1,44
 606 357 606 357 621 375 c 1,45,46
 641 394 641 394 661 394 c 0,47,48
 679 394 679 394 690.5 378 c 128,-1,49
 702 362 702 362 702 337 c 0,50,51
 702 314 702 314 690.5 288 c 128,-1,52
 679 262 679 262 653 239 c 1,53,54
 602 187 602 187 549 139.5 c 128,-1,55
 496 92 496 92 440.5 55.5 c 128,-1,56
 385 19 385 19 329 -3 c 128,-1,57
 273 -25 273 -25 216 -25 c 0,58,59
 135 -25 135 -25 88.5 16.5 c 128,-1,60
 42 58 42 58 42 146 c 0,61,62
 42 192 42 192 55 236 c 128,-1,63
 68 280 68 280 86 321.5 c 128,-1,64
 104 363 104 363 124 401.5 c 128,-1,65
 144 440 144 440 158 475 c 0,66,67
 163 488 163 488 175.5 515 c 128,-1,68
 188 542 188 542 202 570 c 0,69,70
 218 603 218 603 236 640 c 1,16,17
EndSplineSet
EndChar

StartChar: j
Encoding: 106 106 77
Width: 486
GlyphClass: 2
Flags: W
LayerCount: 2
Fore
SplineSet
401 865 m 1,0,1
 402 888 402 888 411.5 912.5 c 128,-1,2
 421 937 421 937 439 957 c 128,-1,3
 457 977 457 977 483 990 c 128,-1,4
 509 1003 509 1003 544 1003 c 0,5,6
 599 1003 599 1003 621.5 982.5 c 128,-1,7
 644 962 644 962 644 931 c 0,8,9
 644 911 644 911 636.5 887.5 c 128,-1,10
 629 864 629 864 613.5 843 c 128,-1,11
 598 822 598 822 573 808 c 128,-1,12
 548 794 548 794 513 794 c 0,13,14
 451 794 451 794 426.5 813.5 c 128,-1,15
 402 833 402 833 401 865 c 1,0,1
225 127 m 1,16,17
 285 178 285 178 378.5 242.5 c 128,-1,18
 472 307 472 307 606 388 c 0,19,20
 621 397 621 397 635 397 c 0,21,22
 657 397 657 397 671.5 379 c 128,-1,23
 686 361 686 361 686 335 c 128,-1,24
 686 309 686 309 666 278.5 c 128,-1,25
 646 248 646 248 599 224 c 1,26,-1
 261 -8 l 1,27,28
 239 -28 239 -28 221.5 -42.5 c 128,-1,29
 204 -57 204 -57 186.5 -70.5 c 128,-1,30
 169 -84 169 -84 150.5 -97.5 c 128,-1,31
 132 -111 132 -111 109 -127 c 1,32,33
 60 -211 60 -211 21 -269.5 c 128,-1,34
 -18 -328 -18 -328 -56 -364.5 c 128,-1,35
 -94 -401 -94 -401 -134 -418 c 128,-1,36
 -174 -435 -174 -435 -225 -435 c 0,37,38
 -272 -435 -272 -435 -290.5 -416.5 c 128,-1,39
 -309 -398 -309 -398 -309 -365 c 0,40,41
 -309 -334 -309 -334 -280 -302.5 c 128,-1,42
 -251 -271 -251 -271 -212 -237.5 c 128,-1,43
 -173 -204 -173 -204 -133.5 -166.5 c 128,-1,44
 -94 -129 -94 -129 -73 -85 c 0,45,46
 -46 -29 -46 -29 -15.5 35 c 128,-1,47
 15 99 15 99 46 165 c 128,-1,48
 77 231 77 231 108.5 296.5 c 128,-1,49
 140 362 140 362 168.5 421.5 c 128,-1,50
 197 481 197 481 222.5 532 c 128,-1,51
 248 583 248 583 267 619 c 0,52,53
 287 657 287 657 318.5 674.5 c 128,-1,54
 350 692 350 692 380 692 c 0,55,56
 412 692 412 692 435 674 c 128,-1,57
 458 656 458 656 458 623 c 0,58,59
 458 601 458 601 454.5 583 c 128,-1,60
 451 565 451 565 441 542.5 c 128,-1,61
 431 520 431 520 414.5 488.5 c 128,-1,62
 398 457 398 457 372 409 c 128,-1,63
 346 361 346 361 310 292.5 c 128,-1,64
 274 224 274 224 225 127 c 1,16,17
EndSplineSet
EndChar

StartChar: k
Encoding: 107 107 78
Width: 960
GlyphClass: 2
Flags: W
LayerCount: 2
Fore
SplineSet
375 512 m 1,0,1
 413 551 413 551 455.5 589.5 c 128,-1,2
 498 628 498 628 544.5 658.5 c 128,-1,3
 591 689 591 689 642 708 c 128,-1,4
 693 727 693 727 749 727 c 0,5,6
 782 727 782 727 817 719.5 c 128,-1,7
 852 712 852 712 880.5 695 c 128,-1,8
 909 678 909 678 927 651 c 128,-1,9
 945 624 945 624 945 585 c 0,10,11
 945 521 945 521 915.5 469 c 128,-1,12
 886 417 886 417 839 376 c 128,-1,13
 792 335 792 335 734.5 303.5 c 128,-1,14
 677 272 677 272 622 250 c 0,15,16
 608 244 608 244 596 234.5 c 128,-1,17
 584 225 584 225 575.5 214.5 c 128,-1,18
 567 204 567 204 562 193.5 c 128,-1,19
 557 183 557 183 557 176 c 0,20,21
 557 164 557 164 564.5 155.5 c 128,-1,22
 572 147 572 147 591 147 c 0,23,24
 628 147 628 147 675 162 c 128,-1,25
 722 177 722 177 784.5 207.5 c 128,-1,26
 847 238 847 238 927.5 285 c 128,-1,27
 1008 332 1008 332 1113 396 c 0,28,29
 1130 406 1130 406 1145 406 c 0,30,31
 1164 406 1164 406 1175 392 c 128,-1,32
 1186 378 1186 378 1186 355 c 0,33,34
 1186 327 1186 327 1165.5 291.5 c 128,-1,35
 1145 256 1145 256 1097 224 c 1,36,37
 1030 183 1030 183 960 139 c 128,-1,38
 890 95 890 95 816 58.5 c 128,-1,39
 742 22 742 22 664 -1.5 c 128,-1,40
 586 -25 586 -25 504 -25 c 0,41,42
 362 -25 362 -25 362 98 c 0,43,44
 362 163 362 163 389.5 212.5 c 128,-1,45
 417 262 417 262 456.5 299 c 128,-1,46
 496 336 496 336 539 362.5 c 128,-1,47
 582 389 582 389 613 410 c 1,48,49
 637 424 637 424 658 440 c 128,-1,50
 679 456 679 456 695.5 473 c 128,-1,51
 712 490 712 490 721.5 507.5 c 128,-1,52
 731 525 731 525 731 543 c 0,53,54
 731 572 731 572 704 572 c 0,55,56
 604 572 604 572 424 379 c 0,57,58
 383 335 383 335 349 293.5 c 128,-1,59
 315 252 315 252 285.5 212 c 128,-1,60
 256 172 256 172 229 134.5 c 128,-1,61
 202 97 202 97 176 63 c 1,62,63
 98 -25 98 -25 37 -25 c 0,64,65
 8 -25 8 -25 -5 -14.5 c 128,-1,66
 -18 -4 -18 -4 -18 25 c 0,67,68
 -18 29 -18 29 -18 33 c 128,-1,69
 -18 37 -18 37 -17 42 c 0,70,71
 -15 62 -15 62 0 103 c 128,-1,72
 15 144 15 144 37.5 196 c 128,-1,73
 60 248 60 248 87.5 307 c 128,-1,74
 115 366 115 366 142 422.5 c 128,-1,75
 169 479 169 479 193 528.5 c 128,-1,76
 217 578 217 578 233 611 c 2,77,-1
 549 1256 l 2,78,79
 555 1269 555 1269 567.5 1281 c 128,-1,80
 580 1293 580 1293 595.5 1302.5 c 128,-1,81
 611 1312 611 1312 628.5 1317.5 c 128,-1,82
 646 1323 646 1323 664 1323 c 0,83,84
 709 1323 709 1323 726.5 1306 c 128,-1,85
 744 1289 744 1289 744 1265 c 0,86,87
 744 1243 744 1243 733.5 1219 c 128,-1,88
 723 1195 723 1195 709 1174 c 1,89,90
 667 1099 667 1099 625.5 1014.5 c 128,-1,91
 584 930 584 930 543 843 c 128,-1,92
 502 756 502 756 460 671.5 c 128,-1,93
 418 587 418 587 375 512 c 1,0,1
EndSplineSet
EndChar

StartChar: l
Encoding: 108 108 79
Width: 528
GlyphClass: 2
Flags: W
LayerCount: 2
Fore
SplineSet
273 289 m 0,0,1
 262 266 262 266 251.5 235.5 c 128,-1,2
 241 205 241 205 241 181 c 0,3,4
 241 166 241 166 247 157 c 128,-1,5
 253 148 253 148 270 148 c 0,6,7
 291 148 291 148 322.5 160.5 c 128,-1,8
 354 173 354 173 390.5 193.5 c 128,-1,9
 427 214 427 214 466.5 240.5 c 128,-1,10
 506 267 506 267 545 295.5 c 128,-1,11
 584 324 584 324 619.5 352.5 c 128,-1,12
 655 381 655 381 683 405 c 0,13,14
 691 412 691 412 702 415 c 128,-1,15
 713 418 713 418 721 418 c 0,16,17
 741 418 741 418 754 404 c 128,-1,18
 767 390 767 390 767 367 c 0,19,20
 767 346 767 346 753 320 c 128,-1,21
 739 294 739 294 704 269 c 1,22,23
 640 210 640 210 575 157 c 128,-1,24
 510 104 510 104 445.5 63.5 c 128,-1,25
 381 23 381 23 317.5 -1 c 128,-1,26
 254 -25 254 -25 194 -25 c 0,27,28
 153 -25 153 -25 125.5 -14 c 128,-1,29
 98 -3 98 -3 81.5 16 c 128,-1,30
 65 35 65 35 58 61 c 128,-1,31
 51 87 51 87 51 116 c 0,32,33
 51 165 51 165 65.5 216.5 c 128,-1,34
 80 268 80 268 100 311 c 0,35,36
 135 389 135 389 171 466 c 128,-1,37
 207 543 207 543 237 607 c 2,38,-1
 540 1252 l 2,39,40
 558 1291 558 1291 588.5 1307 c 128,-1,41
 619 1323 619 1323 650 1323 c 128,-1,42
 681 1323 681 1323 706.5 1306 c 128,-1,43
 732 1289 732 1289 732 1251 c 0,44,45
 732 1233 732 1233 723.5 1213 c 128,-1,46
 715 1193 715 1193 702 1170 c 0,47,48
 677 1123 677 1123 642.5 1055 c 128,-1,49
 608 987 608 987 568.5 907 c 128,-1,50
 529 827 529 827 487.5 740.5 c 128,-1,51
 446 654 446 654 406.5 572 c 128,-1,52
 367 490 367 490 332.5 416.5 c 128,-1,53
 298 343 298 343 273 289 c 0,0,1
EndSplineSet
EndChar

StartChar: m
Encoding: 109 109 80
Width: 1312
GlyphClass: 2
Flags: W
LayerCount: 2
Fore
SplineSet
422 34 m 1,0,1
 422 82 422 82 443.5 132 c 128,-1,2
 465 182 465 182 498 235 c 128,-1,3
 531 288 531 288 570 342.5 c 128,-1,4
 609 397 609 397 644 454 c 0,5,6
 654 470 654 470 660 484.5 c 128,-1,7
 666 499 666 499 666 514 c 0,8,9
 666 530 666 530 657 540.5 c 128,-1,10
 648 551 648 551 631 551 c 0,11,12
 590 551 590 551 552 533.5 c 128,-1,13
 514 516 514 516 479 487.5 c 128,-1,14
 444 459 444 459 412.5 422 c 128,-1,15
 381 385 381 385 353.5 345.5 c 128,-1,16
 326 306 326 306 302 267 c 128,-1,17
 278 228 278 228 258 196 c 1,18,19
 240 163 240 163 225 124 c 128,-1,20
 210 85 210 85 192.5 52 c 128,-1,21
 175 19 175 19 153 -3.5 c 128,-1,22
 131 -26 131 -26 98 -26 c 0,23,24
 62 -26 62 -26 41 -3 c 128,-1,25
 20 20 20 20 20 52 c 0,26,27
 20 70 20 70 33 108 c 128,-1,28
 46 146 46 146 66.5 196.5 c 128,-1,29
 87 247 87 247 113 304 c 128,-1,30
 139 361 139 361 164.5 417 c 128,-1,31
 190 473 190 473 212.5 522.5 c 128,-1,32
 235 572 235 572 250 607 c 0,33,34
 268 650 268 650 297.5 671 c 128,-1,35
 327 692 327 692 356 692 c 0,36,37
 381 692 381 692 400.5 673.5 c 128,-1,38
 420 655 420 655 420 620 c 0,39,40
 420 594 420 594 408 563 c 1,41,42
 435 588 435 588 466 617 c 128,-1,43
 497 646 497 646 533.5 670.5 c 128,-1,44
 570 695 570 695 615 711 c 128,-1,45
 660 727 660 727 716 727 c 0,46,47
 744 727 744 727 769 720 c 128,-1,48
 794 713 794 713 813.5 698 c 128,-1,49
 833 683 833 683 845.5 659 c 128,-1,50
 858 635 858 635 860 601 c 1,51,52
 883 624 883 624 910 646.5 c 128,-1,53
 937 669 937 669 968.5 687 c 128,-1,54
 1000 705 1000 705 1037 716 c 128,-1,55
 1074 727 1074 727 1119 727 c 0,56,57
 1152 727 1152 727 1182 720 c 128,-1,58
 1212 713 1212 713 1235.5 696.5 c 128,-1,59
 1259 680 1259 680 1272.5 654 c 128,-1,60
 1286 628 1286 628 1286 590 c 0,61,62
 1286 530 1286 530 1258.5 476 c 128,-1,63
 1231 422 1231 422 1194 377 c 0,64,65
 1182 362 1182 362 1162 339 c 128,-1,66
 1142 316 1142 316 1123 290 c 128,-1,67
 1104 264 1104 264 1090 236.5 c 128,-1,68
 1076 209 1076 209 1076 185 c 0,69,70
 1076 163 1076 163 1089.5 157 c 128,-1,71
 1103 151 1103 151 1125 151 c 0,72,73
 1167 151 1167 151 1216 176 c 128,-1,74
 1265 201 1265 201 1311.5 236.5 c 128,-1,75
 1358 272 1358 272 1398.5 310.5 c 128,-1,76
 1439 349 1439 349 1463 375 c 0,77,78
 1469 382 1469 382 1477 385 c 128,-1,79
 1485 388 1485 388 1493 388 c 0,80,81
 1511 388 1511 388 1525.5 372 c 128,-1,82
 1540 356 1540 356 1540 330 c 0,83,84
 1540 310 1540 310 1528 286 c 128,-1,85
 1516 262 1516 262 1487 239 c 1,86,87
 1433 187 1433 187 1376.5 139.5 c 128,-1,88
 1320 92 1320 92 1262.5 55.5 c 128,-1,89
 1205 19 1205 19 1147.5 -3 c 128,-1,90
 1090 -25 1090 -25 1033 -25 c 0,91,92
 959 -25 959 -25 913.5 10 c 128,-1,93
 868 45 868 45 868 121 c 0,94,95
 868 171 868 171 887 215 c 128,-1,96
 906 259 906 259 934 299.5 c 128,-1,97
 962 340 962 340 993 378 c 128,-1,98
 1024 416 1024 416 1047 454 c 0,99,100
 1057 470 1057 470 1063 484.5 c 128,-1,101
 1069 499 1069 499 1069 514 c 0,102,103
 1069 530 1069 530 1060 540.5 c 128,-1,104
 1051 551 1051 551 1034 551 c 0,105,106
 993 551 993 551 955 533.5 c 128,-1,107
 917 516 917 516 882 487.5 c 128,-1,108
 847 459 847 459 815.5 422 c 128,-1,109
 784 385 784 385 756.5 345.5 c 128,-1,110
 729 306 729 306 705 267 c 128,-1,111
 681 228 681 228 661 196 c 1,112,113
 643 163 643 163 628 124 c 128,-1,114
 613 85 613 85 595.5 52 c 128,-1,115
 578 19 578 19 556 -3.5 c 128,-1,116
 534 -26 534 -26 501 -26 c 0,117,118
 489 -26 489 -26 475 -21.5 c 128,-1,119
 461 -17 461 -17 449.5 -9 c 128,-1,120
 438 -1 438 -1 430.5 10 c 128,-1,121
 423 21 423 21 422 34 c 1,0,1
EndSplineSet
EndChar

StartChar: n
Encoding: 110 110 81
Width: 951
GlyphClass: 2
Flags: W
LayerCount: 2
Fore
SplineSet
265 607 m 0,0,1
 285 650 285 650 315 671 c 128,-1,2
 345 692 345 692 374 692 c 0,3,4
 398 692 398 692 417 674.5 c 128,-1,5
 436 657 436 657 436 623 c 0,6,7
 436 610 436 610 433 595 c 128,-1,8
 430 580 430 580 422 563 c 1,9,10
 444 591 444 591 485 620.5 c 128,-1,11
 526 650 526 650 575.5 673.5 c 128,-1,12
 625 697 625 697 677.5 712 c 128,-1,13
 730 727 730 727 777 727 c 0,14,15
 830 727 830 727 865.5 701.5 c 128,-1,16
 901 676 901 676 901 615 c 0,17,18
 901 579 901 579 890 540 c 128,-1,19
 879 501 879 501 861.5 462 c 128,-1,20
 844 423 844 423 822.5 385.5 c 128,-1,21
 801 348 801 348 780 315 c 128,-1,22
 759 282 759 282 741.5 254.5 c 128,-1,23
 724 227 724 227 714 209 c 1,24,25
 701 193 701 193 701 172 c 0,26,27
 701 164 701 164 706 158 c 128,-1,28
 711 152 711 152 722 152 c 0,29,30
 729 152 729 152 738 153.5 c 128,-1,31
 747 155 747 155 760 164 c 1,32,33
 814 184 814 184 870.5 214 c 128,-1,34
 927 244 927 244 979 277.5 c 128,-1,35
 1031 311 1031 311 1074.5 344.5 c 128,-1,36
 1118 378 1118 378 1147 405 c 0,37,38
 1155 412 1155 412 1163 415 c 128,-1,39
 1171 418 1171 418 1178 418 c 0,40,41
 1195 418 1195 418 1204.5 405 c 128,-1,42
 1214 392 1214 392 1214 372 c 0,43,44
 1214 341 1214 341 1194.5 303 c 128,-1,45
 1175 265 1175 265 1133 232 c 1,46,47
 1076 191 1076 191 1028.5 157 c 128,-1,48
 981 123 981 123 931.5 93.5 c 128,-1,49
 882 64 882 64 825.5 38.5 c 128,-1,50
 769 13 769 13 693 -9 c 0,51,52
 667 -17 667 -17 645.5 -21 c 128,-1,53
 624 -25 624 -25 606 -25 c 0,54,55
 553 -25 553 -25 528.5 4.5 c 128,-1,56
 504 34 504 34 504 87 c 0,57,58
 504 94 504 94 504.5 100.5 c 128,-1,59
 505 107 505 107 506 115 c 0,60,61
 508 146 508 146 522.5 183 c 128,-1,62
 537 220 537 220 557.5 259 c 128,-1,63
 578 298 578 298 601 336.5 c 128,-1,64
 624 375 624 375 643.5 409.5 c 128,-1,65
 663 444 663 444 676 471 c 128,-1,66
 689 498 689 498 689 515 c 0,67,68
 689 530 689 530 680.5 540.5 c 128,-1,69
 672 551 672 551 655 551 c 0,70,71
 591 551 591 551 533.5 513 c 128,-1,72
 476 475 476 475 426 419.5 c 128,-1,73
 376 364 376 364 334 302 c 128,-1,74
 292 240 292 240 260 191 c 1,75,76
 240 158 240 158 223.5 120.5 c 128,-1,77
 207 83 207 83 189 50.5 c 128,-1,78
 171 18 171 18 148.5 -3.5 c 128,-1,79
 126 -25 126 -25 92 -25 c 0,80,81
 57 -25 57 -25 37 -3 c 128,-1,82
 17 19 17 19 17 51 c 0,83,84
 17 68 17 68 31 106 c 128,-1,85
 45 144 45 144 67 194 c 128,-1,86
 89 244 89 244 116.5 301.5 c 128,-1,87
 144 359 144 359 171.5 415.5 c 128,-1,88
 199 472 199 472 224 522 c 128,-1,89
 249 572 249 572 265 607 c 0,0,1
EndSplineSet
EndChar

StartChar: o
Encoding: 111 111 82
Width: 848
GlyphClass: 2
Flags: W
LayerCount: 2
Fore
SplineSet
488 551 m 0,0,1
 441 551 441 551 397.5 527.5 c 128,-1,2
 354 504 354 504 320.5 465.5 c 128,-1,3
 287 427 287 427 267 378.5 c 128,-1,4
 247 330 247 330 247 279 c 0,5,6
 247 260 247 260 250 237.5 c 128,-1,7
 253 215 253 215 262.5 195.5 c 128,-1,8
 272 176 272 176 290 163 c 128,-1,9
 308 150 308 150 338 150 c 0,10,11
 384 150 384 150 427.5 174.5 c 128,-1,12
 471 199 471 199 505 238.5 c 128,-1,13
 539 278 539 278 559 328 c 128,-1,14
 579 378 579 378 579 429 c 0,15,16
 579 449 579 449 576.5 470.5 c 128,-1,17
 574 492 574 492 564.5 510 c 128,-1,18
 555 528 555 528 537 539.5 c 128,-1,19
 519 551 519 551 488 551 c 0,0,1
540 727 m 0,20,21
 578 727 578 727 621.5 717 c 128,-1,22
 665 707 665 707 702 683 c 128,-1,23
 739 659 739 659 763.5 619.5 c 128,-1,24
 788 580 788 580 788 522 c 0,25,26
 788 492 788 492 780 453.5 c 128,-1,27
 772 415 772 415 756 373 c 1,28,29
 766 361 766 361 779 356 c 128,-1,30
 792 351 792 351 807 351 c 0,31,32
 828 351 828 351 853.5 363 c 128,-1,33
 879 375 879 375 906 394 c 128,-1,34
 933 413 933 413 960 437 c 128,-1,35
 987 461 987 461 1011 485 c 128,-1,36
 1035 509 1035 509 1054.5 530.5 c 128,-1,37
 1074 552 1074 552 1087 567 c 0,38,39
 1094 574 1094 574 1104 574 c 0,40,41
 1118 574 1118 574 1129 559.5 c 128,-1,42
 1140 545 1140 545 1140 519 c 128,-1,43
 1140 493 1140 493 1124.5 459 c 128,-1,44
 1109 425 1109 425 1067 388 c 1,45,46
 1043 362 1043 362 1012 328 c 128,-1,47
 981 294 981 294 946 264 c 128,-1,48
 911 234 911 234 873 213 c 128,-1,49
 835 192 835 192 797 192 c 0,50,51
 771 192 771 192 746.5 200 c 128,-1,52
 722 208 722 208 697 226 c 1,53,54
 661 170 661 170 615 124 c 128,-1,55
 569 78 569 78 512.5 45 c 128,-1,56
 456 12 456 12 390.5 -6.5 c 128,-1,57
 325 -25 325 -25 251 -25 c 0,58,59
 223 -25 223 -25 186 -14 c 128,-1,60
 149 -3 149 -3 115.5 22.5 c 128,-1,61
 82 48 82 48 59 89 c 128,-1,62
 36 130 36 130 36 189 c 0,63,64
 36 229 36 229 49 285 c 128,-1,65
 62 341 62 341 88.5 400.5 c 128,-1,66
 115 460 115 460 155.5 518.5 c 128,-1,67
 196 577 196 577 252 623.5 c 128,-1,68
 308 670 308 670 380 698.5 c 128,-1,69
 452 727 452 727 540 727 c 0,20,21
EndSplineSet
EndChar

StartChar: p
Encoding: 112 112 83
Width: 979
GlyphClass: 2
Flags: W
LayerCount: 2
Fore
SplineSet
1162 470 m 1,0,1
 1176 478 1176 478 1188 483 c 128,-1,2
 1200 488 1200 488 1211 488 c 0,3,4
 1233 488 1233 488 1244 471.5 c 128,-1,5
 1255 455 1255 455 1255 431 c 0,6,7
 1255 405 1255 405 1241.5 378 c 128,-1,8
 1228 351 1228 351 1201 333 c 1,9,10
 1094 253 1094 253 1010 187 c 128,-1,11
 926 121 926 121 851.5 73.5 c 128,-1,12
 777 26 777 26 706 0 c 128,-1,13
 635 -26 635 -26 554 -26 c 0,14,15
 478 -26 478 -26 436.5 2 c 128,-1,16
 395 30 395 30 395 79 c 0,17,18
 395 83 395 83 395 86.5 c 128,-1,19
 395 90 395 90 396 95 c 0,20,21
 400 125 400 125 427 164 c 128,-1,22
 454 203 454 203 492 245 c 128,-1,23
 530 287 530 287 573 330 c 128,-1,24
 616 373 616 373 652.5 411.5 c 128,-1,25
 689 450 689 450 713 482 c 128,-1,26
 737 514 737 514 737 534 c 0,27,28
 737 546 737 546 727 553 c 128,-1,29
 717 560 717 560 694 560 c 0,30,31
 654 560 654 560 611.5 542.5 c 128,-1,32
 569 525 569 525 527.5 495.5 c 128,-1,33
 486 466 486 466 446.5 428 c 128,-1,34
 407 390 407 390 372.5 349 c 128,-1,35
 338 308 338 308 309.5 266.5 c 128,-1,36
 281 225 281 225 261 190 c 0,37,38
 255 179 255 179 244 159 c 128,-1,39
 233 139 233 139 220 114 c 128,-1,40
 207 89 207 89 192.5 62.5 c 128,-1,41
 178 36 178 36 166 12.5 c 128,-1,42
 154 -11 154 -11 144.5 -29.5 c 128,-1,43
 135 -48 135 -48 131 -55 c 0,44,45
 126 -64 126 -64 114.5 -89 c 128,-1,46
 103 -114 103 -114 88 -147.5 c 128,-1,47
 73 -181 73 -181 56.5 -218 c 128,-1,48
 40 -255 40 -255 25.5 -288 c 128,-1,49
 11 -321 11 -321 0 -346 c 128,-1,50
 -11 -371 -11 -371 -14 -380 c 0,51,52
 -24 -406 -24 -406 -37.5 -429 c 128,-1,53
 -51 -452 -51 -452 -68.5 -469.5 c 128,-1,54
 -86 -487 -86 -487 -108.5 -497.5 c 128,-1,55
 -131 -508 -131 -508 -159 -508 c 0,56,57
 -195 -508 -195 -508 -218.5 -493.5 c 128,-1,58
 -242 -479 -242 -479 -242 -438 c 0,59,60
 -242 -418 -242 -418 -236 -397 c 128,-1,61
 -230 -376 -230 -376 -221 -355.5 c 128,-1,62
 -212 -335 -212 -335 -202.5 -315.5 c 128,-1,63
 -193 -296 -193 -296 -185 -278 c 1,64,65
 -131 -178 -131 -178 -75 -77.5 c 128,-1,66
 -19 23 -19 23 32.5 121.5 c 128,-1,67
 84 220 84 220 128 315 c 128,-1,68
 172 410 172 410 201 497 c 1,69,70
 209 515 209 515 223 548 c 128,-1,71
 237 581 237 581 255 613 c 128,-1,72
 273 645 273 645 295.5 668.5 c 128,-1,73
 318 692 318 692 344 692 c 0,74,75
 384 692 384 692 402 676.5 c 128,-1,76
 420 661 420 661 420 631 c 0,77,78
 420 625 420 625 418 612 c 128,-1,79
 416 599 416 599 413 584.5 c 128,-1,80
 410 570 410 570 406.5 557 c 128,-1,81
 403 544 403 544 400 538 c 1,82,83
 437 572 437 572 480 605.5 c 128,-1,84
 523 639 523 639 569 666 c 128,-1,85
 615 693 615 693 663 710 c 128,-1,86
 711 727 711 727 759 727 c 0,87,88
 792 727 792 727 824.5 719 c 128,-1,89
 857 711 857 711 882.5 695.5 c 128,-1,90
 908 680 908 680 924 656.5 c 128,-1,91
 940 633 940 633 940 602 c 0,92,93
 940 561 940 561 915.5 514.5 c 128,-1,94
 891 468 891 468 854 421 c 128,-1,95
 817 374 817 374 774 329.5 c 128,-1,96
 731 285 731 285 693.5 248.5 c 128,-1,97
 656 212 656 212 630.5 186.5 c 128,-1,98
 605 161 605 161 604 152 c 1,99,100
 604 140 604 140 613 132.5 c 128,-1,101
 622 125 622 125 643 125 c 0,102,103
 660 125 660 125 693 141 c 128,-1,104
 726 157 726 157 785.5 196.5 c 128,-1,105
 845 236 845 236 936.5 302.5 c 128,-1,106
 1028 369 1028 369 1162 470 c 1,0,1
EndSplineSet
EndChar

StartChar: q
Encoding: 113 113 84
Width: 852
GlyphClass: 2
Flags: W
LayerCount: 2
Fore
SplineSet
645 502 m 1,0,1
 637 521 637 521 622 537 c 0,2,3
 609 551 609 551 588 562 c 128,-1,4
 567 573 567 573 535 573 c 0,5,6
 477 573 477 573 427 541 c 128,-1,7
 377 509 377 509 340 459.5 c 128,-1,8
 303 410 303 410 282 350 c 128,-1,9
 261 290 261 290 261 234 c 0,10,11
 261 190 261 190 275.5 171 c 128,-1,12
 290 152 290 152 315 152 c 0,13,14
 349 152 349 152 385.5 173 c 128,-1,15
 422 194 422 194 462.5 237 c 128,-1,16
 503 280 503 280 548 346 c 128,-1,17
 593 412 593 412 645 502 c 1,0,1
427 -264 m 1,18,19
 418 -286 418 -286 405 -312.5 c 128,-1,20
 392 -339 392 -339 392 -360 c 0,21,22
 392 -383 392 -383 414 -383 c 0,23,24
 430 -383 430 -383 450.5 -361 c 128,-1,25
 471 -339 471 -339 494.5 -302 c 128,-1,26
 518 -265 518 -265 543.5 -217 c 128,-1,27
 569 -169 569 -169 594.5 -116.5 c 128,-1,28
 620 -64 620 -64 644.5 -11.5 c 128,-1,29
 669 41 669 41 690 87.5 c 128,-1,30
 711 134 711 134 727.5 170.5 c 128,-1,31
 744 207 744 207 755 226 c 1,32,33
 777 254 777 254 809 278 c 128,-1,34
 841 302 841 302 878.5 326 c 128,-1,35
 916 350 916 350 958 374.5 c 128,-1,36
 1000 399 1000 399 1043 428 c 1,37,38
 1056 434 1056 434 1067 434 c 0,39,40
 1087 434 1087 434 1097.5 414.5 c 128,-1,41
 1108 395 1108 395 1108 366 c 0,42,43
 1108 347 1108 347 1103.5 326.5 c 128,-1,44
 1099 306 1099 306 1089.5 286.5 c 128,-1,45
 1080 267 1080 267 1065.5 250.5 c 128,-1,46
 1051 234 1051 234 1032 224 c 1,47,-1
 891 138 l 1,48,49
 869 122 869 122 847.5 82 c 128,-1,50
 826 42 826 42 803 -12.5 c 128,-1,51
 780 -67 780 -67 754 -131.5 c 128,-1,52
 728 -196 728 -196 696.5 -260.5 c 128,-1,53
 665 -325 665 -325 628 -385 c 128,-1,54
 591 -445 591 -445 545.5 -491.5 c 128,-1,55
 500 -538 500 -538 445 -566 c 128,-1,56
 390 -594 390 -594 323 -594 c 0,57,58
 293 -594 293 -594 267.5 -585 c 128,-1,59
 242 -576 242 -576 223 -559.5 c 128,-1,60
 204 -543 204 -543 193 -520 c 128,-1,61
 182 -497 182 -497 182 -468 c 0,62,63
 182 -449 182 -449 183 -436 c 128,-1,64
 184 -423 184 -423 189 -406.5 c 128,-1,65
 194 -390 194 -390 206 -365.5 c 128,-1,66
 218 -341 218 -341 239 -299 c 2,67,-1
 409 37 l 1,68,69
 377 8 377 8 342.5 -8.5 c 128,-1,70
 308 -25 308 -25 270 -25 c 0,71,72
 222 -25 222 -25 187 -5 c 128,-1,73
 152 15 152 15 129 48 c 128,-1,74
 106 81 106 81 95 124.5 c 128,-1,75
 84 168 84 168 84 215 c 0,76,77
 84 301 84 301 110 373 c 128,-1,78
 136 445 136 445 177.5 501.5 c 128,-1,79
 219 558 219 558 271.5 600.5 c 128,-1,80
 324 643 324 643 376 671 c 128,-1,81
 428 699 428 699 474.5 713 c 128,-1,82
 521 727 521 727 552 727 c 0,83,84
 594 727 594 727 624.5 713 c 128,-1,85
 655 699 655 699 675 682 c 0,86,87
 699 662 699 662 714 637 c 1,88,89
 730 652 730 652 745 664 c 0,90,91
 758 675 758 675 771.5 683.5 c 128,-1,92
 785 692 785 692 795 692 c 0,93,94
 828 692 828 692 846.5 672.5 c 128,-1,95
 865 653 865 653 865 624 c 0,96,97
 865 601 865 601 852 575 c 2,98,-1
 427 -264 l 1,18,19
EndSplineSet
EndChar

StartChar: r
Encoding: 114 114 85
Width: 843
GlyphClass: 2
Flags: W
LayerCount: 2
Fore
SplineSet
454 583 m 1,0,1
 493 607 493 607 534.5 627 c 128,-1,2
 576 647 576 647 615 661.5 c 128,-1,3
 654 676 654 676 689.5 684.5 c 128,-1,4
 725 693 725 693 753 693 c 0,5,6
 798 693 798 693 822.5 671.5 c 128,-1,7
 847 650 847 650 847 599 c 0,8,9
 847 588 847 588 846 575.5 c 128,-1,10
 845 563 845 563 842 549 c 0,11,12
 837 523 837 523 812 488 c 128,-1,13
 787 453 787 453 753.5 415 c 128,-1,14
 720 377 720 377 681.5 338.5 c 128,-1,15
 643 300 643 300 610.5 267.5 c 128,-1,16
 578 235 578 235 556.5 211 c 128,-1,17
 535 187 535 187 535 178 c 0,18,19
 535 170 535 170 536 167 c 128,-1,20
 537 164 537 164 545 164 c 1,21,22
 599 187 599 187 665.5 219.5 c 128,-1,23
 732 252 732 252 798 286 c 128,-1,24
 864 320 864 320 923 352.5 c 128,-1,25
 982 385 982 385 1023 409 c 0,26,27
 1032 414 1032 414 1041.5 417.5 c 128,-1,28
 1051 421 1051 421 1059 421 c 0,29,30
 1077 421 1077 421 1089 409 c 128,-1,31
 1101 397 1101 397 1101 377 c 0,32,33
 1101 354 1101 354 1081.5 324.5 c 128,-1,34
 1062 295 1062 295 1016 263 c 1,35,36
 981 241 981 241 937.5 213.5 c 128,-1,37
 894 186 894 186 846.5 156.5 c 128,-1,38
 799 127 799 127 750.5 99 c 128,-1,39
 702 71 702 71 657 49 c 128,-1,40
 612 27 612 27 572.5 13.5 c 128,-1,41
 533 0 533 0 504 0 c 0,42,43
 435 0 435 0 400.5 33 c 128,-1,44
 366 66 366 66 366 118 c 0,45,46
 366 126 366 126 367 130 c 0,47,48
 374 174 374 174 393 215 c 128,-1,49
 412 256 412 256 436 293 c 128,-1,50
 460 330 460 330 486 363.5 c 128,-1,51
 512 397 512 397 533.5 426.5 c 128,-1,52
 555 456 555 456 569 481 c 128,-1,53
 583 506 583 506 583 527 c 0,54,55
 583 532 583 532 581 537 c 128,-1,56
 579 542 579 542 572 542 c 0,57,58
 560 542 560 542 532.5 533 c 128,-1,59
 505 524 505 524 474 509 c 128,-1,60
 443 494 443 494 415 474.5 c 128,-1,61
 387 455 387 455 375 433 c 0,62,63
 359 405 359 405 338 362 c 128,-1,64
 317 319 317 319 294.5 272 c 128,-1,65
 272 225 272 225 251 179 c 128,-1,66
 230 133 230 133 215 100 c 1,67,68
 203 71 203 71 183.5 48 c 128,-1,69
 164 25 164 25 141 9 c 128,-1,70
 118 -7 118 -7 94 -16 c 128,-1,71
 70 -25 70 -25 50 -25 c 0,72,73
 27 -25 27 -25 13.5 -13 c 128,-1,74
 0 -1 0 -1 0 26 c 0,75,76
 0 37 0 37 3.5 53.5 c 128,-1,77
 7 70 7 70 18 90 c 0,78,79
 36 124 36 124 54.5 164 c 128,-1,80
 73 204 73 204 97 255.5 c 128,-1,81
 121 307 121 307 152.5 373.5 c 128,-1,82
 184 440 184 440 227 527 c 1,83,84
 213 539 213 539 203.5 556.5 c 128,-1,85
 194 574 194 574 194 600 c 0,86,87
 194 624 194 624 204 641.5 c 128,-1,88
 214 659 214 659 231 670 c 128,-1,89
 248 681 248 681 270.5 686.5 c 128,-1,90
 293 692 293 692 318 692 c 0,91,92
 344 692 344 692 370 687.5 c 128,-1,93
 396 683 396 683 416.5 674 c 128,-1,94
 437 665 437 665 450 652 c 128,-1,95
 463 639 463 639 463 622 c 0,96,97
 463 619 463 619 461 614 c 128,-1,98
 459 609 459 609 456.5 603 c 128,-1,99
 454 597 454 597 452 592 c 128,-1,100
 450 587 450 587 450 584 c 0,101,102
 450 582 450 582 451 582 c 2,103,-1
 452 582 l 1,104,-1
 454 583 l 1,0,1
EndSplineSet
EndChar

StartChar: s
Encoding: 115 115 86
Width: 611
GlyphClass: 2
Flags: W
LayerCount: 2
Fore
SplineSet
392 563 m 1,0,1
 453 531 453 531 501 490 c 128,-1,2
 549 449 549 449 582.5 403.5 c 128,-1,3
 616 358 616 358 633.5 311 c 128,-1,4
 651 264 651 264 651 219 c 0,5,6
 651 162 651 162 618.5 116.5 c 128,-1,7
 586 71 586 71 533.5 39.5 c 128,-1,8
 481 8 481 8 413.5 -8.5 c 128,-1,9
 346 -25 346 -25 277 -25 c 0,10,11
 225 -25 225 -25 176 -13.5 c 128,-1,12
 127 -2 127 -2 86.5 22 c 128,-1,13
 46 46 46 46 17 83.5 c 128,-1,14
 -12 121 -12 121 -24 173 c 0,15,16
 -26 181 -26 181 -26 186 c 0,17,18
 -26 213 -26 213 -7 232.5 c 128,-1,19
 12 252 12 252 35 252 c 0,20,21
 46 252 46 252 59.5 248 c 128,-1,22
 73 244 73 244 80 230 c 0,23,24
 93 206 93 206 116.5 187 c 128,-1,25
 140 168 140 168 169 154.5 c 128,-1,26
 198 141 198 141 230.5 133.5 c 128,-1,27
 263 126 263 126 294 126 c 0,28,29
 326 126 326 126 355.5 132 c 128,-1,30
 385 138 385 138 407.5 151 c 128,-1,31
 430 164 430 164 443 184 c 128,-1,32
 456 204 456 204 456 233 c 0,33,34
 456 284 456 284 433 327 c 128,-1,35
 410 370 410 370 373.5 406.5 c 128,-1,36
 337 443 337 443 290.5 474.5 c 128,-1,37
 244 506 244 506 198 535 c 0,38,39
 193 538 193 538 183 552.5 c 128,-1,40
 173 567 173 567 173 582 c 0,41,42
 173 594 173 594 179 601 c 0,43,44
 195 622 195 622 216 644 c 128,-1,45
 237 666 237 666 261 684.5 c 128,-1,46
 285 703 285 703 313 714.5 c 128,-1,47
 341 726 341 726 371 726 c 0,48,49
 393 726 393 726 412 720 c 128,-1,50
 431 714 431 714 444 704.5 c 128,-1,51
 457 695 457 695 464.5 683.5 c 128,-1,52
 472 672 472 672 472 662 c 0,53,54
 472 648 472 648 465 635 c 128,-1,55
 458 622 458 622 446.5 610 c 128,-1,56
 435 598 435 598 420.5 586 c 128,-1,57
 406 574 406 574 392 563 c 1,0,1
EndSplineSet
EndChar

StartChar: t
Encoding: 116 116 87
Width: 528
GlyphClass: 2
Flags: W
LayerCount: 2
Fore
SplineSet
403 556 m 1,0,1
 366 484 366 484 333 415.5 c 128,-1,2
 300 347 300 347 271 289 c 0,3,4
 259 265 259 265 247.5 233.5 c 128,-1,5
 236 202 236 202 236 178 c 0,6,7
 236 164 236 164 242.5 156 c 128,-1,8
 249 148 249 148 264 148 c 0,9,10
 285 148 285 148 317 160.5 c 128,-1,11
 349 173 349 173 386 193.5 c 128,-1,12
 423 214 423 214 464 240.5 c 128,-1,13
 505 267 505 267 544.5 295.5 c 128,-1,14
 584 324 584 324 620 352.5 c 128,-1,15
 656 381 656 381 684 405 c 1,16,17
 700 416 700 416 714 416 c 0,18,19
 731 416 731 416 742 401 c 128,-1,20
 753 386 753 386 753 363 c 128,-1,21
 753 340 753 340 742 316 c 128,-1,22
 731 292 731 292 702 269 c 1,23,24
 637 210 637 210 570.5 157 c 128,-1,25
 504 104 504 104 438.5 63.5 c 128,-1,26
 373 23 373 23 309 -1 c 128,-1,27
 245 -25 245 -25 185 -25 c 0,28,29
 145 -25 145 -25 118 -14.5 c 128,-1,30
 91 -4 91 -4 74.5 14.5 c 128,-1,31
 58 33 58 33 51 57.5 c 128,-1,32
 44 82 44 82 44 110 c 0,33,34
 44 160 44 160 61 214 c 128,-1,35
 78 268 78 268 99 311 c 0,36,37
 129 373 129 373 158.5 434 c 128,-1,38
 188 495 188 495 216 551 c 1,39,-1
 173 551 l 2,40,41
 117 551 117 551 96 569 c 128,-1,42
 75 587 75 587 75 610 c 0,43,44
 75 620 75 620 81.5 634.5 c 128,-1,45
 88 649 88 649 100.5 661.5 c 128,-1,46
 113 674 113 674 131 683 c 128,-1,47
 149 692 149 692 172 692 c 2,48,-1
 280 692 l 1,49,-1
 491 1111 l 2,50,51
 511 1149 511 1149 540.5 1165.5 c 128,-1,52
 570 1182 570 1182 602 1182 c 0,53,54
 632 1182 632 1182 657 1166 c 128,-1,55
 682 1150 682 1150 682 1113 c 0,56,57
 682 1094 682 1094 673.5 1074.5 c 128,-1,58
 665 1055 665 1055 651 1029 c 0,59,60
 642 1012 642 1012 629 988.5 c 128,-1,61
 616 965 616 965 601.5 938.5 c 128,-1,62
 587 912 587 912 571.5 883 c 128,-1,63
 556 854 556 854 541 827 c 0,64,65
 507 763 507 763 469 692 c 1,66,-1
 795 692 l 2,67,68
 819 692 819 692 839 689.5 c 128,-1,69
 859 687 859 687 873.5 679.5 c 128,-1,70
 888 672 888 672 896 659 c 128,-1,71
 904 646 904 646 904 624 c 0,72,73
 904 613 904 613 900.5 602 c 128,-1,74
 897 591 897 591 887.5 582 c 128,-1,75
 878 573 878 573 861.5 567 c 128,-1,76
 845 561 845 561 819 559 c 1,77,-1
 403 556 l 1,0,1
EndSplineSet
EndChar

StartChar: u
Encoding: 117 117 88
Width: 928
GlyphClass: 2
Flags: W
LayerCount: 2
Fore
SplineSet
1170 239 m 1,0,1
 1126 189 1126 189 1067.5 141.5 c 128,-1,2
 1009 94 1009 94 947 57 c 128,-1,3
 885 20 885 20 825 -2.5 c 128,-1,4
 765 -25 765 -25 717 -25 c 128,-1,5
 669 -25 669 -25 639 2 c 128,-1,6
 609 29 609 29 609 94 c 0,7,8
 609 140 609 140 625 201 c 1,9,10
 599 162 599 162 560 122 c 128,-1,11
 521 82 521 82 471 49 c 128,-1,12
 421 16 421 16 359 -4.5 c 128,-1,13
 297 -25 297 -25 224 -25 c 0,14,15
 191 -25 191 -25 160.5 -18 c 128,-1,16
 130 -11 130 -11 107 6 c 128,-1,17
 84 23 84 23 70 51.5 c 128,-1,18
 56 80 56 80 56 123 c 0,19,20
 56 124 56 124 60 153.5 c 128,-1,21
 64 183 64 183 85.5 246.5 c 128,-1,22
 107 310 107 310 152 411 c 128,-1,23
 197 512 197 512 279 656 c 0,24,25
 300 694 300 694 327.5 710.5 c 128,-1,26
 355 727 355 727 387 727 c 0,27,28
 401 727 401 727 416 723.5 c 128,-1,29
 431 720 431 720 444 712.5 c 128,-1,30
 457 705 457 705 465 693.5 c 128,-1,31
 473 682 473 682 473 667 c 0,32,33
 473 657 473 657 470 648 c 0,34,35
 465 631 465 631 448.5 603.5 c 128,-1,36
 432 576 432 576 410 540.5 c 128,-1,37
 388 505 388 505 363.5 464 c 128,-1,38
 339 423 339 423 318 379 c 128,-1,39
 297 335 297 335 282 289.5 c 128,-1,40
 267 244 267 244 265 201 c 0,41,42
 265 183 265 183 275 168 c 128,-1,43
 285 153 285 153 308 153 c 0,44,45
 373 153 373 153 432 189 c 128,-1,46
 491 225 491 225 541 278.5 c 128,-1,47
 591 332 591 332 631.5 393.5 c 128,-1,48
 672 455 672 455 699 506 c 0,49,50
 718 540 718 540 732.5 579 c 128,-1,51
 747 618 747 618 764 651 c 128,-1,52
 781 684 781 684 803 706 c 128,-1,53
 825 728 825 728 858 728 c 0,54,55
 894 728 894 728 915 705 c 128,-1,56
 936 682 936 682 936 650 c 0,57,58
 936 632 936 632 922.5 600.5 c 128,-1,59
 909 569 909 569 888.5 528.5 c 128,-1,60
 868 488 868 488 844 442 c 128,-1,61
 820 396 820 396 799.5 348.5 c 128,-1,62
 779 301 779 301 765.5 255.5 c 128,-1,63
 752 210 752 210 752 171 c 0,64,65
 752 135 752 135 796 135 c 0,66,67
 827 135 827 135 873 153 c 128,-1,68
 919 171 919 171 969.5 203.5 c 128,-1,69
 1020 236 1020 236 1070.5 280 c 128,-1,70
 1121 324 1121 324 1160 375 c 1,71,-1
 1170 239 l 1,0,1
EndSplineSet
EndChar

StartChar: v
Encoding: 118 118 89
Width: 800
GlyphClass: 2
Flags: W
LayerCount: 2
Fore
SplineSet
970 224 m 1,0,1
 895 167 895 167 820 134.5 c 128,-1,2
 745 102 745 102 654 102 c 0,3,4
 624 102 624 102 596 113 c 128,-1,5
 568 124 568 124 523 152 c 1,6,7
 457 65 457 65 390.5 20 c 128,-1,8
 324 -25 324 -25 252 -25 c 0,9,10
 217 -25 217 -25 185 -12.5 c 128,-1,11
 153 0 153 0 129 25 c 128,-1,12
 105 50 105 50 90.5 87 c 128,-1,13
 76 124 76 124 76 173 c 0,14,15
 76 233 76 233 89.5 302.5 c 128,-1,16
 103 372 103 372 122 438 c 128,-1,17
 141 504 141 504 159.5 560 c 128,-1,18
 178 616 178 616 189 649 c 1,19,20
 209 691 209 691 239.5 709.5 c 128,-1,21
 270 728 270 728 299 728 c 0,22,23
 312 728 312 728 325.5 723.5 c 128,-1,24
 339 719 339 719 350 711 c 128,-1,25
 361 703 361 703 368 692 c 128,-1,26
 375 681 375 681 375 668 c 0,27,28
 375 657 375 657 371 649 c 1,29,30
 356 601 356 601 335.5 544.5 c 128,-1,31
 315 488 315 488 297 431 c 128,-1,32
 279 374 279 374 266.5 319.5 c 128,-1,33
 254 265 254 265 254 220 c 0,34,35
 254 213 254 213 256 201.5 c 128,-1,36
 258 190 258 190 261 179.5 c 128,-1,37
 264 169 264 169 269 161.5 c 128,-1,38
 274 154 274 154 280 154 c 0,39,40
 306 154 306 154 338 183 c 128,-1,41
 370 212 370 212 408 263 c 1,42,43
 441 298 441 298 470.5 345.5 c 128,-1,44
 500 393 500 393 526.5 443 c 128,-1,45
 553 493 553 493 577.5 541.5 c 128,-1,46
 602 590 602 590 625.5 628.5 c 128,-1,47
 649 667 649 667 672 690.5 c 128,-1,48
 695 714 695 714 719 714 c 0,49,50
 760 714 760 714 777 687.5 c 128,-1,51
 794 661 794 661 794 624 c 0,52,53
 794 582 794 582 780.5 547 c 128,-1,54
 767 512 767 512 744 474.5 c 128,-1,55
 721 437 721 437 689.5 391.5 c 128,-1,56
 658 346 658 346 621 283 c 1,57,58
 637 262 637 262 671 262 c 0,59,60
 707 262 707 262 745.5 271 c 128,-1,61
 784 280 784 280 822 296.5 c 128,-1,62
 860 313 860 313 897.5 336.5 c 128,-1,63
 935 360 935 360 970 388 c 1,64,65
 985 397 985 397 998 397 c 0,66,67
 1016 397 1016 397 1027.5 381 c 128,-1,68
 1039 365 1039 365 1039 340 c 0,69,70
 1039 313 1039 313 1023 281.5 c 128,-1,71
 1007 250 1007 250 970 224 c 1,0,1
EndSplineSet
EndChar

StartChar: w
Encoding: 119 119 90
Width: 1139
GlyphClass: 2
Flags: W
LayerCount: 2
Fore
SplineSet
152 489 m 0,0,1
 183 558 183 558 203 600.5 c 128,-1,2
 223 643 223 643 239.5 666.5 c 128,-1,3
 256 690 256 690 272.5 698 c 128,-1,4
 289 706 289 706 314 706 c 0,5,6
 352 706 352 706 379.5 681.5 c 128,-1,7
 407 657 407 657 407 619 c 0,8,9
 407 610 407 610 404.5 601 c 128,-1,10
 402 592 402 592 398 583 c 2,11,-1
 228 181 l 2,12,13
 224 173 224 173 222.5 163.5 c 128,-1,14
 221 154 221 154 221 148 c 0,15,16
 221 135 221 135 226.5 128.5 c 128,-1,17
 232 122 232 122 238 122 c 0,18,19
 249 122 249 122 260.5 127 c 128,-1,20
 272 132 272 132 287.5 144.5 c 128,-1,21
 303 157 303 157 325.5 178.5 c 128,-1,22
 348 200 348 200 381 233 c 1,23,24
 412 266 412 266 445 312.5 c 128,-1,25
 478 359 478 359 509.5 410.5 c 128,-1,26
 541 462 541 462 568 514.5 c 128,-1,27
 595 567 595 567 615 612 c 1,28,29
 630 642 630 642 642 660.5 c 128,-1,30
 654 679 654 679 665.5 689 c 128,-1,31
 677 699 677 699 689 702.5 c 128,-1,32
 701 706 701 706 717 706 c 0,33,34
 778 706 778 706 778 653 c 1,35,36
 776 645 776 645 775.5 635 c 128,-1,37
 775 625 775 625 770 612 c 2,38,-1
 614 151 l 1,39,40
 614 126 614 126 639 126 c 1,41,42
 657 128 657 128 686.5 144.5 c 128,-1,43
 716 161 716 161 746 186.5 c 128,-1,44
 776 212 776 212 802 245.5 c 128,-1,45
 828 279 828 279 840 315 c 0,46,47
 862 381 862 381 884.5 448 c 128,-1,48
 907 515 907 515 932.5 569.5 c 128,-1,49
 958 624 958 624 987.5 659.5 c 128,-1,50
 1017 695 1017 695 1053 698 c 1,51,52
 1085 698 1085 698 1105.5 677.5 c 128,-1,53
 1126 657 1126 657 1126 624 c 0,54,55
 1126 585 1126 585 1115.5 540 c 128,-1,56
 1105 495 1105 495 1088 450 c 128,-1,57
 1071 405 1071 405 1047.5 363 c 128,-1,58
 1024 321 1024 321 999 287 c 1,59,60
 1006 266 1006 266 1028 266 c 0,61,62
 1067 266 1067 266 1101.5 272 c 128,-1,63
 1136 278 1136 278 1168.5 289.5 c 128,-1,64
 1201 301 1201 301 1233.5 317 c 128,-1,65
 1266 333 1266 333 1301 354 c 1,66,67
 1317 365 1317 365 1333 365 c 0,68,69
 1353 365 1353 365 1369 350 c 128,-1,70
 1385 335 1385 335 1385 311 c 0,71,72
 1385 289 1385 289 1365.5 266 c 128,-1,73
 1346 243 1346 243 1314 221 c 128,-1,74
 1282 199 1282 199 1241.5 180 c 128,-1,75
 1201 161 1201 161 1159.5 146.5 c 128,-1,76
 1118 132 1118 132 1079.5 123.5 c 128,-1,77
 1041 115 1041 115 1012 115 c 0,78,79
 956 115 956 115 897 147 c 1,80,81
 827 63 827 63 751.5 19 c 128,-1,82
 676 -25 676 -25 598 -25 c 0,83,84
 526 -25 526 -25 494.5 12.5 c 128,-1,85
 463 50 463 50 463 122 c 1,86,87
 388 46 388 46 322.5 10.5 c 128,-1,88
 257 -25 257 -25 188 -25 c 0,89,90
 144 -25 144 -25 114.5 -14.5 c 128,-1,91
 85 -4 85 -4 67 15 c 128,-1,92
 49 34 49 34 41.5 59.5 c 128,-1,93
 34 85 34 85 34 115 c 0,94,95
 34 164 34 164 48 218.5 c 128,-1,96
 62 273 62 273 81.5 324 c 128,-1,97
 101 375 101 375 120.5 418.5 c 128,-1,98
 140 462 140 462 152 489 c 0,0,1
EndSplineSet
EndChar

StartChar: x
Encoding: 120 120 91
Width: 723
GlyphClass: 2
Flags: W
LayerCount: 2
Fore
SplineSet
325 716 m 0,0,1
 350 716 350 716 368 712 c 128,-1,2
 386 708 386 708 398 694.5 c 128,-1,3
 410 681 410 681 416 658.5 c 128,-1,4
 422 636 422 636 422 600 c 2,5,-1
 422 485 l 1,6,-1
 644 671 l 2,7,8
 695 713 695 713 746 713 c 0,9,10
 776 713 776 713 796 699 c 128,-1,11
 816 685 816 685 816 662 c 0,12,13
 816 648 816 648 806.5 632 c 128,-1,14
 797 616 797 616 778 600 c 2,15,-1
 446 320 l 1,16,-1
 458 184 l 1,17,18
 458 135 458 135 493 135 c 0,19,20
 531 135 531 135 588 163.5 c 128,-1,21
 645 192 645 192 720 246 c 2,22,-1
 835 330 l 1,23,24
 853 341 853 341 872 341 c 0,25,26
 893 341 893 341 906.5 326.5 c 128,-1,27
 920 312 920 312 920 289 c 0,28,29
 920 264 920 264 901.5 231 c 128,-1,30
 883 198 883 198 835 165 c 0,31,32
 760 112 760 112 703.5 76 c 128,-1,33
 647 40 647 40 600.5 17.5 c 128,-1,34
 554 -5 554 -5 514.5 -15 c 128,-1,35
 475 -25 475 -25 435 -25 c 0,36,37
 345 -25 345 -25 300.5 26 c 128,-1,38
 256 77 256 77 256 191 c 1,39,-1
 38 3 l 1,40,41
 19 -12 19 -12 -0.5 -18.5 c 128,-1,42
 -20 -25 -20 -25 -37 -25 c 0,43,44
 -69 -25 -69 -25 -91 -8 c 128,-1,45
 -113 9 -113 9 -113 34 c 0,46,47
 -113 62 -113 62 -77 89 c 1,48,-1
 231 357 l 1,49,-1
 231 600 l 2,50,51
 231 645 231 645 245 669 c 128,-1,52
 259 693 259 693 276 703.5 c 128,-1,53
 293 714 293 714 308 715 c 128,-1,54
 323 716 323 716 325 716 c 0,0,1
EndSplineSet
EndChar

StartChar: y
Encoding: 121 121 92
Width: 896
GlyphClass: 2
Flags: W
LayerCount: 2
Fore
SplineSet
709 634 m 1,0,1
 737 656 737 656 756.5 667.5 c 128,-1,2
 776 679 776 679 790 684.5 c 128,-1,3
 804 690 804 690 815.5 691 c 128,-1,4
 827 692 827 692 839 692 c 0,5,6
 860 692 860 692 869 676.5 c 128,-1,7
 878 661 878 661 878 644 c 0,8,9
 878 630 878 630 873 618 c 2,10,-1
 649 151 l 1,11,12
 697 187 697 187 759.5 221.5 c 128,-1,13
 822 256 822 256 879.5 283.5 c 128,-1,14
 937 311 937 311 978.5 328 c 128,-1,15
 1020 345 1020 345 1026 345 c 0,16,17
 1051 345 1051 345 1070 326 c 128,-1,18
 1089 307 1089 307 1089 278 c 0,19,20
 1089 252 1089 252 1069.5 223 c 128,-1,21
 1050 194 1050 194 1001 167 c 0,22,23
 931 128 931 128 879 100.5 c 128,-1,24
 827 73 827 73 787 51 c 128,-1,25
 747 29 747 29 716 11 c 128,-1,26
 685 -7 685 -7 657.5 -26 c 128,-1,27
 630 -45 630 -45 603.5 -66.5 c 128,-1,28
 577 -88 577 -88 546 -117 c 1,29,30
 523 -177 523 -177 500.5 -232 c 128,-1,31
 478 -287 478 -287 459.5 -329 c 128,-1,32
 441 -371 441 -371 429 -397 c 128,-1,33
 417 -423 417 -423 416 -425 c 0,34,35
 335 -593 335 -593 238 -593 c 0,36,37
 198 -593 198 -593 173 -566.5 c 128,-1,38
 148 -540 148 -540 148 -495 c 0,39,40
 148 -453 148 -453 158.5 -411.5 c 128,-1,41
 169 -370 169 -370 195.5 -320 c 128,-1,42
 222 -270 222 -270 265.5 -208.5 c 128,-1,43
 309 -147 309 -147 375 -64 c 1,44,-1
 575 341 l 1,45,46
 425 163 425 163 303 69 c 128,-1,47
 181 -25 181 -25 75 -25 c 0,48,49
 41 -25 41 -25 17 -9.5 c 128,-1,50
 -7 6 -7 6 -7 42 c 0,51,52
 -7 92 -7 92 17 155 c 0,53,54
 31 189 31 189 45 217.5 c 128,-1,55
 59 246 59 246 74 274.5 c 128,-1,56
 89 303 89 303 105.5 336 c 128,-1,57
 122 369 122 369 141.5 410.5 c 128,-1,58
 161 452 161 452 184.5 506.5 c 128,-1,59
 208 561 208 561 237 634 c 1,60,61
 257 673 257 673 289 690.5 c 128,-1,62
 321 708 321 708 351 708 c 0,63,64
 382 708 382 708 403.5 693.5 c 128,-1,65
 425 679 425 679 425 655 c 0,66,67
 425 643 425 643 421 634 c 2,68,-1
 238 253 l 2,69,70
 224 224 224 224 224 207 c 0,71,72
 224 192 224 192 236 192 c 0,73,74
 247 192 247 192 264 203 c 128,-1,75
 281 214 281 214 296 228 c 2,76,-1
 709 634 l 1,0,1
EndSplineSet
EndChar

StartChar: z
Encoding: 122 122 93
Width: 847
GlyphClass: 2
Flags: W
LayerCount: 2
Fore
SplineSet
432 -84 m 0,0,1
 432 -76 432 -76 432 -68.5 c 128,-1,2
 432 -61 432 -61 431 -53 c 1,3,4
 361 -89 361 -89 306.5 -121 c 128,-1,5
 252 -153 252 -153 214.5 -180 c 128,-1,6
 177 -207 177 -207 157.5 -228.5 c 128,-1,7
 138 -250 138 -250 138 -263 c 0,8,9
 138 -289 138 -289 157.5 -306.5 c 128,-1,10
 177 -324 177 -324 212 -324 c 0,11,12
 239 -324 239 -324 276 -301.5 c 128,-1,13
 313 -279 313 -279 347 -244 c 128,-1,14
 381 -209 381 -209 405.5 -166.5 c 128,-1,15
 430 -124 430 -124 432 -84 c 0,0,1
1038 476 m 0,16,17
 1046 483 1046 483 1054.5 484.5 c 128,-1,18
 1063 486 1063 486 1071 487 c 1,19,20
 1094 487 1094 487 1112 469 c 128,-1,21
 1130 451 1130 451 1130 430 c 0,22,23
 1130 421 1130 421 1126.5 414 c 128,-1,24
 1123 407 1123 407 1116 399 c 0,25,26
 1084 363 1084 363 1039.5 326 c 128,-1,27
 995 289 995 289 934.5 247 c 128,-1,28
 874 205 874 205 795 156 c 128,-1,29
 716 107 716 107 614 47 c 1,30,31
 614 41 614 41 614.5 34.5 c 128,-1,32
 615 28 615 28 615 21 c 0,33,34
 615 -30 615 -30 595.5 -84 c 128,-1,35
 576 -138 576 -138 542.5 -190 c 128,-1,36
 509 -242 509 -242 464.5 -288.5 c 128,-1,37
 420 -335 420 -335 370.5 -370 c 128,-1,38
 321 -405 321 -405 269 -425.5 c 128,-1,39
 217 -446 217 -446 169 -446 c 128,-1,40
 121 -446 121 -446 81.5 -434.5 c 128,-1,41
 42 -423 42 -423 14 -401.5 c 128,-1,42
 -14 -380 -14 -380 -29 -350.5 c 128,-1,43
 -44 -321 -44 -321 -44 -285 c 0,44,45
 -44 -252 -44 -252 -20 -214 c 128,-1,46
 4 -176 4 -176 56 -132.5 c 128,-1,47
 108 -89 108 -89 190 -38.5 c 128,-1,48
 272 12 272 12 387 71 c 1,49,50
 370 78 370 78 351.5 79 c 128,-1,51
 333 80 333 80 316 80 c 0,52,53
 293 80 293 80 263 79 c 128,-1,54
 233 78 233 78 202 78 c 0,55,56
 178 78 178 78 156 79 c 128,-1,57
 134 80 134 80 116.5 83 c 128,-1,58
 99 86 99 86 89 92.5 c 128,-1,59
 79 99 79 99 79 110 c 0,60,61
 79 131 79 131 90 153.5 c 128,-1,62
 101 176 101 176 130.5 207.5 c 128,-1,63
 160 239 160 239 210.5 283.5 c 128,-1,64
 261 328 261 328 340 392 c 1,65,-1
 553 549 l 1,66,67
 546 549 546 549 444 546 c 128,-1,68
 342 543 342 543 159 543 c 0,69,70
 133 543 133 543 121 557 c 128,-1,71
 109 571 109 571 109 584 c 0,72,73
 110 599 110 599 115.5 617 c 128,-1,74
 121 635 121 635 131 650.5 c 128,-1,75
 141 666 141 666 155.5 677 c 128,-1,76
 170 688 170 688 189 688 c 0,77,78
 209 688 209 688 254 688.5 c 128,-1,79
 299 689 299 689 356 689 c 128,-1,80
 413 689 413 689 475 690 c 128,-1,81
 537 691 537 691 591 691 c 128,-1,82
 645 691 645 691 684 691.5 c 128,-1,83
 723 692 723 692 735 692 c 0,84,85
 753 692 753 692 764 686 c 128,-1,86
 775 680 775 680 781 671 c 128,-1,87
 787 662 787 662 789 651.5 c 128,-1,88
 791 641 791 641 791 632 c 0,89,90
 791 614 791 614 783.5 596 c 128,-1,91
 776 578 776 578 759.5 558 c 128,-1,92
 743 538 743 538 716 515.5 c 128,-1,93
 689 493 689 493 651 465 c 0,94,95
 644 460 644 460 626.5 447 c 128,-1,96
 609 434 609 434 585 416.5 c 128,-1,97
 561 399 561 399 532.5 378 c 128,-1,98
 504 357 504 357 476 336 c 0,99,100
 409 287 409 287 329 228 c 1,101,-1
 350 228 l 2,102,103
 414 228 414 228 470 210 c 128,-1,104
 526 192 526 192 564 161 c 1,105,106
 649 208 649 208 719.5 250 c 128,-1,107
 790 292 790 292 847.5 330.5 c 128,-1,108
 905 369 905 369 952 405 c 128,-1,109
 999 441 999 441 1038 476 c 0,16,17
EndSplineSet
EndChar

